<?xml version="1.0" encoding="utf-8"?>
<!-- Generator: Adobe Illustrator 25.0.1, SVG Export Plug-In . SVG Version: 6.00 Build 0)  -->
<svg version="1.1" id="Layer_1" xmlns="http://www.w3.org/2000/svg" xmlns:xlink="http://www.w3.org/1999/xlink" x="0px" y="0px"
	 viewBox="0 0 850 511.1" style="enable-background:new 0 0 850 511.1;" xml:space="preserve">
<style type="text/css">
	.st0{fill:#FFFFFF;}
	.st1{fill:#F26F21;}
	.st2{clip-path:url(#SVGID_2_);fill:#FFFFFF;}
</style>
<g>
	<g>
		<path class="st0" d="M24.9,15.9h-8.7c-0.5,0-1-0.5-1-1c0-0.5,0.5-1,1-1h19.3c0.5,0,1,0.5,1,1c0,0.6-0.5,1-1,1h-8.7v25.8
			c0,0.5-0.5,1-1,1c-0.5,0-1-0.5-1-1V15.9z"/>
		<path class="st0" d="M60.9,29.3H46.1v12.4c0,0.5-0.5,1-1,1c-0.5,0-1-0.5-1-1V14.9c0-0.5,0.5-1,1-1c0.6,0,1,0.5,1,1v12.4h14.8V14.9
			c0-0.5,0.5-1,1-1c0.6,0,1,0.5,1,1v26.8c0,0.5-0.5,1-1,1c-0.5,0-1-0.5-1-1V29.3z"/>
		<path class="st0" d="M73.2,14.9c0-0.5,0.5-1,1-1h0.1H89c0.6,0,1,0.5,1,1c0,0.6-0.4,1-1,1H75.3v11.4h12c0.5,0,1,0.5,1,1
			c0,0.5-0.5,1-1,1h-12v11.3H89c0.6,0,1,0.5,1,1c0,0.5-0.4,1-1,1H74.4h-0.1h-0.1c-0.5,0-0.9-0.5-0.9-1V14.9z"/>
		<path class="st0" d="M110.2,14.6l10.3,24.5l7.3-17.3c0.2-0.4,0.6-0.6,0.9-0.6c0.5,0,0.8,0.2,1,0.6l7.3,17.3l10.3-24.5
			c0.2-0.5,0.8-0.7,1.4-0.5c0.5,0.2,0.7,0.8,0.5,1.3L138,42c-0.2,0.4-0.5,0.6-0.8,0.7h-0.1H137c-0.2,0-0.3,0-0.5-0.2
			c0,0-0.1-0.1-0.2-0.2c0,0-0.1-0.2-0.2-0.2c0,0,0-0.1,0-0.1l-7.3-17.4L121.4,42c0,0.1,0,0.2-0.1,0.2c0,0.1-0.1,0.2-0.2,0.3
			c0,0-0.1,0-0.1,0c-0.2,0.1-0.4,0.2-0.6,0.2c-0.2,0-0.5-0.1-0.6-0.2l-0.1-0.1l0,0c-0.1-0.1-0.2-0.3-0.2-0.5l-11.1-26.4
			c-0.2-0.5,0-1.1,0.5-1.3C109.4,13.9,110,14.1,110.2,14.6z"/>
		<path class="st0" d="M166.5,13.5c7.7,0,13.7,6.5,13.8,14.6c0,8.1-6.1,14.6-13.8,14.6c-7.8,0-13.9-6.5-13.9-14.6
			C152.6,20,158.7,13.5,166.5,13.5z M166.5,40.7c6.3,0,11.7-5.6,11.7-12.6c0-7.1-5.4-12.5-11.7-12.5c-6.5,0-11.9,5.4-11.9,12.5
			C154.6,35.1,159.9,40.7,166.5,40.7z"/>
		<path class="st0" d="M203.1,36.2c0-2.1-1.1-3.4-2.3-4.4c-1.3-0.9-2.8-1.4-3.3-1.4c-0.1,0-0.2-0.1-0.2-0.1h-7v11.4c0,0.5-0.5,1-1,1
			c-0.5,0-1-0.5-1-1V14.9c0-0.5,0.4-0.9,0.9-1h0.1h0.1h8c4.5,0,8.2,3.7,8.2,8.2c0,3.3-1.9,6.1-4.7,7.4c0.1,0.1,0.2,0.1,0.4,0.2
			c1.9,1.1,3.9,3.2,3.9,6.4c0,1.7,0.2,2.7,0.4,3.3c0.2,0.5,0.4,0.7,0.4,0.7c0.5,0,0.9,0.2,1.1,0.7c0.1,0.5-0.1,1.1-0.7,1.3
			c0,0-0.2,0-0.5,0h-0.1c-0.5,0-1.4-0.4-1.9-1.3C203.4,40,203.1,38.6,203.1,36.2z M197.4,15.9h-7.1v12.4h6.9h0.4
			c3.3-0.1,6-2.8,6-6.2C203.6,18.7,200.8,15.9,197.4,15.9z"/>
		<path class="st0" d="M215.6,42.7L215.6,42.7c-0.6,0-1.1-0.5-1.1-1V14.9c0-0.5,0.5-1,1-1c0.6,0,1,0.5,1,1v25.8h13.8
			c0.6,0,1,0.5,1,1c0,0.5-0.5,1-1,1H215.6z"/>
		<path class="st0" d="M238.7,42.7h-0.2c-0.5,0-0.9-0.5-0.9-1V14.9c0-0.5,0.5-1,1-1h0.1h5.3c7.9,0,14.4,6.5,14.4,14.4
			c0,7.9-6.5,14.4-14.4,14.4H238.7z M244,40.7c6.8,0,12.4-5.5,12.4-12.3c0-6.9-5.6-12.4-12.4-12.4h-4.4v24.8H244z"/>
		<path class="st0" d="M265.7,20.6c1.5-0.8,2.1-1.7,1.9-3.2c-0.6-0.2-1.1-0.6-1.1-1.4v-0.9c0-0.7,0.6-1.4,1.4-1.4s1.4,0.6,1.4,1.4v1
			c0,2.3-0.4,3.5-1.1,4.3s-1.8,1.3-2.1,1.3c-0.3,0-0.6-0.2-0.6-0.6C265.4,20.9,265.5,20.7,265.7,20.6z"/>
		<path class="st0" d="M275.4,37.3c0.3-0.4,0.9-0.5,1.3-0.1c2.1,1.7,5.7,3.7,9.5,3.7c2.5,0,4.8-0.7,6.3-1.9c1.6-1.2,2.5-2.7,2.5-4.3
			c0-1.6-0.8-2.9-2.3-3.9c-1.6-1-3.9-1.8-6.7-2.3h-0.1c-2.7-0.5-5-1.2-6.8-2.4c-1.8-1.2-3-2.9-3-5c0-2.2,1.2-4.1,3-5.4
			c1.8-1.3,4.2-2.1,6.9-2.1c3.8,0,6.6,1.9,8.9,3.3c0.4,0.3,0.5,0.8,0.2,1.3c-0.2,0.4-0.8,0.5-1.2,0.2c-2.3-1.5-4.7-3-7.9-3
			c-2.3,0-4.4,0.7-5.9,1.7c-1.4,1.1-2.3,2.5-2.3,3.9c0,1.4,0.7,2.5,2.1,3.5c1.4,1,3.6,1.7,6.2,2.2h0.1c2.9,0.5,5.4,1.4,7.3,2.6
			c1.9,1.2,3.2,3.1,3.2,5.4c0,2.3-1.3,4.4-3.2,5.8c-1.9,1.4-4.5,2.3-7.4,2.3c-4.4,0-8.2-2.3-10.6-4.2
			C275.1,38.2,275.1,37.7,275.4,37.3z"/>
		<path class="st0" d="M316.5,14.9c0-0.5,0.4-0.9,0.9-1h0.2h14.7c0.5,0,1,0.5,1,1c0,0.6-0.5,1-1,1h-13.8v11.4h12.1c0.6,0,1,0.5,1,1
			c0,0.5-0.5,1-1,1h-12.1v12.4c0,0.5-0.5,1-1,1c-0.5,0-1-0.5-1-1V14.9z"/>
		<path class="st0" d="M341.6,14.9c0-0.5,0.5-1,1-1c0.6,0,1,0.5,1,1v26.8c0,0.5-0.5,1-1,1c-0.5,0-1-0.5-1-1V14.9z"/>
		<path class="st0" d="M368.2,36.2c0-2.1-1.1-3.4-2.3-4.4c-1.3-0.9-2.8-1.4-3.3-1.4c-0.1,0-0.2-0.1-0.2-0.1h-7v11.4c0,0.5-0.5,1-1,1
			c-0.5,0-1-0.5-1-1V14.9c0-0.5,0.4-0.9,0.9-1h0.1h0.1h8c4.5,0,8.2,3.7,8.2,8.2c0,3.3-1.9,6.1-4.7,7.4c0.1,0.1,0.2,0.1,0.4,0.2
			c1.9,1.1,3.9,3.2,3.9,6.4c0,1.7,0.2,2.7,0.4,3.3c0.2,0.5,0.4,0.7,0.4,0.7c0.5,0,0.9,0.2,1.1,0.7c0.1,0.5-0.1,1.1-0.7,1.3
			c0,0-0.2,0-0.5,0h-0.1c-0.5,0-1.4-0.4-1.9-1.3C368.5,40,368.2,38.6,368.2,36.2z M362.5,15.9h-7.1v12.4h6.9h0.4
			c3.3-0.1,6-2.8,6-6.2C368.7,18.7,365.9,15.9,362.5,15.9z"/>
		<path class="st0" d="M378.3,37.3c0.3-0.4,0.9-0.5,1.3-0.1c2.1,1.7,5.7,3.7,9.5,3.7c2.5,0,4.8-0.7,6.3-1.9c1.6-1.2,2.5-2.7,2.5-4.3
			c0-1.6-0.8-2.9-2.3-3.9c-1.6-1-3.9-1.8-6.7-2.3h-0.1c-2.7-0.5-5-1.2-6.8-2.4c-1.8-1.2-3-2.9-3-5c0-2.2,1.2-4.1,3-5.4
			c1.8-1.3,4.2-2.1,6.9-2.1c3.8,0,6.6,1.9,8.9,3.3c0.4,0.3,0.5,0.8,0.2,1.3c-0.2,0.4-0.8,0.5-1.2,0.2c-2.3-1.5-4.7-3-7.9-3
			c-2.3,0-4.4,0.7-5.9,1.7c-1.4,1.1-2.3,2.5-2.3,3.9c0,1.4,0.7,2.5,2.1,3.5c1.4,1,3.6,1.7,6.2,2.2h0.1c2.9,0.5,5.4,1.4,7.3,2.6
			c1.9,1.2,3.2,3.1,3.2,5.4c0,2.3-1.3,4.4-3.2,5.8c-1.9,1.4-4.5,2.3-7.4,2.3c-4.4,0-8.2-2.3-10.6-4.2C378,38.2,378,37.7,378.3,37.3z
			"/>
		<path class="st0" d="M413.9,15.9h-8.7c-0.5,0-1-0.5-1-1c0-0.5,0.5-1,1-1h19.3c0.5,0,1,0.5,1,1c0,0.6-0.5,1-1,1h-8.7v25.8
			c0,0.5-0.5,1-1,1c-0.5,0-1-0.5-1-1V15.9z"/>
		<path class="st0" d="M446.5,42.7h-0.2c-0.5,0-0.9-0.5-0.9-1V14.9c0-0.5,0.5-1,1-1h0.1h5.3c7.9,0,14.4,6.5,14.4,14.4
			c0,7.9-6.5,14.4-14.4,14.4H446.5z M451.8,40.7c6.8,0,12.4-5.5,12.4-12.3c0-6.9-5.6-12.4-12.4-12.4h-4.4v24.8H451.8z"/>
		<path class="st0" d="M472.9,14.9c0-0.5,0.5-1,1-1h0.1h14.7c0.6,0,1,0.5,1,1c0,0.6-0.4,1-1,1h-13.8v11.4h12c0.5,0,1,0.5,1,1
			c0,0.5-0.5,1-1,1h-12v11.3h13.8c0.6,0,1,0.5,1,1c0,0.5-0.4,1-1,1H474h-0.1h-0.1c-0.5,0-0.9-0.5-0.9-1V14.9z"/>
		<path class="st0" d="M504.8,15.9h-8.7c-0.5,0-1-0.5-1-1c0-0.5,0.5-1,1-1h19.3c0.5,0,1,0.5,1,1c0,0.6-0.5,1-1,1h-8.7v25.8
			c0,0.5-0.5,1-1,1c-0.5,0-1-0.5-1-1V15.9z"/>
		<path class="st0" d="M524,14.9c0-0.5,0.5-1,1-1h0.1h14.7c0.6,0,1,0.5,1,1c0,0.6-0.4,1-1,1H526v11.4h12c0.5,0,1,0.5,1,1
			c0,0.5-0.5,1-1,1h-12v11.3h13.8c0.6,0,1,0.5,1,1c0,0.5-0.4,1-1,1h-14.7h-0.1h-0.1c-0.5,0-0.9-0.5-0.9-1V14.9z"/>
		<path class="st0" d="M563.5,36.2c0-2.1-1.1-3.4-2.3-4.4c-1.3-0.9-2.8-1.4-3.3-1.4c-0.1,0-0.2-0.1-0.2-0.1h-7v11.4c0,0.5-0.5,1-1,1
			c-0.5,0-1-0.5-1-1V14.9c0-0.5,0.4-0.9,0.9-1h0.1h0.1h8c4.5,0,8.2,3.7,8.2,8.2c0,3.3-1.9,6.1-4.7,7.4c0.1,0.1,0.2,0.1,0.4,0.2
			c1.9,1.1,3.9,3.2,3.9,6.4c0,1.7,0.2,2.7,0.4,3.3c0.2,0.5,0.4,0.7,0.4,0.7c0.5,0,0.9,0.2,1.1,0.7c0.1,0.5-0.1,1.1-0.7,1.3
			c0,0-0.2,0-0.5,0h-0.1c-0.5,0-1.4-0.4-1.8-1.3C563.8,40,563.5,38.6,563.5,36.2z M557.7,15.9h-7.1v12.4h6.9h0.4
			c3.3-0.1,6-2.8,6-6.2C563.9,18.7,561.1,15.9,557.7,15.9z"/>
		<path class="st0" d="M588.3,29.7c-0.6,0-1-0.4-1-1s0.5-1,1-1h8.9h0.1c0.5,0,0.9,0.5,0.9,1v9.9v0.2c0,0.3-0.2,0.6-0.4,0.7
			c-2.5,2-5.8,3.2-9.3,3.2c-8.3,0-15-6.5-15-14.6c0-8,6.7-14.6,15-14.6c3.6,0,6.7,1.2,9.3,3.2c0.4,0.3,0.5,1,0.1,1.4
			c-0.3,0.4-0.9,0.5-1.4,0.2c-2.1-1.7-4.9-2.8-8-2.8c-7.2,0-13,5.6-13,12.5c0,7,5.8,12.6,13,12.6c2.8,0,5.5-0.9,7.6-2.5v-8.5H588.3z
			"/>
		<path class="st0" d="M608.4,14.9c0-0.5,0.5-1,1-1h0.1h14.7c0.6,0,1,0.5,1,1c0,0.6-0.4,1-1,1h-13.8v11.4h12c0.5,0,1,0.5,1,1
			c0,0.5-0.5,1-1,1h-12v11.3h13.8c0.6,0,1,0.5,1,1c0,0.5-0.4,1-1,1h-14.7h-0.1h-0.1c-0.5,0-0.9-0.5-0.9-1V14.9z"/>
		<path class="st0" d="M634.8,18.1v23.6c0,0.5-0.5,1-1,1c-0.5,0-1-0.5-1-1V15.3c-0.1-0.4,0-0.8,0.4-1.1c0.5-0.3,1.1-0.2,1.4,0.2
			l17.4,24.2V15.2c0-0.5,0.5-1,1-1c0.6,0,1,0.5,1,1v26.5c0,0.5-0.5,1-1,1c-0.3,0-0.6-0.1-0.8-0.4c0,0-0.1-0.1-0.2-0.2L634.8,18.1z"
			/>
		<path class="st0" d="M671.5,15.9h-8.7c-0.5,0-1-0.5-1-1c0-0.5,0.5-1,1-1h19.3c0.5,0,1,0.5,1,1c0,0.6-0.5,1-1,1h-8.7v25.8
			c0,0.5-0.5,1-1,1c-0.5,0-1-0.5-1-1V15.9z"/>
		<path class="st0" d="M716.7,13.5c3.5,0,6.8,1.2,9.3,3.2c0.5,0.4,0.5,1.1,0.2,1.4c-0.3,0.5-1,0.5-1.4,0.2c-2.2-1.7-5-2.8-8.1-2.8
			c-7.2,0-13,5.6-13,12.7c0,6.9,5.8,12.5,13,12.5c3,0,5.8-1,8-2.8c0.5-0.3,1.2-0.2,1.4,0.2c0.4,0.4,0.3,1.1-0.1,1.4
			c-2.5,1.9-5.8,3.1-9.3,3.1c-8.3,0-15-6.5-15-14.5C701.8,20,708.5,13.5,716.7,13.5z"/>
		<path class="st0" d="M749,36.2c0-2.1-1.1-3.4-2.3-4.4c-1.3-0.9-2.8-1.4-3.3-1.4c-0.1,0-0.2-0.1-0.2-0.1h-7v11.4c0,0.5-0.5,1-1,1
			c-0.5,0-1-0.5-1-1V14.9c0-0.5,0.4-0.9,0.9-1h0.1h0.1h8c4.5,0,8.2,3.7,8.2,8.2c0,3.3-1.9,6.1-4.7,7.4c0.1,0.1,0.2,0.1,0.4,0.2
			c1.9,1.1,3.9,3.2,3.9,6.4c0,1.7,0.2,2.7,0.4,3.3c0.2,0.5,0.4,0.7,0.4,0.7c0.5,0,0.9,0.2,1.1,0.7c0.1,0.5-0.1,1.1-0.7,1.3
			c0,0-0.2,0-0.5,0h-0.1c-0.5,0-1.4-0.4-1.8-1.3C749.3,40,749,38.6,749,36.2z M743.3,15.9h-7.1v12.4h6.9h0.4c3.3-0.1,6-2.8,6-6.2
			C749.5,18.7,746.7,15.9,743.3,15.9z"/>
		<path class="st0" d="M760.4,14.9c0-0.5,0.5-1,1-1h0.1h14.7c0.6,0,1,0.5,1,1c0,0.6-0.4,1-1,1h-13.8v11.4h12c0.5,0,1,0.5,1,1
			c0,0.5-0.5,1-1,1h-12v11.3h13.8c0.6,0,1,0.5,1,1c0,0.5-0.4,1-1,1h-14.7h-0.1h-0.1c-0.5,0-0.9-0.5-0.9-1V14.9z"/>
		<path class="st0" d="M800.6,35.2h-13.1l-2.5,6.8c-0.2,0.4-0.5,0.7-0.9,0.7c-0.1,0-0.2,0-0.4,0c-0.5-0.2-0.8-0.8-0.6-1.3l10-26.7
			c0.2-0.4,0.6-0.6,1-0.6c0.5,0,0.9,0.2,1,0.6l10,26.7c0.2,0.5,0,1.1-0.5,1.3c-0.2,0-0.2,0-0.4,0c-0.4,0-0.8-0.2-0.9-0.7L800.6,35.2
			z M788.2,33.2h11.6L794,17.8L788.2,33.2z"/>
		<path class="st0" d="M833.6,18l-9.2,12.8c-0.2,0.3-0.5,0.5-0.8,0.5h-0.1c-0.4,0-0.7-0.1-0.9-0.5L813.4,18v23.6c0,0.5-0.5,1-1,1
			c-0.6,0-1-0.5-1-1V15c0-0.3,0.2-0.6,0.4-0.8c0,0,0,0,0.1-0.1c0.5-0.3,1.1-0.2,1.4,0.2l10.2,14.2l10.2-14.2
			c0.3-0.5,0.9-0.5,1.4-0.2c0.1,0.1,0.2,0.2,0.3,0.3c0.1,0.2,0.2,0.4,0.2,0.5v26.6c0,0.5-0.5,1-1,1c-0.6,0-1-0.5-1-1V18z"/>
	</g>
	<g>
		<path class="st0" d="M128,497.6c0.3-0.4,0.8-0.4,1.1-0.1c1.9,1.5,5.1,3.3,8.4,3.3c2.2,0,4.2-0.7,5.6-1.7c1.4-1,2.2-2.4,2.2-3.8
			c0-1.5-0.7-2.6-2.1-3.5c-1.4-0.9-3.4-1.6-5.9-2.1h-0.1c-2.4-0.4-4.5-1.1-6-2.2c-1.6-1-2.6-2.6-2.6-4.5c0-1.9,1.1-3.6,2.7-4.8
			c1.6-1.2,3.8-1.9,6.2-1.9c3.4,0,5.9,1.6,7.9,3c0.4,0.3,0.5,0.7,0.2,1.1c-0.2,0.4-0.7,0.5-1.1,0.2c-2-1.3-4.2-2.7-7-2.7
			c-2.1,0-3.9,0.6-5.2,1.5c-1.3,1-2,2.2-2,3.5c0,1.3,0.6,2.2,1.9,3.1c1.3,0.9,3.2,1.5,5.5,1.9h0.1c2.6,0.5,4.8,1.2,6.5,2.3
			c1.7,1.1,2.8,2.8,2.8,4.8c0,2-1.2,3.9-2.9,5.1s-4,2-6.6,2c-3.9,0-7.3-2-9.4-3.7C127.8,498.5,127.7,498,128,497.6z"/>
		<path class="st0" d="M176.7,476.5c3.1,0,6,1.1,8.3,2.8c0.4,0.3,0.5,1,0.1,1.3c-0.3,0.4-0.9,0.5-1.2,0.2c-2-1.5-4.5-2.5-7.2-2.5
			c-6.4,0-11.5,5-11.5,11.3c0,6.1,5.1,11.1,11.5,11.1c2.7,0,5.2-0.9,7.1-2.5c0.4-0.3,1-0.2,1.3,0.2c0.4,0.3,0.3,1-0.1,1.3
			c-2.2,1.7-5.1,2.8-8.3,2.8c-7.3,0-13.3-5.8-13.3-12.9C163.4,482.2,169.3,476.5,176.7,476.5z"/>
		<path class="st0" d="M203.9,477.7c0-0.5,0.4-0.9,0.9-0.9c0.5,0,0.9,0.4,0.9,0.9v23.8c0,0.5-0.4,0.9-0.9,0.9
			c-0.5,0-0.9-0.4-0.9-0.9V477.7z"/>
		<path class="st0" d="M225.8,477.7c0-0.5,0.4-0.9,0.9-0.9h0.1h13.1c0.5,0,0.9,0.4,0.9,0.9c0,0.5-0.4,0.9-0.9,0.9h-12.2v10.1h10.7
			c0.5,0,0.9,0.4,0.9,0.9c0,0.5-0.4,0.9-0.9,0.9h-10.7v10.1h12.2c0.5,0,0.9,0.4,0.9,0.9c0,0.5-0.4,0.9-0.9,0.9h-13.1h-0.1h-0.1
			c-0.4,0-0.8-0.4-0.8-0.9V477.7z"/>
		<path class="st0" d="M260.3,480.6v20.9c0,0.5-0.4,0.9-0.9,0.9c-0.5,0-0.9-0.4-0.9-0.9v-23.5c-0.1-0.4,0-0.7,0.3-1
			c0.4-0.3,1-0.2,1.2,0.2l15.5,21.5V478c0-0.5,0.4-0.9,0.9-0.9c0.5,0,0.9,0.4,0.9,0.9v23.6c0,0.5-0.4,0.9-0.9,0.9
			c-0.3,0-0.5-0.1-0.7-0.3c0,0-0.1-0.1-0.1-0.1L260.3,480.6z"/>
		<path class="st0" d="M303.8,478.6h-7.7c-0.5,0-0.9-0.4-0.9-0.9c0-0.5,0.4-0.9,0.9-0.9h17.2c0.5,0,0.9,0.4,0.9,0.9
			c0,0.5-0.4,0.9-0.9,0.9h-7.7v22.9c0,0.5-0.4,0.9-0.9,0.9c-0.5,0-0.9-0.4-0.9-0.9V478.6z"/>
		<path class="st0" d="M332.1,477.7c0-0.5,0.4-0.9,0.9-0.9c0.5,0,0.9,0.4,0.9,0.9v23.8c0,0.5-0.4,0.9-0.9,0.9
			c-0.5,0-0.9-0.4-0.9-0.9V477.7z"/>
		<path class="st0" d="M354,477.7c0-0.5,0.4-0.8,0.8-0.9h0.1h13.1c0.5,0,0.9,0.4,0.9,0.9c0,0.5-0.4,0.9-0.9,0.9h-12.3v10.1h10.7
			c0.5,0,0.9,0.4,0.9,0.9c0,0.5-0.4,0.9-0.9,0.9h-10.7v11c0,0.5-0.4,0.9-0.9,0.9c-0.5,0-0.9-0.4-0.9-0.9V477.7z"/>
		<path class="st0" d="M387.3,477.7c0-0.5,0.4-0.9,0.9-0.9c0.5,0,0.9,0.4,0.9,0.9v23.8c0,0.5-0.4,0.9-0.9,0.9
			c-0.5,0-0.9-0.4-0.9-0.9V477.7z"/>
		<path class="st0" d="M421.4,476.5c3.1,0,6,1.1,8.3,2.8c0.4,0.3,0.5,1,0.1,1.3c-0.3,0.4-0.9,0.5-1.2,0.2c-2-1.5-4.5-2.5-7.2-2.5
			c-6.4,0-11.5,5-11.5,11.3c0,6.1,5.1,11.1,11.5,11.1c2.7,0,5.2-0.9,7.1-2.5c0.4-0.3,1-0.2,1.3,0.2c0.4,0.3,0.3,1-0.1,1.3
			c-2.2,1.7-5.1,2.8-8.3,2.8c-7.3,0-13.3-5.8-13.3-12.9C408,482.2,414,476.5,421.4,476.5z"/>
		<path class="st0" d="M461.8,495.8h-11.7l-2.3,6c-0.1,0.4-0.5,0.6-0.8,0.6c-0.1,0-0.2,0-0.3,0c-0.4-0.2-0.7-0.7-0.5-1.2l8.9-23.7
			c0.1-0.3,0.5-0.5,0.9-0.5c0.4,0,0.8,0.2,0.9,0.5l8.9,23.7c0.2,0.4,0,1-0.5,1.2c-0.1,0-0.2,0-0.3,0c-0.3,0-0.7-0.2-0.8-0.6
			L461.8,495.8z M450.8,494h10.3l-5.2-13.7L450.8,494z"/>
		<path class="st0" d="M483.3,502.4L483.3,502.4c-0.5,0-1-0.4-1-0.9v-23.8c0-0.5,0.4-0.9,0.9-0.9c0.5,0,0.9,0.4,0.9,0.9v22.9h12.2
			c0.5,0,0.9,0.4,0.9,0.9c0,0.5-0.4,0.9-0.9,0.9H483.3z"/>
		<path class="st0" d="M514.9,502.4L514.9,502.4c-0.5,0-1-0.4-1-0.9v-23.8c0-0.5,0.4-0.9,0.9-0.9c0.5,0,0.9,0.4,0.9,0.9v22.9H528
			c0.5,0,0.9,0.4,0.9,0.9c0,0.5-0.4,0.9-0.9,0.9H514.9z"/>
		<path class="st0" d="M547.7,490.1l-8.6-11.7c-0.3-0.4-0.2-1,0.2-1.2c0.4-0.3,1-0.3,1.2,0.1l8,11l8-11c0.3-0.4,0.8-0.5,1.2-0.1
			c0.4,0.3,0.5,0.8,0.2,1.2l-8.6,11.7v11.5c0,0.5-0.4,0.9-0.9,0.9c-0.5,0-0.9-0.4-0.9-0.9V490.1z"/>
		<path class="st0" d="M602.3,478.6h-7.7c-0.5,0-0.9-0.4-0.9-0.9c0-0.5,0.4-0.9,0.9-0.9h17.2c0.5,0,0.9,0.4,0.9,0.9
			c0,0.5-0.4,0.9-0.9,0.9h-7.7v22.9c0,0.5-0.4,0.9-0.9,0.9s-0.9-0.4-0.9-0.9V478.6z"/>
		<path class="st0" d="M643.1,496.6c0-1.9-1-3-2.1-3.9c-1.1-0.8-2.5-1.2-3-1.3c-0.1,0-0.1-0.1-0.2-0.1h-6.2v10.1
			c0,0.5-0.4,0.9-0.9,0.9c-0.5,0-0.9-0.4-0.9-0.9v-23.8c0-0.4,0.4-0.8,0.8-0.9h0.1h0.1h7.1c4,0,7.3,3.3,7.3,7.3
			c0,2.9-1.7,5.4-4.2,6.6c0.1,0.1,0.2,0.1,0.4,0.2c1.7,1,3.4,2.8,3.4,5.7c0,1.5,0.1,2.4,0.3,3c0.1,0.4,0.3,0.6,0.4,0.6
			c0.4,0,0.8,0.2,1,0.6c0.1,0.5-0.1,1-0.6,1.2c0,0-0.2,0-0.4,0h-0.1c-0.5,0-1.2-0.4-1.6-1.2C643.3,500,643.1,498.8,643.1,496.6z
			 M638,478.6h-6.3v11h6.1h0.3c3-0.1,5.4-2.5,5.4-5.5C643.5,481.1,641,478.6,638,478.6z"/>
		<path class="st0" d="M662,477.7c0-0.5,0.4-0.9,0.9-0.9c0.5,0,0.9,0.4,0.9,0.9v14.4c0,4.7,3.8,8.5,8.5,8.6c4.8,0,8.6-3.8,8.6-8.6
			v-14.4c0-0.5,0.4-0.9,0.9-0.9c0.5,0,0.9,0.4,0.9,0.9v14.4c0,5.7-4.6,10.3-10.4,10.3c-5.7,0-10.3-4.6-10.3-10.3V477.7z"/>
		<path class="st0" d="M700.9,477.7c0-0.5,0.4-0.9,0.9-0.9h0.1h13.1c0.5,0,0.9,0.4,0.9,0.9c0,0.5-0.4,0.9-0.9,0.9h-12.2v10.1h10.7
			c0.5,0,0.9,0.4,0.9,0.9c0,0.5-0.4,0.9-0.9,0.9h-10.7v10.1h12.2c0.5,0,0.9,0.4,0.9,0.9c0,0.5-0.4,0.9-0.9,0.9h-13.1h-0.1h-0.1
			c-0.4,0-0.8-0.4-0.8-0.9V477.7z"/>
	</g>
	<g>
		<g>
			<path class="st0" d="M816.7,128.4L816.7,128.4c0-5.5,4.5-10.2,10.1-10.2c5.7,0,10.1,4.6,10.1,10.1v0.1c0,5.5-4.5,10.1-10.1,10.1
				C821.1,138.5,816.7,133.9,816.7,128.4z M836.3,128.3L836.3,128.3c0-5.3-4-9.6-9.5-9.6c-5.4,0-9.5,4.3-9.5,9.6v0.1
				c0,5.3,4,9.5,9.5,9.5C832.1,137.9,836.3,133.6,836.3,128.3z M830.9,134.7c0.1,0,0.1,0,0.1-0.1c0.1,0,0.2-0.2,0.2-0.2
				c-0.1-0.1-0.2-0.2-0.3-0.2c-0.1,0-0.2,0-0.3-0.2c-0.1-0.3-0.2-0.8-0.2-2c0-1.4-0.9-2.3-1.7-2.8c-0.2-0.1-0.5-0.2-0.7-0.3
				c1.6-0.5,2.6-1.8,2.6-3.5c0-2-1.6-3.6-3.6-3.6h-3.8H823c-0.1,0-0.2,0.1-0.2,0.2v12.6c0,0.1,0.1,0.3,0.2,0.3
				c0.1,0,0.3-0.2,0.3-0.3v-5.5h3.5c0,0,0.2,0.1,0.5,0.1c0.4,0.1,1.1,0.3,1.6,0.9c0.5,0.4,0.9,1.1,0.9,2c0,1.2,0.2,1.8,0.4,2.2
				C830.4,134.6,830.6,134.7,830.9,134.7z M823.3,128.6v-6.2h3.6c1.7,0,3.2,1.3,3.2,3.1c0,1.7-1.4,3.1-3.2,3.1H823.3z"/>
		</g>
		<g>
			<path class="st0" d="M380.3,222.2h-48v-32.1c0-9.3-0.5-15.2-1.5-17.5c-1-2.3-3.3-3.5-6.8-3.5c-4,0-6.5,1.4-7.5,4.2
				c-1.1,2.8-1.6,8.9-1.6,18.3v85.8c0,9,0.5,14.8,1.6,17.6c1.1,2.7,3.5,4.1,7.2,4.1c3.6,0,5.9-1.4,7-4.1c1.1-2.7,1.7-9.2,1.7-19.3
				v-23.2h48v7.2c0,19.1-1.4,32.7-4.1,40.7c-2.7,8-8.7,15-17.9,21c-9.2,6-20.6,9-34.2,9c-14.1,0-25.7-2.5-34.8-7.6
				s-15.2-12.2-18.1-21.2s-4.5-22.6-4.5-40.7v-54c0-13.3,0.5-23.3,1.4-30c0.9-6.7,3.6-13.1,8.2-19.2c4.5-6.2,10.8-11,18.8-14.5
				c8-3.5,17.2-5.3,27.7-5.3c14.1,0,25.8,2.7,35,8.2c9.2,5.5,15.3,12.3,18.1,20.5c2.9,8.2,4.3,20.9,4.3,38.1V222.2z"/>
			<path class="st0" d="M420.9,141.7h34c22.7,0,38,0.9,46,2.6c8,1.8,14.6,6.2,19.6,13.4c5.1,7.2,7.6,18.7,7.6,34.4
				c0,14.4-1.8,24-5.4,29c-3.6,4.9-10.6,7.9-21.1,8.9c9.5,2.4,15.9,5.5,19.2,9.5c3.3,4,5.3,7.6,6.1,10.9s1.2,12.4,1.2,27.3v48.7
				h-44.6v-61.4c0-9.9-0.8-16-2.3-18.4c-1.6-2.4-5.6-3.5-12.3-3.5v83.3h-48V141.7z M468.9,173.3v41.1c5.4,0,9.2-0.7,11.4-2.2
				s3.3-6.3,3.3-14.4v-10.2c0-5.9-1-9.7-3.1-11.5C478.3,174.2,474.5,173.3,468.9,173.3z"/>
			<path class="st0" d="M679.3,141.7v123.5c0,14-0.5,23.8-1.4,29.5c-0.9,5.7-3.6,11.5-8.1,17.5c-4.5,6-10.4,10.5-17.7,13.6
				c-7.3,3.1-16,4.6-26,4.6c-11,0-20.8-1.8-29.2-5.5c-8.4-3.7-14.8-8.4-18.9-14.3c-4.2-5.9-6.7-12-7.4-18.5
				c-0.8-6.5-1.1-20.2-1.1-41V141.7h48v138.5c0,8.1,0.4,13.2,1.3,15.5c0.9,2.2,2.6,3.4,5.3,3.4c3,0,5-1.2,5.9-3.7
				c0.9-2.5,1.3-8.3,1.3-17.5V141.7H679.3z"/>
			<path class="st0" d="M818.7,141.7l-16.9,81.7l25.4,103h-44.5c-5.3-18.4-10.2-40.9-14.6-67.3c-1.2,11.7-2.9,24.1-5.1,37.2
				l-4.5,30.1h-46.8l17.5-103l-17.5-81.7h46.4c0.8,5.1,2.5,13.6,5,25.4c2,9,3.7,17.4,4.9,25l10.3-50.4H818.7z"/>
		</g>
		<g>
			<g>
				<path class="st1" d="M193.5,146.5H46.7c-14.3,0-25.9,11.6-25.9,25.9v127.7c0,14.3,11.6,25.9,25.9,25.9h146.9
					c14.3,0,25.9-11.6,25.9-25.9V172.4C219.4,158.1,207.8,146.5,193.5,146.5z"/>
			</g>
			<g>
				<g>
					<defs>
						<path id="SVGID_1_" d="M180,266.5c-0.9-1.4-2-2.8-3.2-3.9c-2.3-2.1-5-3.7-7.9-4.9c-2.6-1.1-5.2-1.9-8-2.6
							c-1.7-0.4-3.4-0.7-5.2-1c-1.7-0.3-3.4-0.5-5.2-0.8c-1-0.2-2-0.2-3.1-0.3c-1.3-0.2-2.6-0.3-3.8-0.4c-1.6-0.1-3.1-0.2-4.7-0.3
							h-0.1c0-0.3,0-0.6,0-0.9c0-4.9,0-9.7,0.1-14.6c0-0.9-0.1-1.7,0-2.6v-1.3l20.3-5.6l22.2-6c0,0,2.3-27.6,1.3-22.9
							c-0.9,4.8-5.2,11.9-7.8,14.9c-2.7,2.9-6.7,4.9-6.7,4.9l-1.2,0.2l-5.6-0.7c0,0-4.9-0.2-16.2-0.2c-1.4,0-3.4,0.1-5.8,0.1v-0.3
							c0.1-1.4,0.2-2.8,0.2-4.3c0.2-2.5,0.5-5.1,0.8-7.7c0.3-2.7,0.7-5.2,1.2-7.8c0.7-3.4,1.6-6.8,2.8-10.1c1-2.4,2.2-4.8,3.8-6.8
							c0.5-0.5,0.9-1.2,1.5-1.6c0.7-0.5,1.3-1,2.1-1.4c0.8-0.4,1.6-0.8,2.5-1c2-0.6,4.2-0.5,6.3-0.2c0.7,0.2,1.4,0.4,2.1,0.6
							c0.9,0.3,1.9,0.5,2.8,1c2.1,1,4.2,2.1,6.2,3.5c1.4,1.1,2.9,2.1,4.3,3.2c0.6,0.5,1.2,1,1.8,1.5c0.3-0.4,3.4-7,3.5-7.5
							c-0.2,0-0.2-0.1-0.4-0.2c-0.9-0.4-1.9-0.7-2.8-1.1c-2.3-0.9-4.7-1.8-7.2-2.4c-1.2-0.3-2.3-0.7-3.5-0.9
							c-2.3-0.4-4.7-0.6-7.1-0.6c-3.6,0.2-7,0.9-10,2.9c-1.4,0.9-2.8,1.9-3.9,3.1c-2.1,2.3-3.7,5.1-4.9,8c-1.1,2.5-1.9,5.2-2.5,7.9
							c-0.5,1.7-0.8,3.4-1.1,5.2s-0.5,3.4-0.8,5.2c-0.2,1-0.2,2-0.3,3.1c-0.1,1.3-0.2,2.5-0.4,3.8c-0.1,1.6-0.2,3.1-0.3,4.7v0.2
							c-5.3,0-12.1,0-19.3-0.2l-5.5-20.3l-6.1-22.2c0,0-27.6-2.2-22.9-1.3c4.7,0.9,11.9,5.2,14.8,7.9c2.9,2.7,4.9,6.7,4.9,6.7
							l0.2,1.1l-0.7,5.6c0,0-0.2,4.9-0.2,16.1c0,1.3,0.1,3.2,0.1,5.6c-13.6-1-26.9-3-34.5-6.7c-17.9-8.8,2.9-31.5,2.9-31.5l-7.4-3.6
							c0,0-5.2,12.6-5.2,22.7c0,10.1,9,14.6,11,16c2,1.3,9,3.4,9,3.4s2.7,0.6,5.6,1.3c1.9,0.4,13.4,1.5,18.6,2
							c0,5.1,0,11.5-0.2,18.5l-12.9,4l-10.8,3.4c-0.4,0.1-1.2,0.2-1.6,0.4l-0.9,0.2c-1.3,0.4-2.7,0.6-4.1,1
							c-3.8,1.1-7.8,2.1-11.7,3.2c-0.9,0.2-0.9,0.2-0.9,1.2c-0.1,2-0.2,4-0.3,6c-0.1,1.6-0.2,3.1-0.2,4.6c0,0.9-0.1,1.9-0.2,2.8
							c0,1.2-0.1,2.3-0.2,3.5c-0.1,1.1-0.2,2.2-0.2,3.3c-0.1,0.5,0,1.2,0,1.8c0.2-0.3,0.2-0.6,0.3-0.9c0.2-0.9,0.5-1.7,0.8-2.5
							c0.5-1.7,1.3-3.4,2.1-5c0.9-1.9,2.1-3.7,3.4-5.2c1.6-1.9,3.4-3.5,5.6-4.9c0.6-0.4,1.3-0.7,1.9-1.1c0.5-0.4,1.2-0.5,1.9-0.4
							c0.9,0.2,1.7,0.2,2.6,0.2l0.4,0.1c7.2,0.5,14.5,0.5,21.8,0.5h2.4c-1,13.5-3,26.7-6.7,34.3c-8.8,18-31.5-2.9-31.5-2.9l-3.6,7.4
							c0,0,12.6,5.2,22.7,5.2s14.6-9,16-11s3.4-9,3.4-9s0.6-2.7,1.3-5.6c0.5-1.9,1.5-13.2,2-18.5c0.3,0,0.6,0,0.9,0
							c4.9,0,9.7,0,14.6,0c0.9,0,1.7,0,2.5,0.1h0.5l3.9,13l3.4,10.8c0.1,0.3,0.3,1.2,0.4,1.6l0.2,0.9c0.4,1.4,0.6,2.7,1,4.1
							c1.1,3.9,2.1,7.8,3.2,11.7c0.2,0.9,0.2,0.9,1.2,0.9c2,0.2,4,0.2,6,0.3c1.6,0.1,3.1,0.2,4.6,0.2c0.9,0.1,1.9,0.1,2.8,0.2
							c1.2,0.1,2.3,0.2,3.6,0.2c1,0.1,2.1,0.2,3.2,0.2c0.5,0,1.2,0,1.8,0c-0.3-0.2-0.6-0.3-0.9-0.4c-0.9-0.2-1.7-0.5-2.5-0.7
							c-1.7-0.6-3.4-1.3-5-2.2c-1.9-0.9-3.7-2-5.2-3.4c-1.9-1.6-3.5-3.4-4.9-5.6c-0.4-0.6-0.7-1.3-1.1-1.9s-0.5-1.3-0.4-2
							c0.2-0.9,0.2-1.7,0.2-2.5l0.1-0.4c0.5-7.3,0.5-14.5,0.5-21.8v-2.8l0.2,0.1c1.4,0.1,2.8,0.2,4.2,0.2c2.6,0.2,5.2,0.5,7.8,0.8
							c2.6,0.2,5.2,0.6,7.8,1.2c3.4,0.7,6.8,1.6,10.1,2.8c2.4,0.9,4.7,2.2,6.7,3.8c0.5,0.5,1.2,0.9,1.6,1.5c0.5,0.6,1.1,1.3,1.5,2.1
							c0.4,0.8,0.7,1.6,1,2.5c0.5,1.9,0.5,3.8,0.2,5.8c-0.2,0.9-0.4,1.7-0.7,2.6c-0.3,0.9-0.5,2-0.9,2.8c-1.1,2.1-2.1,4.2-3.6,6.2
							c-1,1.4-2.1,2.9-3.2,4.3c-0.5,0.6-0.9,1.2-1.4,1.7c0.4,0.4,7,3.5,7.4,3.6c0.1-0.2,0.2-0.2,0.2-0.4c0.3-0.9,0.7-1.9,1-2.8
							c0.9-2.3,1.8-4.8,2.5-7.2c0.3-1.2,0.6-2.3,0.9-3.5c0.3-2.3,0.6-4.7,0.5-7.1C182.7,272.9,181.9,269.6,180,266.5L180,266.5z
							 M135.8,255.4L135.8,255.4v2.7c0,0-0.2,2.3-0.3,3.4c0,1.6-0.1,3.2-0.2,4.8c0,1.2,0,2.3-0.1,3.5c0,0.9,0,1.8-0.1,2.7l-1.3,7.2
							l-6.7-24.5l-0.9-3.4l-4-14.4l0.8-0.2l12.8-3.4v1.6c-0.2,0.2-0.2,0.5-0.2,0.8s0,0.7,0,0.7l0,0c0,0-0.1,7.4-0.1,11.1
							c0,1.3,0,2.7,0,4.1L135.8,255.4z M135.8,228.1L135.8,228.1l-13,4l-1.8,0.5l-3.3-11.9l7.8,0.2H136h3.3h5.3c0,0,10.1,0.2,11,0.2
							c0.9,0,1.6,0.2,1.6,0.2l-0.9,0.4l-7.4,2.3l-9.8,3.1L135.8,228.1z M112,220.5L112,220.5l4,12.9l0.2,0.6l-10.9,3.4l-0.7,0.2
							l0.2-7v-10.3v-3.7v-5c0,0,0.2-10.2,0.2-11c0-0.9,0.2-1.6,0.2-1.6l0.4,0.9l2.3,7.4l3,9.7L112,220.5z M100.6,251.7L100.6,251.7
							h-2.4c0,0-2.3-0.1-3.4-0.1c-1.6,0-3.2-0.1-4.8-0.2c-1.3,0-2.4,0-3.6-0.1c-0.9,0-1.7-0.1-2.6-0.1l-7.2-1.3l24.5-6.7l3.4-0.9
							l13.1-3.6l3.8,12.2l0.3,0.7h-0.7c-0.2,0.1-0.5,0.1-0.8,0.1c-0.3,0-0.8,0-0.8,0l0,0c0,0-7.4-0.1-11-0.1c-1.3,0-2.7,0-4,0H100.6
							z"/>
					</defs>
					<use xlink:href="#SVGID_1_"  style="overflow:visible;fill:#FFFFFF;"/>
					<clipPath id="SVGID_2_">
						<use xlink:href="#SVGID_1_"  style="overflow:visible;"/>
					</clipPath>
					<rect x="49" y="172.6" class="st2" width="8.5" height="134.7"/>
					<rect x="57.2" y="172.6" class="st2" width="0.7" height="134.7"/>
					<rect x="57.7" y="172.6" class="st2" width="0.7" height="134.7"/>
					<rect x="58.1" y="172.6" class="st2" width="0.8" height="134.7"/>
					<rect x="58.7" y="172.6" class="st2" width="0.7" height="134.7"/>
					<rect x="59.2" y="172.6" class="st2" width="0.7" height="134.7"/>
					<rect x="59.6" y="172.6" class="st2" width="0.7" height="134.7"/>
					<rect x="60.1" y="172.6" class="st2" width="0.8" height="134.7"/>
					<rect x="60.6" y="172.6" class="st2" width="0.7" height="134.7"/>
					<rect x="61.1" y="172.6" class="st2" width="0.7" height="134.7"/>
					<rect x="61.6" y="172.6" class="st2" width="0.8" height="134.7"/>
					<rect x="62" y="172.6" class="st2" width="0.8" height="134.7"/>
					<rect x="62.6" y="172.6" class="st2" width="0.7" height="134.7"/>
					<rect x="63.1" y="172.6" class="st2" width="0.7" height="134.7"/>
					<rect x="63.5" y="172.6" class="st2" width="0.8" height="134.7"/>
					<rect x="64.1" y="172.6" class="st2" width="0.7" height="134.7"/>
					<rect x="64.6" y="172.6" class="st2" width="0.7" height="134.7"/>
					<rect x="65" y="172.6" class="st2" width="0.8" height="134.7"/>
					<rect x="65.5" y="172.6" class="st2" width="0.8" height="134.7"/>
					<rect x="66" y="172.6" class="st2" width="0.7" height="134.7"/>
					<rect x="66.5" y="172.6" class="st2" width="0.7" height="134.7"/>
					<rect x="67" y="172.6" class="st2" width="0.8" height="134.7"/>
					<rect x="67.5" y="172.6" class="st2" width="0.7" height="134.7"/>
					<rect x="68" y="172.6" class="st2" width="0.7" height="134.7"/>
					<rect x="68.5" y="172.6" class="st2" width="0.8" height="134.7"/>
					<rect x="68.9" y="172.6" class="st2" width="0.8" height="134.7"/>
					<rect x="69.5" y="172.6" class="st2" width="0.7" height="134.7"/>
					<rect x="70" y="172.6" class="st2" width="0.7" height="134.7"/>
					<rect x="70.4" y="172.6" class="st2" width="0.8" height="134.7"/>
					<rect x="70.9" y="172.6" class="st2" width="0.8" height="134.7"/>
					<rect x="71.4" y="172.6" class="st2" width="0.7" height="134.7"/>
					<rect x="71.9" y="172.6" class="st2" width="0.7" height="134.7"/>
					<rect x="72.4" y="172.6" class="st2" width="0.8" height="134.7"/>
					<rect x="72.9" y="172.6" class="st2" width="0.7" height="134.7"/>
					<rect x="73.4" y="172.6" class="st2" width="0.7" height="134.7"/>
					<rect x="73.9" y="172.6" class="st2" width="0.8" height="134.7"/>
					<rect x="74.3" y="172.6" class="st2" width="0.8" height="134.7"/>
					<rect x="74.9" y="172.6" class="st2" width="0.7" height="134.7"/>
					<rect x="75.4" y="172.6" class="st2" width="0.7" height="134.7"/>
					<rect x="75.8" y="172.6" class="st2" width="0.8" height="134.7"/>
					<rect x="76.4" y="172.6" class="st2" width="0.7" height="134.7"/>
					<rect x="76.9" y="172.6" class="st2" width="0.7" height="134.7"/>
					<rect x="77.3" y="172.6" class="st2" width="0.8" height="134.7"/>
					<rect x="77.8" y="172.6" class="st2" width="0.8" height="134.7"/>
					<rect x="78.3" y="172.6" class="st2" width="0.7" height="134.7"/>
					<rect x="78.8" y="172.6" class="st2" width="0.7" height="134.7"/>
					<rect x="79.3" y="172.6" class="st2" width="0.8" height="134.7"/>
					<rect x="79.7" y="172.6" class="st2" width="0.8" height="134.7"/>
					<rect x="80.3" y="172.6" class="st2" width="0.7" height="134.7"/>
					<rect x="80.8" y="172.6" class="st2" width="0.7" height="134.7"/>
					<rect x="81.2" y="172.6" class="st2" width="0.8" height="134.7"/>
					<rect x="81.8" y="172.6" class="st2" width="0.7" height="134.7"/>
					<rect x="82.3" y="172.6" class="st2" width="0.7" height="134.7"/>
					<rect x="82.7" y="172.6" class="st2" width="0.8" height="134.7"/>
					<rect x="83.2" y="172.6" class="st2" width="0.8" height="134.7"/>
					<rect x="83.7" y="172.6" class="st2" width="0.7" height="134.7"/>
					<rect x="84.2" y="172.6" class="st2" width="0.7" height="134.7"/>
					<rect x="84.7" y="172.6" class="st2" width="0.8" height="134.7"/>
					<rect x="85.2" y="172.6" class="st2" width="0.7" height="134.7"/>
					<rect x="85.7" y="172.6" class="st2" width="0.7" height="134.7"/>
					<rect x="86.2" y="172.6" class="st2" width="0.8" height="134.7"/>
					<rect x="86.6" y="172.6" class="st2" width="0.8" height="134.7"/>
					<rect x="87.2" y="172.6" class="st2" width="0.7" height="134.7"/>
					<rect x="87.7" y="172.6" class="st2" width="0.7" height="134.7"/>
					<rect x="88.1" y="172.6" class="st2" width="0.8" height="134.7"/>
					<rect x="88.7" y="172.6" class="st2" width="0.7" height="134.7"/>
					<rect x="89.1" y="172.6" class="st2" width="0.7" height="134.7"/>
					<rect x="89.6" y="172.6" class="st2" width="0.7" height="134.7"/>
					<rect x="90.1" y="172.6" class="st2" width="0.8" height="134.7"/>
					<rect x="90.6" y="172.6" class="st2" width="0.7" height="134.7"/>
					<rect x="91.1" y="172.6" class="st2" width="0.7" height="134.7"/>
					<rect x="91.6" y="172.6" class="st2" width="0.8" height="134.7"/>
					<rect x="92" y="172.6" class="st2" width="0.8" height="134.7"/>
					<rect x="92.6" y="172.6" class="st2" width="0.7" height="134.7"/>
					<rect x="93.1" y="172.6" class="st2" width="0.7" height="134.7"/>
					<rect x="93.5" y="172.6" class="st2" width="0.8" height="134.7"/>
					<rect x="94.1" y="172.6" class="st2" width="0.7" height="134.7"/>
					<rect x="94.5" y="172.6" class="st2" width="0.7" height="134.7"/>
					<rect x="95" y="172.6" class="st2" width="0.8" height="134.7"/>
					<rect x="95.5" y="172.6" class="st2" width="0.8" height="134.7"/>
					<rect x="96" y="172.6" class="st2" width="0.7" height="134.7"/>
					<rect x="96.5" y="172.6" class="st2" width="0.7" height="134.7"/>
					<rect x="97" y="172.6" class="st2" width="0.8" height="134.7"/>
					<rect x="97.5" y="172.6" class="st2" width="0.7" height="134.7"/>
					<rect x="98" y="172.6" class="st2" width="0.7" height="134.7"/>
					<rect x="98.5" y="172.6" class="st2" width="0.7" height="134.7"/>
					<rect x="98.9" y="172.6" class="st2" width="0.8" height="134.7"/>
					<rect x="99.5" y="172.6" class="st2" width="0.7" height="134.7"/>
					<rect x="100" y="172.6" class="st2" width="0.7" height="134.7"/>
					<rect x="100.4" y="172.6" class="st2" width="0.8" height="134.7"/>
					<rect x="100.9" y="172.6" class="st2" width="0.8" height="134.7"/>
					<rect x="101.4" y="172.6" class="st2" width="0.7" height="134.7"/>
					<rect x="101.9" y="172.6" class="st2" width="0.7" height="134.7"/>
					<rect x="102.4" y="172.6" class="st2" width="0.8" height="134.7"/>
					<rect x="102.9" y="172.6" class="st2" width="0.7" height="134.7"/>
					<rect x="103.4" y="172.6" class="st2" width="0.7" height="134.7"/>
					<rect x="103.9" y="172.6" class="st2" width="0.8" height="134.7"/>
					<rect x="104.3" y="172.6" class="st2" width="0.8" height="134.7"/>
					<rect x="104.9" y="172.6" class="st2" width="0.7" height="134.7"/>
					<rect x="105.4" y="172.6" class="st2" width="0.7" height="134.7"/>
					<rect x="105.8" y="172.6" class="st2" width="0.8" height="134.7"/>
					<rect x="106.4" y="172.6" class="st2" width="0.7" height="134.7"/>
					<rect x="106.8" y="172.6" class="st2" width="0.7" height="134.7"/>
					<rect x="107.3" y="172.6" class="st2" width="0.8" height="134.7"/>
					<rect x="107.8" y="172.6" class="st2" width="0.8" height="134.7"/>
					<rect x="108.3" y="172.6" class="st2" width="0.7" height="134.7"/>
					<rect x="108.8" y="172.6" class="st2" width="0.7" height="134.7"/>
					<rect x="109.3" y="172.6" class="st2" width="0.8" height="134.7"/>
					<rect x="109.7" y="172.6" class="st2" width="0.8" height="134.7"/>
					<rect x="110.3" y="172.6" class="st2" width="0.7" height="134.7"/>
					<rect x="110.8" y="172.6" class="st2" width="0.7" height="134.7"/>
					<rect x="111.2" y="172.6" class="st2" width="0.8" height="134.7"/>
					<rect x="111.8" y="172.6" class="st2" width="0.7" height="134.7"/>
					<rect x="112.2" y="172.6" class="st2" width="0.7" height="134.7"/>
					<rect x="112.7" y="172.6" class="st2" width="0.8" height="134.7"/>
					<rect x="113.2" y="172.6" class="st2" width="0.8" height="134.7"/>
					<rect x="113.7" y="172.6" class="st2" width="0.7" height="134.7"/>
					<rect x="114.2" y="172.6" class="st2" width="0.7" height="134.7"/>
					<rect x="114.7" y="172.6" class="st2" width="0.8" height="134.7"/>
					<rect x="115.2" y="172.6" class="st2" width="0.7" height="134.7"/>
					<rect x="115.7" y="172.6" class="st2" width="0.7" height="134.7"/>
					<rect x="116.2" y="172.6" class="st2" width="0.8" height="134.7"/>
					<rect x="116.6" y="172.6" class="st2" width="0.8" height="134.7"/>
					<rect x="117.2" y="172.6" class="st2" width="0.7" height="134.7"/>
					<rect x="117.6" y="172.6" class="st2" width="0.7" height="134.7"/>
					<rect x="118.1" y="172.6" class="st2" width="0.8" height="134.7"/>
					<rect x="118.6" y="172.6" class="st2" width="0.8" height="134.7"/>
					<rect x="119.1" y="172.6" class="st2" width="0.7" height="134.7"/>
					<rect x="119.6" y="172.6" class="st2" width="0.7" height="134.7"/>
					<rect x="120.1" y="172.6" class="st2" width="0.8" height="134.7"/>
					<rect x="120.6" y="172.6" class="st2" width="0.7" height="134.7"/>
					<rect x="121.1" y="172.6" class="st2" width="0.7" height="134.7"/>
					<rect x="121.6" y="172.6" class="st2" width="0.8" height="134.7"/>
					<rect x="122" y="172.6" class="st2" width="0.8" height="134.7"/>
					<rect x="122.6" y="172.6" class="st2" width="0.7" height="134.7"/>
					<rect x="123.1" y="172.6" class="st2" width="0.7" height="134.7"/>
					<rect x="123.5" y="172.6" class="st2" width="0.8" height="134.7"/>
					<rect x="124.1" y="172.6" class="st2" width="0.7" height="134.7"/>
					<rect x="124.5" y="172.6" class="st2" width="0.7" height="134.7"/>
					<rect x="125" y="172.6" class="st2" width="0.8" height="134.7"/>
					<rect x="125.5" y="172.6" class="st2" width="0.8" height="134.7"/>
					<rect x="126" y="172.6" class="st2" width="0.7" height="134.7"/>
					<rect x="126.5" y="172.6" class="st2" width="0.7" height="134.7"/>
					<rect x="127" y="172.6" class="st2" width="0.8" height="134.7"/>
					<rect x="127.5" y="172.6" class="st2" width="0.7" height="134.7"/>
					<rect x="128" y="172.6" class="st2" width="0.7" height="134.7"/>
					<rect x="128.5" y="172.6" class="st2" width="0.7" height="134.7"/>
					<rect x="128.9" y="172.6" class="st2" width="0.8" height="134.7"/>
					<rect x="129.5" y="172.6" class="st2" width="0.7" height="134.7"/>
					<rect x="129.9" y="172.6" class="st2" width="0.7" height="134.7"/>
					<rect x="130.4" y="172.6" class="st2" width="0.8" height="134.7"/>
					<rect x="130.9" y="172.6" class="st2" width="0.8" height="134.7"/>
					<rect x="131.4" y="172.6" class="st2" width="0.7" height="134.7"/>
					<rect x="131.9" y="172.6" class="st2" width="0.7" height="134.7"/>
					<rect x="132.4" y="172.6" class="st2" width="0.8" height="134.7"/>
					<rect x="132.9" y="172.6" class="st2" width="0.7" height="134.7"/>
					<rect x="133.4" y="172.6" class="st2" width="0.7" height="134.7"/>
					<rect x="133.9" y="172.6" class="st2" width="0.8" height="134.7"/>
					<rect x="134.3" y="172.6" class="st2" width="0.8" height="134.7"/>
					<rect x="134.9" y="172.6" class="st2" width="0.7" height="134.7"/>
					<rect x="135.3" y="172.6" class="st2" width="0.7" height="134.7"/>
					<rect x="135.8" y="172.6" class="st2" width="0.8" height="134.7"/>
					<rect x="136.4" y="172.6" class="st2" width="0.7" height="134.7"/>
					<rect x="136.8" y="172.6" class="st2" width="0.7" height="134.7"/>
					<rect x="137.3" y="172.6" class="st2" width="0.7" height="134.7"/>
					<rect x="137.8" y="172.6" class="st2" width="0.8" height="134.7"/>
					<rect x="138.3" y="172.6" class="st2" width="0.7" height="134.7"/>
					<rect x="138.8" y="172.6" class="st2" width="0.7" height="134.7"/>
					<rect x="139.3" y="172.6" class="st2" width="0.8" height="134.7"/>
					<rect x="139.7" y="172.6" class="st2" width="0.8" height="134.7"/>
					<rect x="140.3" y="172.6" class="st2" width="0.7" height="134.7"/>
					<rect x="140.7" y="172.6" class="st2" width="0.7" height="134.7"/>
					<rect x="141.2" y="172.6" class="st2" width="0.8" height="134.7"/>
					<rect x="141.8" y="172.6" class="st2" width="0.7" height="134.7"/>
					<rect x="142.2" y="172.6" class="st2" width="0.7" height="134.7"/>
					<rect x="142.7" y="172.6" class="st2" width="0.8" height="134.7"/>
					<rect x="143.2" y="172.6" class="st2" width="0.8" height="134.7"/>
					<rect x="143.7" y="172.6" class="st2" width="0.7" height="134.7"/>
					<rect x="144.2" y="172.6" class="st2" width="0.7" height="134.7"/>
					<rect x="144.7" y="172.6" class="st2" width="0.8" height="134.7"/>
					<rect x="145.2" y="172.6" class="st2" width="0.7" height="134.7"/>
					<rect x="145.7" y="172.6" class="st2" width="0.7" height="134.7"/>
					<rect x="146.2" y="172.6" class="st2" width="0.8" height="134.7"/>
					<rect x="146.6" y="172.6" class="st2" width="0.8" height="134.7"/>
					<rect x="147.2" y="172.6" class="st2" width="0.7" height="134.7"/>
					<rect x="147.6" y="172.6" class="st2" width="0.7" height="134.7"/>
					<rect x="148.1" y="172.6" class="st2" width="0.8" height="134.7"/>
					<rect x="148.6" y="172.6" class="st2" width="0.8" height="134.7"/>
					<rect x="149.1" y="172.6" class="st2" width="0.7" height="134.7"/>
					<rect x="149.6" y="172.6" class="st2" width="0.7" height="134.7"/>
					<rect x="150.1" y="172.6" class="st2" width="0.8" height="134.7"/>
					<rect x="150.6" y="172.6" class="st2" width="0.7" height="134.7"/>
					<rect x="151.1" y="172.6" class="st2" width="0.7" height="134.7"/>
					<rect x="151.6" y="172.6" class="st2" width="0.8" height="134.7"/>
					<rect x="152" y="172.6" class="st2" width="0.8" height="134.7"/>
					<rect x="152.6" y="172.6" class="st2" width="0.7" height="134.7"/>
					<rect x="153" y="172.6" class="st2" width="0.7" height="134.7"/>
					<rect x="153.5" y="172.6" class="st2" width="0.8" height="134.7"/>
					<rect x="154.1" y="172.6" class="st2" width="0.7" height="134.7"/>
					<rect x="154.5" y="172.6" class="st2" width="0.7" height="134.7"/>
					<rect x="155" y="172.6" class="st2" width="0.8" height="134.7"/>
					<rect x="155.5" y="172.6" class="st2" width="0.8" height="134.7"/>
					<rect x="156" y="172.6" class="st2" width="0.7" height="134.7"/>
					<rect x="156.5" y="172.6" class="st2" width="0.7" height="134.7"/>
					<rect x="157" y="172.6" class="st2" width="0.8" height="134.7"/>
					<rect x="157.5" y="172.6" class="st2" width="0.7" height="134.7"/>
					<rect x="158" y="172.6" class="st2" width="0.7" height="134.7"/>
					<rect x="158.4" y="172.6" class="st2" width="0.7" height="134.7"/>
					<rect x="158.9" y="172.6" class="st2" width="0.8" height="134.7"/>
					<rect x="159.5" y="172.6" class="st2" width="0.7" height="134.7"/>
					<rect x="159.9" y="172.6" class="st2" width="0.7" height="134.7"/>
					<rect x="160.4" y="172.6" class="st2" width="0.8" height="134.7"/>
					<rect x="160.9" y="172.6" class="st2" width="0.8" height="134.7"/>
					<rect x="161.4" y="172.6" class="st2" width="0.7" height="134.7"/>
					<rect x="161.9" y="172.6" class="st2" width="0.7" height="134.7"/>
					<rect x="162.4" y="172.6" class="st2" width="0.8" height="134.7"/>
					<rect x="162.9" y="172.6" class="st2" width="0.7" height="134.7"/>
					<rect x="163.4" y="172.6" class="st2" width="0.7" height="134.7"/>
					<rect x="163.8" y="172.6" class="st2" width="0.8" height="134.7"/>
					<rect x="164.3" y="172.6" class="st2" width="0.8" height="134.7"/>
					<rect x="164.9" y="172.6" class="st2" width="0.7" height="134.7"/>
					<rect x="165.3" y="172.6" class="st2" width="0.7" height="134.7"/>
					<rect x="165.8" y="172.6" class="st2" width="0.8" height="134.7"/>
					<rect x="166.4" y="172.6" class="st2" width="0.7" height="134.7"/>
					<rect x="166.8" y="172.6" class="st2" width="0.7" height="134.7"/>
					<rect x="167.3" y="172.6" class="st2" width="0.7" height="134.7"/>
					<rect x="167.8" y="172.6" class="st2" width="0.8" height="134.7"/>
					<rect x="168.3" y="172.6" class="st2" width="0.7" height="134.7"/>
					<rect x="168.8" y="172.6" class="st2" width="0.7" height="134.7"/>
					<rect x="169.3" y="172.6" class="st2" width="0.8" height="134.7"/>
					<rect x="169.7" y="172.6" class="st2" width="0.8" height="134.7"/>
					<rect x="170.3" y="172.6" class="st2" width="0.7" height="134.7"/>
					<rect x="170.7" y="172.6" class="st2" width="0.7" height="134.7"/>
					<rect x="171.2" y="172.6" class="st2" width="0.8" height="134.7"/>
					<rect x="171.8" y="172.6" class="st2" width="0.7" height="134.7"/>
					<rect x="172.2" y="172.6" class="st2" width="0.7" height="134.7"/>
					<rect x="172.7" y="172.6" class="st2" width="0.8" height="134.7"/>
					<rect x="173.2" y="172.6" class="st2" width="0.8" height="134.7"/>
					<rect x="173.7" y="172.6" class="st2" width="0.7" height="134.7"/>
					<rect x="174.2" y="172.6" class="st2" width="0.7" height="134.7"/>
					<rect x="174.7" y="172.6" class="st2" width="0.8" height="134.7"/>
					<rect x="175.2" y="172.6" class="st2" width="0.7" height="134.7"/>
					<rect x="175.7" y="172.6" class="st2" width="0.7" height="134.7"/>
					<rect x="176.1" y="172.6" class="st2" width="0.8" height="134.7"/>
					<rect x="176.6" y="172.6" class="st2" width="0.8" height="134.7"/>
					<rect x="177.2" y="172.6" class="st2" width="0.7" height="134.7"/>
					<rect x="177.6" y="172.6" class="st2" width="0.7" height="134.7"/>
					<rect x="178.1" y="172.6" class="st2" width="0.8" height="134.7"/>
					<rect x="178.6" y="172.6" class="st2" width="0.8" height="134.7"/>
					<rect x="179.1" y="172.6" class="st2" width="0.7" height="134.7"/>
					<rect x="179.6" y="172.6" class="st2" width="0.7" height="134.7"/>
					<rect x="180.1" y="172.6" class="st2" width="0.8" height="134.7"/>
					<rect x="180.6" y="172.6" class="st2" width="0.7" height="134.7"/>
					<rect x="181.1" y="172.6" class="st2" width="0.7" height="134.7"/>
					<rect x="181.5" y="172.6" class="st2" width="0.8" height="134.7"/>
					<rect x="182" y="172.6" class="st2" width="1.7" height="134.7"/>
				</g>
			</g>
		</g>
		<g>
			<path class="st0" d="M52.6,369.5c16,0,28.5,13.6,28.6,30.3c-0.1,16.7-12.6,30.3-28.6,30.3c-16.1,0-28.8-13.6-28.9-30.3
				C23.8,383.1,36.4,369.5,52.6,369.5z M52.6,426c13.1,0,24.2-11.5,24.3-26.1c-0.1-14.8-11.2-26-24.3-26c-13.6,0-24.7,11.3-24.7,26
				C27.9,414.4,39,426,52.6,426z"/>
			<path class="st0" d="M101.1,379.2v48.9c0,1.1-0.9,2-2,2c-1.1,0-2-0.9-2-2v-54.8c-0.3-0.9,0-1.7,0.8-2.3c0.9-0.6,2.3-0.4,2.9,0.5
				l36.2,50.2V373c0-1.1,0.9-2,2-2c1.2,0,2.1,0.9,2.1,2v55.1c0,1.1-0.9,2-2.1,2c-0.7,0-1.2-0.3-1.6-0.8c-0.1-0.1-0.3-0.2-0.3-0.3
				L101.1,379.2z"/>
			<path class="st0" d="M157,372.4c0-1.1,0.9-2,2-2h0.2h30.6c1.2,0,2,0.9,2,2c0,1.2-0.9,2.1-2,2.1h-28.6v23.6h25c1.1,0,2,0.9,2,2.1
				c0,1.1-0.9,2-2,2h-25V426h28.6c1.2,0,2,0.9,2,2.1c0,1.1-0.9,2-2,2h-30.5H159h-0.2c-1-0.1-1.9-0.9-1.9-2V372.4z"/>
			<path class="st0" d="M279.3,378.9l-19.1,26.6c-0.4,0.7-1.1,0.9-1.7,0.9h-0.2c-0.8,0-1.4-0.3-1.8-0.9L237.4,379v49.1
				c0,1.1-0.9,2-2,2c-1.2,0-2.1-0.9-2.1-2v-55.3c0-0.7,0.3-1.3,0.9-1.6c0-0.1,0.1-0.1,0.2-0.2c0.9-0.6,2.2-0.4,2.9,0.5l21.3,29.5
				l21.2-29.5c0.6-0.9,2-1.1,2.9-0.5c0.3,0.3,0.4,0.4,0.6,0.7c0.2,0.3,0.3,0.8,0.3,1.1v55.3c0,1.1-0.9,2-2,2c-1.2,0-2-0.9-2-2V378.9
				z"/>
			<path class="st0" d="M305.9,372.4c0-1.1,0.9-2,2-2c1.2,0,2.1,0.9,2.1,2v55.7c0,1.1-0.9,2-2.1,2c-1.1,0-2-0.9-2-2V372.4z"/>
			<path class="st0" d="M335.7,379.2v48.9c0,1.1-0.9,2-2,2s-2-0.9-2-2v-54.8c-0.3-0.9,0-1.7,0.8-2.3c0.9-0.6,2.3-0.4,2.9,0.5
				l36.2,50.2V373c0-1.1,0.9-2,2-2c1.2,0,2.1,0.9,2.1,2v55.1c0,1.1-0.9,2-2.1,2c-0.7,0-1.2-0.3-1.6-0.8c-0.1-0.1-0.3-0.2-0.3-0.3
				L335.7,379.2z"/>
			<path class="st0" d="M393,372.4c0-1.1,0.9-2,2-2c1.2,0,2.1,0.9,2.1,2V406c0,11,9,19.9,19.9,20c11.1-0.1,20.1-9,20.1-20v-33.6
				c0-1.1,0.9-2,2-2c1.2,0,2.1,0.9,2.1,2V406c0,13.3-10.8,24.2-24.2,24.2c-13.2,0-24.1-10.8-24.1-24.2V372.4z"/>
			<path class="st0" d="M475.3,374.6h-18c-1.1,0-2-0.9-2-2.1c0-1.1,0.9-2,2-2h40.1c1.1,0,2,0.9,2,2c0,1.2-0.9,2.1-2,2.1h-18v53.5
				c0,1.1-0.9,2-2,2c-1.1,0-2-0.9-2-2V374.6z"/>
			<path class="st0" d="M515.2,372.4c0-1.1,0.9-2,2-2h0.2h30.6c1.2,0,2,0.9,2,2c0,1.2-0.9,2.1-2,2.1h-28.6v23.6h25
				c1.1,0,2,0.9,2,2.1c0,1.1-0.9,2-2,2h-25V426h28.6c1.2,0,2,0.9,2,2.1c0,1.1-0.9,2-2,2h-30.5h-0.3H517c-1-0.1-1.9-0.9-1.9-2V372.4z
				"/>
			<path class="st0" d="M591.9,371.9l21.3,50.8l15.2-35.9c0.4-0.8,1.2-1.3,2-1.3c0.9,0,1.7,0.5,2.1,1.3l15.1,35.9l21.3-50.8
				c0.5-1,1.6-1.5,2.8-1c1,0.4,1.5,1.7,1,2.7l-23.2,55.2c-0.3,0.8-1.1,1.3-1.7,1.4h-0.2h-0.3c-0.3,0-0.7-0.1-1-0.3
				c-0.1-0.1-0.3-0.2-0.3-0.3c-0.1-0.1-0.3-0.3-0.3-0.5c0-0.1,0-0.2-0.1-0.3l-15.2-36.1l-15.3,36.1c0,0.2-0.1,0.3-0.2,0.4
				c-0.1,0.3-0.3,0.4-0.4,0.6c-0.1,0-0.2,0.1-0.2,0.1c-0.3,0.3-0.8,0.3-1.2,0.3c-0.5,0-0.9-0.2-1.3-0.4l-0.2-0.2l-0.1-0.1
				c-0.3-0.3-0.4-0.6-0.5-1l-23.1-54.8c-0.5-1,0-2.3,1-2.7C590.2,370.4,591.5,370.9,591.9,371.9z"/>
			<path class="st0" d="M707.9,414.7h-27.2l-5.3,14.1c-0.3,0.9-1.1,1.4-2,1.4c-0.2,0-0.5-0.1-0.8-0.1c-1-0.4-1.6-1.7-1.2-2.7
				l20.7-55.4c0.3-0.8,1.2-1.3,2-1.3c0.9,0,1.8,0.5,2,1.3l20.7,55.4c0.4,1-0.1,2.3-1.1,2.7c-0.3,0-0.5,0.1-0.8,0.1
				c-0.8,0-1.6-0.5-2-1.4L707.9,414.7z M682.2,410.5h24.2l-12-32.1L682.2,410.5z"/>
			<path class="st0" d="M726.2,419c0.7-0.9,1.9-0.9,2.6-0.3c4.4,3.6,11.9,7.8,19.6,7.7c5.2,0,9.9-1.5,13.1-3.9
				c3.3-2.4,5.1-5.5,5.1-8.9c0-3.4-1.6-6-4.9-8.2c-3.2-2.1-8-3.8-13.8-4.9h-0.2c-5.5-1-10.4-2.6-14.1-5c-3.7-2.4-6.1-6-6.1-10.4
				c0-4.5,2.5-8.5,6.2-11.2c3.8-2.7,8.8-4.4,14.4-4.4c7.9,0,13.7,3.8,18.4,6.9c0.9,0.6,1.1,1.7,0.5,2.6c-0.5,0.9-1.7,1.1-2.6,0.5
				c-4.7-3.1-9.8-6.3-16.4-6.3c-4.9,0-9.2,1.5-12.2,3.6c-3,2.2-4.7,5.1-4.7,8.2c0.1,3,1.5,5.2,4.4,7.3s7.4,3.5,12.8,4.5h0.2
				c6,1.1,11.3,2.8,15.2,5.5c3.9,2.6,6.6,6.5,6.6,11.3c0,4.8-2.7,9-6.7,12c-4,2.9-9.4,4.7-15.4,4.7c-9.1-0.1-17.1-4.7-22-8.6
				C725.7,420.9,725.6,419.7,726.2,419z"/>
			<path class="st0" d="M820.8,402.3h-30.7v25.8c0,1.1-0.9,2-2.1,2c-1.1,0-2-0.9-2-2v-55.7c0-1.1,0.9-2,2-2c1.2,0,2.1,0.9,2.1,2
				v25.8h30.7v-25.8c0-1.1,0.9-2,2-2c1.2,0,2.1,0.9,2.1,2v55.7c0,1.1-0.9,2-2.1,2c-1.1,0-2-0.9-2-2V402.3z"/>
		</g>
		<g>
			<path class="st0" d="M48.2,122c-2.3-1.2-3.9-2.9-4.8-5c-0.1-0.2-0.2-0.5-0.2-0.7c0-0.4,0.2-0.8,0.5-1.1c0.3-0.3,0.8-0.4,1.3-0.4
				c0.4,0,0.7,0.1,1,0.3s0.6,0.5,0.7,0.9c0.7,1.4,1.9,2.5,3.5,3.3c1.6,0.8,3.5,1.3,5.7,1.3c2.5,0,4.5-0.6,6.1-1.8
				c1.5-1.2,2.3-2.9,2.3-5.1c0-1.9-0.7-3.6-2.1-4.9c-1.4-1.3-3.6-2.2-6.4-2.5c-3.6-0.4-6.3-1.5-8.4-3.3c-2-1.8-3.1-4-3.1-6.6
				c0-1.8,0.5-3.5,1.5-4.8c1-1.4,2.4-2.5,4.1-3.2c1.8-0.8,3.8-1.1,6-1.1c2.4,0,4.5,0.5,6.4,1.6c1.8,1.1,3.3,2.5,4.3,4.2
				c0.2,0.3,0.3,0.7,0.3,1.1c0,0.6-0.3,1-0.8,1.4c-0.2,0.1-0.5,0.2-0.8,0.2c-0.3,0-0.7-0.1-0.9-0.3c-0.3-0.2-0.5-0.4-0.7-0.7
				c-1.7-2.7-4.3-4.1-7.8-4.1c-2.5,0-4.4,0.5-5.9,1.6c-1.4,1-2.2,2.5-2.2,4.5c0,3.6,2.9,5.8,8.7,6.5c3.8,0.6,6.6,1.7,8.5,3.5
				c1.9,1.8,2.8,4.1,2.8,7c0,2.1-0.5,4-1.6,5.6c-1,1.6-2.5,2.8-4.3,3.6c-1.8,0.8-3.8,1.2-6.1,1.2C53,123.8,50.5,123.2,48.2,122z"/>
			<path class="st0" d="M126.4,122.8c-0.4-0.4-0.5-0.8-0.5-1.3V89.3c0-0.5,0.2-0.9,0.5-1.3c0.4-0.3,0.8-0.5,1.3-0.5
				c0.5,0,0.9,0.2,1.3,0.5c0.3,0.3,0.5,0.8,0.5,1.3v32.3c0,0.5-0.2,0.9-0.5,1.3c-0.3,0.4-0.8,0.5-1.3,0.5
				C127.2,123.4,126.8,123.2,126.4,122.8z"/>
			<path class="st0" d="M189.7,122.9c-0.3-0.3-0.5-0.8-0.5-1.3V89.3c0-0.5,0.2-0.9,0.5-1.3c0.3-0.3,0.8-0.5,1.3-0.5
				c0.6,0,1,0.2,1.4,0.6l22,28.9V89.3c0-0.5,0.2-0.9,0.5-1.3c0.4-0.3,0.8-0.5,1.3-0.5c0.5,0,0.9,0.2,1.3,0.5
				c0.3,0.3,0.5,0.8,0.5,1.3v32.3c0,0.5-0.2,0.9-0.5,1.3c-0.3,0.4-0.8,0.5-1.3,0.5c-0.6,0-1.1-0.2-1.3-0.6l-22-28.9v27.7
				c0,0.5-0.2,0.9-0.5,1.3c-0.3,0.4-0.8,0.5-1.3,0.5C190.5,123.4,190,123.2,189.7,122.9z"/>
			<path class="st0" d="M284.8,121.3c-2.7-1.7-4.9-3.9-6.5-6.7c-1.6-2.8-2.4-5.9-2.4-9.2c0-3.3,0.8-6.4,2.4-9.2
				c1.6-2.8,3.8-5.1,6.5-6.7c2.7-1.7,5.7-2.5,9-2.5c2.2,0,4.2,0.3,6,1c1.8,0.6,3.6,1.7,5.2,3.1c0.3,0.2,0.5,0.6,0.5,1.1
				c0,0.2-0.1,0.5-0.2,0.7c-0.1,0.2-0.3,0.3-0.5,0.4c-0.1,0.2-0.2,0.4-0.4,0.5c-0.2,0.1-0.4,0.2-0.7,0.2c-0.5,0-0.8-0.1-1.1-0.4
				c-1.2-1.1-2.5-1.9-3.9-2.3c-1.4-0.5-3-0.7-4.9-0.7c-2.6,0-5,0.7-7.2,2c-2.2,1.4-4,3.2-5.3,5.5c-1.3,2.3-2,4.8-2,7.4
				c0,2.7,0.6,5.2,1.9,7.5s3,4.1,5.2,5.5c2.2,1.3,4.6,2,7.2,2c3.3,0,6.4-1.1,9.1-3.2c0.3-0.2,0.7-0.4,1-0.4c0.5,0,0.9,0.2,1.2,0.5
				c0.3,0.3,0.5,0.7,0.5,1.3c0,0.5-0.2,0.9-0.5,1.3c-2.9,2.6-6.6,4-11.3,4C290.5,123.8,287.6,123,284.8,121.3z"/>
			<path class="st0" d="M364.2,122.8c-0.4-0.4-0.5-0.8-0.5-1.3V89.3c0-0.5,0.2-0.9,0.5-1.3c0.4-0.3,0.8-0.5,1.3-0.5H387
				c0.5,0,0.9,0.2,1.3,0.5c0.3,0.3,0.5,0.8,0.5,1.2c0,0.5-0.2,0.9-0.5,1.2c-0.3,0.3-0.8,0.5-1.3,0.5h-19.8v12.7h14.4
				c0.5,0,0.9,0.2,1.3,0.5c0.3,0.3,0.5,0.8,0.5,1.2c0,0.5-0.2,0.9-0.5,1.2c-0.4,0.3-0.8,0.5-1.3,0.5h-14.4v12.8H387
				c0.5,0,0.9,0.2,1.3,0.5c0.3,0.3,0.5,0.7,0.5,1.2c0,0.5-0.2,0.9-0.5,1.2c-0.3,0.3-0.8,0.5-1.3,0.5h-21.6
				C364.9,123.4,364.5,123.2,364.2,122.8z"/>
			<path class="st0" d="M579.1,122.8c-0.4-0.4-0.5-0.8-0.5-1.3V91.7l-4.6,1.6c-0.3,0.2-0.6,0.2-0.9,0.2c-0.5,0-0.9-0.2-1.3-0.5
				c-0.3-0.3-0.5-0.7-0.5-1.3c0-0.9,0.4-1.5,1.1-1.7l7.1-2.4c0.5-0.2,0.8-0.2,0.9-0.2c0.5,0,0.9,0.2,1.2,0.5
				c0.3,0.3,0.5,0.8,0.5,1.3v32.3c0,0.5-0.2,0.9-0.5,1.3c-0.3,0.4-0.8,0.5-1.3,0.5C579.9,123.4,579.5,123.2,579.1,122.8z"/>
			<path class="st0" d="M659.5,103.7L659.5,103.7l-11.3,18.6c-0.4,0.6-0.9,1-1.6,1c-0.5,0-1-0.2-1.3-0.5c-0.4-0.4-0.5-0.8-0.5-1.2
				c0-0.3,0.1-0.7,0.3-1l7.2-11.8c-0.6,0.1-1.3,0.2-2.2,0.2c-2,0-3.9-0.5-5.5-1.4c-1.6-0.9-2.9-2.2-3.9-3.9
				c-0.9-1.6-1.4-3.5-1.4-5.5c0-2.1,0.5-3.9,1.4-5.5c0.9-1.6,2.2-2.9,3.8-3.9c1.6-0.9,3.5-1.4,5.5-1.4c2.1,0,3.9,0.5,5.5,1.4
				c1.6,0.9,2.9,2.2,3.9,3.9c0.9,1.6,1.4,3.5,1.4,5.5C660.9,100.2,660.5,102.1,659.5,103.7z M643.8,102.1c0.6,1.1,1.5,2.1,2.6,2.7
				c1.1,0.7,2.4,1,3.7,1c1.4,0,2.6-0.3,3.7-1c1.1-0.7,2-1.6,2.6-2.7s1-2.4,1-3.8c0-1.4-0.3-2.7-1-3.8c-0.6-1.1-1.5-2-2.6-2.7
				c-1.1-0.6-2.4-1-3.7-1c-1.4,0-2.6,0.3-3.7,1c-1.1,0.6-2,1.5-2.6,2.7c-0.6,1.1-1,2.4-1,3.8C642.8,99.6,643.1,100.9,643.8,102.1z"
				/>
			<path class="st0" d="M736.7,103.7L736.7,103.7l-11.3,18.6c-0.4,0.6-0.9,1-1.6,1c-0.5,0-1-0.2-1.3-0.5c-0.4-0.4-0.5-0.8-0.5-1.2
				c0-0.3,0.1-0.7,0.3-1l7.2-11.8c-0.6,0.1-1.3,0.2-2.2,0.2c-2,0-3.9-0.5-5.5-1.4c-1.6-0.9-2.9-2.2-3.9-3.9
				c-0.9-1.6-1.4-3.5-1.4-5.5c0-2.1,0.5-3.9,1.4-5.5c0.9-1.6,2.2-2.9,3.8-3.9c1.6-0.9,3.5-1.4,5.5-1.4c2.1,0,3.9,0.5,5.5,1.4
				c1.6,0.9,2.9,2.2,3.9,3.9c0.9,1.6,1.4,3.5,1.4,5.5C738.1,100.2,737.6,102.1,736.7,103.7z M720.9,102.1c0.6,1.1,1.5,2.1,2.6,2.7
				c1.1,0.7,2.4,1,3.7,1c1.4,0,2.6-0.3,3.7-1c1.1-0.7,2-1.6,2.6-2.7s1-2.4,1-3.8c0-1.4-0.3-2.7-1-3.8c-0.6-1.1-1.5-2-2.6-2.7
				c-1.1-0.6-2.4-1-3.7-1c-1.4,0-2.6,0.3-3.7,1c-1.1,0.6-2,1.5-2.6,2.7c-0.6,1.1-1,2.4-1,3.8C720,99.6,720.3,100.9,720.9,102.1z"/>
			<path class="st0" d="M813.8,103.7L813.8,103.7l-11.3,18.6c-0.4,0.6-0.9,1-1.6,1c-0.5,0-1-0.2-1.3-0.5c-0.4-0.4-0.5-0.8-0.5-1.2
				c0-0.3,0.1-0.7,0.3-1l7.2-11.8c-0.6,0.1-1.3,0.2-2.2,0.2c-2,0-3.9-0.5-5.5-1.4c-1.6-0.9-2.9-2.2-3.9-3.9
				c-0.9-1.6-1.4-3.5-1.4-5.5c0-2.1,0.5-3.9,1.4-5.5c0.9-1.6,2.2-2.9,3.8-3.9c1.6-0.9,3.5-1.4,5.5-1.4c2.1,0,3.9,0.5,5.5,1.4
				c1.6,0.9,2.9,2.2,3.9,3.9c0.9,1.6,1.4,3.5,1.4,5.5C815.2,100.2,814.8,102.1,813.8,103.7z M798.1,102.1c0.6,1.1,1.5,2.1,2.6,2.7
				c1.1,0.7,2.4,1,3.7,1c1.4,0,2.6-0.3,3.7-1c1.1-0.7,2-1.6,2.6-2.7s1-2.4,1-3.8c0-1.4-0.3-2.7-1-3.8c-0.6-1.1-1.5-2-2.6-2.7
				c-1.1-0.6-2.4-1-3.7-1c-1.4,0-2.6,0.3-3.7,1c-1.1,0.6-2,1.5-2.6,2.7c-0.6,1.1-1,2.4-1,3.8C797.1,99.6,797.4,100.9,798.1,102.1z"
				/>
		</g>
	</g>
</g>
<g>
</g>
<g>
</g>
<g>
</g>
<g>
</g>
<g>
</g>
<g>
</g>
<g>
</g>
<g>
</g>
<g>
</g>
<g>
</g>
<g>
</g>
<g>
</g>
<g>
</g>
<g>
</g>
<g>
</g>
</svg>
