<?xml version="1.0" encoding="utf-8"?>
<!-- Generator: Adobe Illustrator 25.0.1, SVG Export Plug-In . SVG Version: 6.00 Build 0)  -->
<svg version="1.1" id="Layer_1" xmlns="http://www.w3.org/2000/svg" xmlns:xlink="http://www.w3.org/1999/xlink" x="0px" y="0px"
	 viewBox="0 0 800 800" style="enable-background:new 0 0 800 800;" xml:space="preserve">
<style type="text/css">
	.st0{fill:#F26F21;}
	.st1{clip-path:url(#SVGID_2_);fill:#FFFFFF;}
</style>
<g>
	<g>
		<path class="st0" d="M683.54,0H116.46C52.14,0,0,52.14,0,116.46v567.08C0,747.86,52.14,800,116.46,800h567.08
			C747.86,800,800,747.86,800,683.54V116.46C800,52.14,747.86,0,683.54,0z"/>
	</g>
	<g>
		<g>
			<defs>
				<path id="SVGID_1_" d="M641.11,521.92c-3.78-5.67-7.88-11.35-12.93-15.76c-9.46-8.51-20.18-14.82-31.84-19.86
					c-10.4-4.41-21.12-7.57-32.16-10.4c-6.94-1.58-13.87-2.84-20.81-4.1c-6.94-1.26-13.87-2.21-20.81-3.15
					c-4.1-0.63-8.2-0.95-12.3-1.26c-5.04-0.63-10.4-1.26-15.45-1.58c-6.31-0.32-12.61-0.95-18.92-1.26h-0.32c0-1.26,0-2.52,0-3.78
					c0-19.54,0-39.09,0.32-58.63c0-3.47-0.32-6.94,0-10.4v-5.04l81.66-22.38l89.54-24.27c0,0,9.14-111.28,5.36-92.36
					c-3.47,19.23-20.81,47.91-31.53,59.89c-11.03,11.66-27.11,19.86-27.11,19.86l-4.73,0.95l-22.38-2.84c0,0-19.86-0.95-65.26-0.95
					c-5.67,0-13.56,0.32-23.33,0.32v-1.26c0.32-5.67,0.63-11.35,0.95-17.34c0.95-10.09,1.89-20.49,3.15-30.89
					c1.26-10.72,2.84-21.12,4.73-31.52c2.84-13.87,6.31-27.42,11.35-40.66c4.1-9.77,8.83-19.23,15.45-27.42
					c1.89-2.21,3.78-4.73,5.99-6.62c2.84-1.89,5.36-4.1,8.51-5.67c3.15-1.58,6.62-3.15,10.09-4.1c8.2-2.52,16.71-2.21,25.22-0.63
					c2.84,0.63,5.67,1.58,8.51,2.52c3.78,1.26,7.57,2.21,11.35,4.1c8.51,4.1,17.02,8.51,24.91,14.19
					c5.67,4.41,11.67,8.51,17.34,12.92c2.52,1.89,4.73,4.1,7.25,5.99c1.26-1.58,13.87-28.06,14.19-30.26
					c-0.63,0-0.95-0.32-1.58-0.63c-3.78-1.58-7.57-2.84-11.35-4.41c-9.46-3.78-18.92-7.25-29.01-9.77
					c-4.73-1.26-9.46-2.84-14.19-3.47c-9.46-1.58-18.92-2.52-28.69-2.52c-14.5,0.63-28.06,3.78-40.36,11.66
					c-5.67,3.47-11.35,7.57-15.76,12.61c-8.51,9.46-14.82,20.49-19.86,32.15c-4.41,10.09-7.57,21.12-10.09,31.84
					c-1.89,6.94-3.15,13.87-4.41,20.81c-1.26,6.94-2.21,13.87-3.15,20.81c-0.63,4.1-0.95,8.2-1.26,12.61
					c-0.32,5.04-0.95,10.09-1.58,15.45c-0.32,6.3-0.63,12.61-1.26,18.91v0.63c-21.44,0-48.55,0-77.87-0.95l-22.07-81.64
					l-24.59-89.52c0,0-111.29-8.83-92.06-5.36c18.92,3.78,47.92,20.81,59.59,31.84c11.67,10.72,19.86,27.11,19.86,27.11l0.95,4.41
					l-2.84,22.7c0,0-0.95,19.86-0.95,64.94c0,5.36,0.32,12.92,0.32,22.38c-54.86-4.1-108.14-11.98-139.04-26.79
					c-72.2-35.31,11.67-126.72,11.67-126.72l-29.64-14.5c0,0-20.81,50.75-20.81,91.42c0,40.66,36.26,58.63,44.14,64.31
					c8.2,5.36,36.26,13.55,36.26,13.55s11.03,2.52,22.7,5.36c7.57,1.58,53.91,5.99,74.72,8.2c0,20.49,0,46.34-0.95,74.39
					l-52.02,16.08l-43.51,13.55c-1.58,0.32-4.73,0.95-6.31,1.58l-3.78,0.95c-5.36,1.58-10.72,2.52-16.39,4.1
					c-15.45,4.41-31.21,8.51-46.98,12.92c-3.47,0.95-3.47,0.95-3.78,4.73c-0.32,8.2-0.95,16.08-1.26,24.27
					c-0.32,6.3-0.63,12.29-0.95,18.6c0,3.78-0.32,7.57-0.63,11.35c0,4.73-0.32,9.46-0.63,14.19c-0.32,4.41-0.63,8.83-0.95,13.24
					c-0.32,2.21,0,4.73,0,7.25c0.63-1.26,0.95-2.52,1.26-3.47c0.95-3.47,1.89-6.94,3.15-10.09c2.21-6.94,5.36-13.87,8.51-20.17
					c3.78-7.57,8.51-14.82,13.87-21.12c6.62-7.57,13.87-14.19,22.7-19.54c2.52-1.58,5.04-2.84,7.57-4.41
					c2.21-1.58,4.73-2.21,7.57-1.58c3.47,0.63,6.94,0.63,10.4,0.95l1.58,0.32c29.01,2.21,58.33,2.21,87.65,2.21h9.77
					c-4.1,54.53-11.98,107.49-26.8,138.07c-35.31,72.5-126.74-11.66-126.74-11.66l-14.5,29.95c0,0,50.76,20.81,91.43,20.81
					s58.96-36.25,64.32-44.45c5.36-8.2,13.56-36.25,13.56-36.25s2.52-10.72,5.36-22.38c1.89-7.57,5.99-53.27,8.2-74.39
					c1.26,0,2.52,0,3.78,0c19.55,0,39.09,0,58.64,0c3.47,0,6.94,0,10.09,0.32h2.21l15.76,52.33l13.56,43.5
					c0.32,1.26,1.26,4.73,1.58,6.3l0.95,3.47c1.58,5.67,2.52,10.72,4.1,16.39c4.41,15.76,8.51,31.52,12.93,46.97
					c0.95,3.78,0.95,3.78,4.73,3.78c8.2,0.63,16.08,0.95,24.28,1.26c6.31,0.32,12.61,0.63,18.6,0.95c3.78,0.32,7.57,0.32,11.35,0.63
					c4.73,0.32,9.46,0.63,14.5,0.95c4.1,0.32,8.51,0.63,12.93,0.95c2.21,0,4.73,0,7.25,0c-1.26-0.63-2.52-1.26-3.47-1.58
					c-3.47-0.95-6.94-1.89-10.09-2.84c-6.94-2.52-13.87-5.36-20.18-8.83c-7.57-3.78-14.82-8.2-21.12-13.87
					c-7.57-6.3-14.19-13.87-19.55-22.38c-1.58-2.52-2.84-5.04-4.41-7.57c-1.58-2.52-2.21-5.04-1.58-7.88
					c0.63-3.47,0.63-6.93,0.95-10.09l0.32-1.58c2.21-29.32,2.21-58.32,2.21-87.63v-11.35l0.63,0.32c5.67,0.32,11.35,0.63,17.02,0.95
					c10.4,0.95,20.81,1.89,31.21,3.15c10.4,0.95,21.12,2.52,31.53,4.73c13.87,2.84,27.43,6.3,40.67,11.35
					c9.77,3.78,18.92,8.83,27.11,15.45c2.21,1.89,4.73,3.78,6.62,5.99c2.21,2.52,4.41,5.36,5.99,8.51c1.58,3.15,2.84,6.62,4.1,10.09
					c2.21,7.57,2.21,15.45,0.63,23.33c-0.63,3.47-1.58,6.93-2.84,10.4c-1.26,3.78-2.21,7.88-3.78,11.35
					c-4.41,8.51-8.51,17.02-14.5,24.9c-4.1,5.67-8.51,11.66-12.93,17.34c-1.89,2.52-3.78,4.73-5.68,6.93
					c1.58,1.58,28.06,14.19,29.95,14.5c0.32-0.63,0.63-0.95,0.95-1.58c1.26-3.78,2.84-7.57,4.1-11.35c3.78-9.46,7.25-19.23,10.09-29
					c1.26-4.73,2.52-9.46,3.47-14.19c1.26-9.46,2.52-18.91,2.21-28.69C652.15,547.77,648.68,534.22,641.11,521.92L641.11,521.92z
					 M463.3,477.16L463.3,477.16v11.03c0,0-0.95,9.46-1.26,13.87c0,6.62-0.32,12.92-0.63,19.23c0,4.73,0,9.46-0.32,14.19
					c0,3.78,0,7.25-0.32,10.72l-5.04,29l-27.11-98.67l-3.78-13.55l-16.08-58l3.15-0.95l51.39-13.87v6.3
					c-0.63,0.95-0.63,2.21-0.63,3.15c0,0.95,0,2.84,0,2.84l0,0c0,0-0.32,29.95-0.32,44.76c0,5.36,0,11.03,0,16.71L463.3,477.16z
					 M463.3,367.46L463.3,367.46l-52.34,16.08l-7.25,2.21l-13.24-47.91l31.21,0.63h42.25h13.24h21.44c0,0,40.67,0.95,44.45,0.95
					c3.47,0,6.31,0.95,6.31,0.95l-3.78,1.58l-29.64,9.14l-39.41,12.29L463.3,367.46z M367.45,336.88L367.45,336.88l16.08,52.01
					l0.95,2.52l-43.82,13.55l-2.84,0.95l0.63-28.06v-41.61v-14.82v-20.17c0,0,0.95-40.98,0.95-44.45c0-3.47,0.95-6.3,0.95-6.3
					l1.58,3.47l9.14,29.95l11.98,39.09L367.45,336.88z M321.42,462.35L321.42,462.35h-9.77c0,0-9.46-0.32-13.87-0.32
					c-6.62,0-12.93-0.32-19.23-0.63c-5.04,0-9.77,0-14.5-0.32c-3.47,0-6.94-0.32-10.4-0.32l-29.01-5.04l98.68-27.11l13.87-3.78
					l52.65-14.5l15.13,49.18l1.26,2.84h-2.84c-0.95,0.32-2.21,0.32-3.15,0.32c-1.26,0-3.15,0-3.15,0l0,0c0,0-29.64-0.32-44.45-0.32
					c-5.36,0-10.72,0-16.08,0H321.42z"/>
			</defs>
			<use xlink:href="#SVGID_1_"  style="overflow:visible;fill:#FFFFFF;"/>
			<clipPath id="SVGID_2_">
				<use xlink:href="#SVGID_1_"  style="overflow:visible;"/>
			</clipPath>
			<rect x="113.66" y="143.96" class="st1" width="34.05" height="542.51"/>
			<rect x="146.76" y="143.96" class="st1" width="2.84" height="542.51"/>
			<rect x="148.65" y="143.96" class="st1" width="2.84" height="542.51"/>
			<rect x="150.54" y="143.96" class="st1" width="3.15" height="542.51"/>
			<rect x="152.75" y="143.96" class="st1" width="2.84" height="542.51"/>
			<rect x="154.64" y="143.96" class="st1" width="2.84" height="542.51"/>
			<rect x="156.53" y="143.96" class="st1" width="2.84" height="542.51"/>
			<rect x="158.43" y="143.96" class="st1" width="3.15" height="542.51"/>
			<rect x="160.63" y="143.96" class="st1" width="2.84" height="542.51"/>
			<rect x="162.52" y="143.96" class="st1" width="2.84" height="542.51"/>
			<rect x="164.42" y="143.96" class="st1" width="3.15" height="542.51"/>
			<rect x="166.31" y="143.96" class="st1" width="3.15" height="542.51"/>
			<rect x="168.51" y="143.96" class="st1" width="2.84" height="542.51"/>
			<rect x="170.41" y="143.96" class="st1" width="2.84" height="542.51"/>
			<rect x="172.3" y="143.96" class="st1" width="3.15" height="542.51"/>
			<rect x="174.5" y="143.96" class="st1" width="2.84" height="542.51"/>
			<rect x="176.4" y="143.96" class="st1" width="2.84" height="542.51"/>
			<rect x="178.29" y="143.96" class="st1" width="3.15" height="542.51"/>
			<rect x="180.18" y="143.96" class="st1" width="3.15" height="542.51"/>
			<rect x="182.39" y="143.96" class="st1" width="2.84" height="542.51"/>
			<rect x="184.28" y="143.96" class="st1" width="2.84" height="542.51"/>
			<rect x="186.17" y="143.96" class="st1" width="3.15" height="542.51"/>
			<rect x="188.38" y="143.96" class="st1" width="2.84" height="542.51"/>
			<rect x="190.27" y="143.96" class="st1" width="2.84" height="542.51"/>
			<rect x="192.16" y="143.96" class="st1" width="3.15" height="542.51"/>
			<rect x="194.05" y="143.96" class="st1" width="3.15" height="542.51"/>
			<rect x="196.26" y="143.96" class="st1" width="2.84" height="542.51"/>
			<rect x="198.15" y="143.96" class="st1" width="2.84" height="542.51"/>
			<rect x="200.04" y="143.96" class="st1" width="3.15" height="542.51"/>
			<rect x="201.93" y="143.96" class="st1" width="3.15" height="542.51"/>
			<rect x="204.14" y="143.96" class="st1" width="2.84" height="542.51"/>
			<rect x="206.03" y="143.96" class="st1" width="2.84" height="542.51"/>
			<rect x="207.92" y="143.96" class="st1" width="3.15" height="542.51"/>
			<rect x="210.13" y="143.96" class="st1" width="2.84" height="542.51"/>
			<rect x="212.02" y="143.96" class="st1" width="2.84" height="542.51"/>
			<rect x="213.91" y="143.96" class="st1" width="3.15" height="542.51"/>
			<rect x="215.81" y="143.96" class="st1" width="3.15" height="542.51"/>
			<rect x="218.01" y="143.96" class="st1" width="2.84" height="542.51"/>
			<rect x="219.9" y="143.96" class="st1" width="2.84" height="542.51"/>
			<rect x="221.8" y="143.96" class="st1" width="3.15" height="542.51"/>
			<rect x="224" y="143.96" class="st1" width="2.84" height="542.51"/>
			<rect x="225.89" y="143.96" class="st1" width="2.84" height="542.51"/>
			<rect x="227.79" y="143.96" class="st1" width="3.15" height="542.51"/>
			<rect x="229.68" y="143.96" class="st1" width="3.15" height="542.51"/>
			<rect x="231.88" y="143.96" class="st1" width="2.84" height="542.51"/>
			<rect x="233.78" y="143.96" class="st1" width="2.84" height="542.51"/>
			<rect x="235.67" y="143.96" class="st1" width="3.15" height="542.51"/>
			<rect x="237.56" y="143.96" class="st1" width="3.15" height="542.51"/>
			<rect x="239.77" y="143.96" class="st1" width="2.84" height="542.51"/>
			<rect x="241.66" y="143.96" class="st1" width="2.84" height="542.51"/>
			<rect x="243.55" y="143.96" class="st1" width="3.15" height="542.51"/>
			<rect x="245.76" y="143.96" class="st1" width="2.84" height="542.51"/>
			<rect x="247.65" y="143.96" class="st1" width="2.84" height="542.51"/>
			<rect x="249.54" y="143.96" class="st1" width="3.15" height="542.51"/>
			<rect x="251.43" y="143.96" class="st1" width="3.15" height="542.51"/>
			<rect x="253.64" y="143.96" class="st1" width="2.84" height="542.51"/>
			<rect x="255.53" y="143.96" class="st1" width="2.84" height="542.51"/>
			<rect x="257.42" y="143.96" class="st1" width="3.15" height="542.51"/>
			<rect x="259.63" y="143.96" class="st1" width="2.84" height="542.51"/>
			<rect x="261.52" y="143.96" class="st1" width="2.84" height="542.51"/>
			<rect x="263.41" y="143.96" class="st1" width="3.15" height="542.51"/>
			<rect x="265.3" y="143.96" class="st1" width="3.15" height="542.51"/>
			<rect x="267.51" y="143.96" class="st1" width="2.84" height="542.51"/>
			<rect x="269.4" y="143.96" class="st1" width="2.84" height="542.51"/>
			<rect x="271.29" y="143.96" class="st1" width="3.15" height="542.51"/>
			<rect x="273.5" y="143.96" class="st1" width="2.84" height="542.51"/>
			<rect x="275.39" y="143.96" class="st1" width="2.84" height="542.51"/>
			<rect x="277.28" y="143.96" class="st1" width="2.84" height="542.51"/>
			<rect x="279.18" y="143.96" class="st1" width="3.15" height="542.51"/>
			<rect x="281.38" y="143.96" class="st1" width="2.84" height="542.51"/>
			<rect x="283.27" y="143.96" class="st1" width="2.84" height="542.51"/>
			<rect x="285.17" y="143.96" class="st1" width="3.15" height="542.51"/>
			<rect x="287.06" y="143.96" class="st1" width="3.15" height="542.51"/>
			<rect x="289.27" y="143.96" class="st1" width="2.84" height="542.51"/>
			<rect x="291.16" y="143.96" class="st1" width="2.84" height="542.51"/>
			<rect x="293.05" y="143.96" class="st1" width="3.15" height="542.51"/>
			<rect x="295.26" y="143.96" class="st1" width="2.84" height="542.51"/>
			<rect x="297.15" y="143.96" class="st1" width="2.84" height="542.51"/>
			<rect x="299.04" y="143.96" class="st1" width="3.15" height="542.51"/>
			<rect x="300.93" y="143.96" class="st1" width="3.15" height="542.51"/>
			<rect x="303.14" y="143.96" class="st1" width="2.84" height="542.51"/>
			<rect x="305.03" y="143.96" class="st1" width="2.84" height="542.51"/>
			<rect x="306.92" y="143.96" class="st1" width="3.15" height="542.51"/>
			<rect x="309.13" y="143.96" class="st1" width="2.84" height="542.51"/>
			<rect x="311.02" y="143.96" class="st1" width="2.84" height="542.51"/>
			<rect x="312.91" y="143.96" class="st1" width="2.84" height="542.51"/>
			<rect x="314.8" y="143.96" class="st1" width="3.15" height="542.51"/>
			<rect x="317.01" y="143.96" class="st1" width="2.84" height="542.51"/>
			<rect x="318.9" y="143.96" class="st1" width="2.84" height="542.51"/>
			<rect x="320.79" y="143.96" class="st1" width="3.15" height="542.51"/>
			<rect x="322.68" y="143.96" class="st1" width="3.15" height="542.51"/>
			<rect x="324.89" y="143.96" class="st1" width="2.84" height="542.51"/>
			<rect x="326.78" y="143.96" class="st1" width="2.84" height="542.51"/>
			<rect x="328.67" y="143.96" class="st1" width="3.15" height="542.51"/>
			<rect x="330.88" y="143.96" class="st1" width="2.84" height="542.51"/>
			<rect x="332.77" y="143.96" class="st1" width="2.84" height="542.51"/>
			<rect x="334.66" y="143.96" class="st1" width="3.15" height="542.51"/>
			<rect x="336.56" y="143.96" class="st1" width="3.15" height="542.51"/>
			<rect x="338.76" y="143.96" class="st1" width="2.84" height="542.51"/>
			<rect x="340.65" y="143.96" class="st1" width="2.84" height="542.51"/>
			<rect x="342.55" y="143.96" class="st1" width="3.15" height="542.51"/>
			<rect x="344.75" y="143.96" class="st1" width="2.84" height="542.51"/>
			<rect x="346.65" y="143.96" class="st1" width="2.84" height="542.51"/>
			<rect x="348.54" y="143.96" class="st1" width="3.15" height="542.51"/>
			<rect x="350.43" y="143.96" class="st1" width="3.15" height="542.51"/>
			<rect x="352.64" y="143.96" class="st1" width="2.84" height="542.51"/>
			<rect x="354.53" y="143.96" class="st1" width="2.84" height="542.51"/>
			<rect x="356.42" y="143.96" class="st1" width="3.15" height="542.51"/>
			<rect x="358.31" y="143.96" class="st1" width="3.15" height="542.51"/>
			<rect x="360.52" y="143.96" class="st1" width="2.84" height="542.51"/>
			<rect x="362.41" y="143.96" class="st1" width="2.84" height="542.51"/>
			<rect x="364.3" y="143.96" class="st1" width="3.15" height="542.51"/>
			<rect x="366.51" y="143.96" class="st1" width="2.84" height="542.51"/>
			<rect x="368.4" y="143.96" class="st1" width="2.84" height="542.51"/>
			<rect x="370.29" y="143.96" class="st1" width="3.15" height="542.51"/>
			<rect x="372.18" y="143.96" class="st1" width="3.15" height="542.51"/>
			<rect x="374.39" y="143.96" class="st1" width="2.84" height="542.51"/>
			<rect x="376.28" y="143.96" class="st1" width="2.84" height="542.51"/>
			<rect x="378.17" y="143.96" class="st1" width="3.15" height="542.51"/>
			<rect x="380.38" y="143.96" class="st1" width="2.84" height="542.51"/>
			<rect x="382.27" y="143.96" class="st1" width="2.84" height="542.51"/>
			<rect x="384.16" y="143.96" class="st1" width="3.15" height="542.51"/>
			<rect x="386.05" y="143.96" class="st1" width="3.15" height="542.51"/>
			<rect x="388.26" y="143.96" class="st1" width="2.84" height="542.51"/>
			<rect x="390.15" y="143.96" class="st1" width="2.84" height="542.51"/>
			<rect x="392.04" y="143.96" class="st1" width="3.15" height="542.51"/>
			<rect x="393.94" y="143.96" class="st1" width="3.15" height="542.51"/>
			<rect x="396.14" y="143.96" class="st1" width="2.84" height="542.51"/>
			<rect x="398.04" y="143.96" class="st1" width="2.84" height="542.51"/>
			<rect x="399.93" y="143.96" class="st1" width="3.15" height="542.51"/>
			<rect x="402.13" y="143.96" class="st1" width="2.84" height="542.51"/>
			<rect x="404.03" y="143.96" class="st1" width="2.84" height="542.51"/>
			<rect x="405.92" y="143.96" class="st1" width="3.15" height="542.51"/>
			<rect x="407.81" y="143.96" class="st1" width="3.15" height="542.51"/>
			<rect x="410.02" y="143.96" class="st1" width="2.84" height="542.51"/>
			<rect x="411.91" y="143.96" class="st1" width="2.84" height="542.51"/>
			<rect x="413.8" y="143.96" class="st1" width="3.15" height="542.51"/>
			<rect x="416.01" y="143.96" class="st1" width="2.84" height="542.51"/>
			<rect x="417.9" y="143.96" class="st1" width="2.84" height="542.51"/>
			<rect x="419.79" y="143.96" class="st1" width="3.15" height="542.51"/>
			<rect x="421.68" y="143.96" class="st1" width="3.15" height="542.51"/>
			<rect x="423.89" y="143.96" class="st1" width="2.84" height="542.51"/>
			<rect x="425.78" y="143.96" class="st1" width="2.84" height="542.51"/>
			<rect x="427.67" y="143.96" class="st1" width="3.15" height="542.51"/>
			<rect x="429.88" y="143.96" class="st1" width="2.84" height="542.51"/>
			<rect x="431.77" y="143.96" class="st1" width="2.84" height="542.51"/>
			<rect x="433.66" y="143.96" class="st1" width="2.84" height="542.51"/>
			<rect x="435.55" y="143.96" class="st1" width="3.15" height="542.51"/>
			<rect x="437.76" y="143.96" class="st1" width="2.84" height="542.51"/>
			<rect x="439.65" y="143.96" class="st1" width="2.84" height="542.51"/>
			<rect x="441.54" y="143.96" class="st1" width="3.15" height="542.51"/>
			<rect x="443.43" y="143.96" class="st1" width="3.15" height="542.51"/>
			<rect x="445.64" y="143.96" class="st1" width="2.84" height="542.51"/>
			<rect x="447.53" y="143.96" class="st1" width="2.84" height="542.51"/>
			<rect x="449.42" y="143.96" class="st1" width="3.15" height="542.51"/>
			<rect x="451.63" y="143.96" class="st1" width="2.84" height="542.51"/>
			<rect x="453.52" y="143.96" class="st1" width="2.84" height="542.51"/>
			<rect x="455.42" y="143.96" class="st1" width="3.15" height="542.51"/>
			<rect x="457.31" y="143.96" class="st1" width="3.15" height="542.51"/>
			<rect x="459.51" y="143.96" class="st1" width="2.84" height="542.51"/>
			<rect x="461.41" y="143.96" class="st1" width="2.84" height="542.51"/>
			<rect x="463.3" y="143.96" class="st1" width="3.15" height="542.51"/>
			<rect x="465.5" y="143.96" class="st1" width="2.84" height="542.51"/>
			<rect x="467.4" y="143.96" class="st1" width="2.84" height="542.51"/>
			<rect x="469.29" y="143.96" class="st1" width="2.84" height="542.51"/>
			<rect x="471.18" y="143.96" class="st1" width="3.15" height="542.51"/>
			<rect x="473.39" y="143.96" class="st1" width="2.84" height="542.51"/>
			<rect x="475.28" y="143.96" class="st1" width="2.84" height="542.51"/>
			<rect x="477.17" y="143.96" class="st1" width="3.15" height="542.51"/>
			<rect x="479.06" y="143.96" class="st1" width="3.15" height="542.51"/>
			<rect x="481.27" y="143.96" class="st1" width="2.84" height="542.51"/>
			<rect x="483.16" y="143.96" class="st1" width="2.84" height="542.51"/>
			<rect x="485.05" y="143.96" class="st1" width="3.15" height="542.51"/>
			<rect x="487.26" y="143.96" class="st1" width="2.84" height="542.51"/>
			<rect x="489.15" y="143.96" class="st1" width="2.84" height="542.51"/>
			<rect x="491.04" y="143.96" class="st1" width="3.15" height="542.51"/>
			<rect x="492.93" y="143.96" class="st1" width="3.15" height="542.51"/>
			<rect x="495.14" y="143.96" class="st1" width="2.84" height="542.51"/>
			<rect x="497.03" y="143.96" class="st1" width="2.84" height="542.51"/>
			<rect x="498.92" y="143.96" class="st1" width="3.15" height="542.51"/>
			<rect x="501.13" y="143.96" class="st1" width="2.84" height="542.51"/>
			<rect x="503.02" y="143.96" class="st1" width="2.84" height="542.51"/>
			<rect x="504.91" y="143.96" class="st1" width="3.15" height="542.51"/>
			<rect x="506.81" y="143.96" class="st1" width="3.15" height="542.51"/>
			<rect x="509.01" y="143.96" class="st1" width="2.84" height="542.51"/>
			<rect x="510.9" y="143.96" class="st1" width="2.84" height="542.51"/>
			<rect x="512.8" y="143.96" class="st1" width="3.15" height="542.51"/>
			<rect x="514.69" y="143.96" class="st1" width="3.15" height="542.51"/>
			<rect x="516.89" y="143.96" class="st1" width="2.84" height="542.51"/>
			<rect x="518.79" y="143.96" class="st1" width="2.84" height="542.51"/>
			<rect x="520.68" y="143.96" class="st1" width="3.15" height="542.51"/>
			<rect x="522.88" y="143.96" class="st1" width="2.84" height="542.51"/>
			<rect x="524.78" y="143.96" class="st1" width="2.84" height="542.51"/>
			<rect x="526.67" y="143.96" class="st1" width="3.15" height="542.51"/>
			<rect x="528.56" y="143.96" class="st1" width="3.15" height="542.51"/>
			<rect x="530.77" y="143.96" class="st1" width="2.84" height="542.51"/>
			<rect x="532.66" y="143.96" class="st1" width="2.84" height="542.51"/>
			<rect x="534.55" y="143.96" class="st1" width="3.15" height="542.51"/>
			<rect x="536.76" y="143.96" class="st1" width="2.84" height="542.51"/>
			<rect x="538.65" y="143.96" class="st1" width="2.84" height="542.51"/>
			<rect x="540.54" y="143.96" class="st1" width="3.15" height="542.51"/>
			<rect x="542.43" y="143.96" class="st1" width="3.15" height="542.51"/>
			<rect x="544.64" y="143.96" class="st1" width="2.84" height="542.51"/>
			<rect x="546.53" y="143.96" class="st1" width="2.84" height="542.51"/>
			<rect x="548.42" y="143.96" class="st1" width="3.15" height="542.51"/>
			<rect x="550.63" y="143.96" class="st1" width="2.84" height="542.51"/>
			<rect x="552.52" y="143.96" class="st1" width="2.84" height="542.51"/>
			<rect x="554.41" y="143.96" class="st1" width="2.84" height="542.51"/>
			<rect x="556.3" y="143.96" class="st1" width="3.15" height="542.51"/>
			<rect x="558.51" y="143.96" class="st1" width="2.84" height="542.51"/>
			<rect x="560.4" y="143.96" class="st1" width="2.84" height="542.51"/>
			<rect x="562.29" y="143.96" class="st1" width="3.15" height="542.51"/>
			<rect x="564.19" y="143.96" class="st1" width="3.15" height="542.51"/>
			<rect x="566.39" y="143.96" class="st1" width="2.84" height="542.51"/>
			<rect x="568.28" y="143.96" class="st1" width="2.84" height="542.51"/>
			<rect x="570.18" y="143.96" class="st1" width="3.15" height="542.51"/>
			<rect x="572.38" y="143.96" class="st1" width="2.84" height="542.51"/>
			<rect x="574.27" y="143.96" class="st1" width="2.84" height="542.51"/>
			<rect x="576.17" y="143.96" class="st1" width="3.15" height="542.51"/>
			<rect x="578.06" y="143.96" class="st1" width="3.15" height="542.51"/>
			<rect x="580.26" y="143.96" class="st1" width="2.84" height="542.51"/>
			<rect x="582.16" y="143.96" class="st1" width="2.84" height="542.51"/>
			<rect x="584.05" y="143.96" class="st1" width="3.15" height="542.51"/>
			<rect x="586.25" y="143.96" class="st1" width="2.84" height="542.51"/>
			<rect x="588.15" y="143.96" class="st1" width="2.84" height="542.51"/>
			<rect x="590.04" y="143.96" class="st1" width="2.84" height="542.51"/>
			<rect x="591.93" y="143.96" class="st1" width="3.15" height="542.51"/>
			<rect x="594.14" y="143.96" class="st1" width="2.84" height="542.51"/>
			<rect x="596.03" y="143.96" class="st1" width="2.84" height="542.51"/>
			<rect x="597.92" y="143.96" class="st1" width="3.15" height="542.51"/>
			<rect x="599.81" y="143.96" class="st1" width="3.15" height="542.51"/>
			<rect x="602.02" y="143.96" class="st1" width="2.84" height="542.51"/>
			<rect x="603.91" y="143.96" class="st1" width="2.84" height="542.51"/>
			<rect x="605.8" y="143.96" class="st1" width="3.15" height="542.51"/>
			<rect x="608.01" y="143.96" class="st1" width="2.84" height="542.51"/>
			<rect x="609.9" y="143.96" class="st1" width="2.84" height="542.51"/>
			<rect x="611.79" y="143.96" class="st1" width="3.15" height="542.51"/>
			<rect x="613.68" y="143.96" class="st1" width="3.15" height="542.51"/>
			<rect x="615.89" y="143.96" class="st1" width="2.84" height="542.51"/>
			<rect x="617.78" y="143.96" class="st1" width="2.84" height="542.51"/>
			<rect x="619.67" y="143.96" class="st1" width="3.15" height="542.51"/>
			<rect x="621.88" y="143.96" class="st1" width="2.84" height="542.51"/>
			<rect x="623.77" y="143.96" class="st1" width="2.84" height="542.51"/>
			<rect x="625.66" y="143.96" class="st1" width="3.15" height="542.51"/>
			<rect x="627.56" y="143.96" class="st1" width="3.15" height="542.51"/>
			<rect x="629.76" y="143.96" class="st1" width="2.84" height="542.51"/>
			<rect x="631.65" y="143.96" class="st1" width="2.84" height="542.51"/>
			<rect x="633.55" y="143.96" class="st1" width="3.15" height="542.51"/>
			<rect x="635.44" y="143.96" class="st1" width="3.15" height="542.51"/>
			<rect x="637.64" y="143.96" class="st1" width="2.84" height="542.51"/>
			<rect x="639.54" y="143.96" class="st1" width="2.84" height="542.51"/>
			<rect x="641.43" y="143.96" class="st1" width="3.15" height="542.51"/>
			<rect x="643.63" y="143.96" class="st1" width="2.84" height="542.51"/>
			<rect x="645.53" y="143.96" class="st1" width="2.84" height="542.51"/>
			<rect x="647.42" y="143.96" class="st1" width="3.15" height="542.51"/>
			<rect x="649.31" y="143.96" class="st1" width="6.94" height="542.51"/>
		</g>
	</g>
</g>
</svg>
