<?xml version="1.0" encoding="utf-8"?>
<!-- Generator: Adobe Illustrator 25.0.1, SVG Export Plug-In . SVG Version: 6.00 Build 0)  -->
<svg version="1.1" id="Layer_1" xmlns="http://www.w3.org/2000/svg" xmlns:xlink="http://www.w3.org/1999/xlink" x="0px" y="0px"
	 viewBox="0 0 800 635.96" style="enable-background:new 0 0 800 635.96;" xml:space="preserve">
<style type="text/css">
	.st0{fill:#F37021;}
	.st1{clip-path:url(#SVGID_2_);fill:#FFFFFF;}
	.st2{clip-path:url(#SVGID_4_);fill:#FFFFFF;}
	.st3{fill:#FCFAFC;}
	.st4{font-family:'ArialMT';}
	.st5{font-size:55.663px;}
</style>
<g>
	<g>
		<path class="st0" d="M727.68,0H72.32C32.38,0,0,32.38,0,72.32v491.31c0,39.94,32.38,72.32,72.32,72.32h655.35
			c39.94,0,72.32-32.38,72.32-72.32V72.32C800,32.38,767.62,0,727.68,0z"/>
	</g>
	<g>
		<g>
			<defs>
				<path id="SVGID_1_" d="M557.53,286.72c-2.51-3.76-5.22-7.52-8.57-10.45c-6.27-5.64-13.37-9.82-21.11-13.16
					c-6.9-2.93-14-5.01-21.31-6.89c-4.6-1.04-9.19-1.88-13.79-2.72s-9.19-1.46-13.79-2.09c-2.72-0.42-5.43-0.63-8.15-0.84
					c-3.34-0.42-6.9-0.84-10.24-1.04c-4.18-0.21-8.36-0.63-12.54-0.84h-0.21c0-0.84,0-1.67,0-2.51c0-12.95,0-25.91,0.21-38.86
					c0-2.3-0.21-4.6,0-6.89v-3.34l54.12-14.83l59.35-16.09c0,0,6.06-73.75,3.55-61.22c-2.3,12.74-13.79,31.76-20.9,39.7
					c-7.31,7.73-17.97,13.16-17.97,13.16l-3.13,0.63l-14.84-1.88c0,0-13.16-0.63-43.26-0.63c-3.76,0-8.99,0.21-15.46,0.21v-0.84
					c0.21-3.76,0.42-7.52,0.63-11.49c0.63-6.69,1.25-13.58,2.09-20.48c0.84-7.1,1.88-14,3.13-20.89c1.88-9.19,4.18-18.18,7.52-26.95
					c2.72-6.48,5.85-12.74,10.24-18.18c1.25-1.46,2.51-3.13,3.97-4.39c1.88-1.25,3.55-2.72,5.64-3.76c2.09-1.04,4.39-2.09,6.69-2.72
					c5.43-1.67,11.08-1.46,16.72-0.42c1.88,0.42,3.76,1.04,5.64,1.67c2.51,0.84,5.02,1.46,7.52,2.72c5.64,2.72,11.28,5.64,16.51,9.4
					c3.76,2.93,7.73,5.64,11.49,8.57c1.67,1.25,3.13,2.72,4.81,3.97c0.84-1.04,9.19-18.59,9.4-20.06c-0.42,0-0.63-0.21-1.04-0.42
					c-2.51-1.04-5.02-1.88-7.52-2.92c-6.27-2.51-12.54-4.81-19.22-6.48c-3.13-0.84-6.27-1.88-9.4-2.3
					c-6.27-1.04-12.54-1.67-19.02-1.67c-9.61,0.42-18.6,2.51-26.75,7.73c-3.76,2.3-7.52,5.01-10.45,8.36
					c-5.64,6.27-9.82,13.58-13.16,21.31c-2.93,6.69-5.02,14-6.69,21.1c-1.25,4.6-2.09,9.19-2.93,13.79
					c-0.84,4.6-1.46,9.19-2.09,13.79c-0.42,2.72-0.63,5.43-0.84,8.36c-0.21,3.34-0.63,6.69-1.04,10.24
					c-0.21,4.18-0.42,8.36-0.84,12.54v0.42c-14.21,0-32.18,0-51.61-0.63l-14.63-54.11l-16.3-59.34c0,0-73.76-5.85-61.02-3.55
					c12.54,2.51,31.76,13.79,39.49,21.1c7.73,7.1,13.16,17.97,13.16,17.97l0.63,2.92l-1.88,15.04c0,0-0.63,13.16-0.63,43.04
					c0,3.55,0.21,8.57,0.21,14.83c-36.36-2.72-71.67-7.94-92.15-17.76c-47.85-23.4,7.73-83.99,7.73-83.99l-19.64-9.61
					c0,0-13.79,33.64-13.79,60.59c0,26.95,24.03,38.86,29.25,42.62c5.43,3.55,24.03,8.98,24.03,8.98s7.31,1.67,15.05,3.55
					c5.02,1.04,35.73,3.97,49.52,5.43c0,13.58,0,30.71-0.63,49.31l-34.48,10.66l-28.84,8.98c-1.04,0.21-3.13,0.63-4.18,1.04
					l-2.51,0.63c-3.55,1.04-7.1,1.67-10.87,2.72c-10.24,2.92-20.69,5.64-31.14,8.57c-2.3,0.63-2.3,0.63-2.51,3.13
					c-0.21,5.43-0.63,10.66-0.84,16.09c-0.21,4.18-0.42,8.15-0.63,12.33c0,2.51-0.21,5.01-0.42,7.52c0,3.13-0.21,6.27-0.42,9.4
					c-0.21,2.93-0.42,5.85-0.63,8.77c-0.21,1.46,0,3.13,0,4.81c0.42-0.84,0.63-1.67,0.84-2.3c0.63-2.3,1.25-4.6,2.09-6.69
					c1.46-4.6,3.55-9.19,5.64-13.37c2.51-5.01,5.64-9.82,9.19-14c4.39-5.01,9.19-9.4,15.05-12.95c1.67-1.04,3.34-1.88,5.02-2.92
					c1.46-1.04,3.13-1.46,5.02-1.04c2.3,0.42,4.6,0.42,6.9,0.63l1.04,0.21c19.22,1.46,38.66,1.46,58.09,1.46h6.48
					c-2.72,36.14-7.94,71.24-17.76,91.51c-23.4,48.05-84-7.73-84-7.73l-9.61,19.85c0,0,33.64,13.79,60.6,13.79
					c26.96,0,39.08-24.03,42.63-29.46c3.55-5.43,8.99-24.03,8.99-24.03s1.67-7.1,3.55-14.83c1.25-5.01,3.97-35.31,5.43-49.31
					c0.84,0,1.67,0,2.51,0c12.96,0,25.91,0,38.87,0c2.3,0,4.6,0,6.69,0.21h1.46l10.45,34.68l8.99,28.83
					c0.21,0.84,0.84,3.13,1.04,4.18l0.63,2.3c1.04,3.76,1.67,7.1,2.72,10.86c2.93,10.45,5.64,20.89,8.57,31.13
					c0.63,2.51,0.63,2.51,3.13,2.51c5.43,0.42,10.66,0.63,16.09,0.84c4.18,0.21,8.36,0.42,12.33,0.63c2.51,0.21,5.02,0.21,7.52,0.42
					c3.13,0.21,6.27,0.42,9.61,0.63c2.72,0.21,5.64,0.42,8.57,0.63c1.46,0,3.13,0,4.81,0c-0.84-0.42-1.67-0.84-2.3-1.04
					c-2.3-0.63-4.6-1.25-6.69-1.88c-4.6-1.67-9.19-3.55-13.37-5.85c-5.02-2.51-9.82-5.43-14-9.19c-5.02-4.18-9.4-9.19-12.96-14.83
					c-1.04-1.67-1.88-3.34-2.93-5.01c-1.04-1.67-1.46-3.34-1.04-5.22c0.42-2.3,0.42-4.6,0.63-6.69l0.21-1.04
					c1.46-19.43,1.46-38.65,1.46-58.08v-7.52l0.42,0.21c3.76,0.21,7.52,0.42,11.28,0.63c6.9,0.63,13.79,1.25,20.69,2.09
					c6.9,0.63,14,1.67,20.9,3.13c9.19,1.88,18.18,4.18,26.96,7.52c6.48,2.51,12.54,5.85,17.97,10.24c1.46,1.25,3.13,2.51,4.39,3.97
					c1.46,1.67,2.93,3.55,3.97,5.64c1.04,2.09,1.88,4.39,2.72,6.69c1.46,5.01,1.46,10.24,0.42,15.46c-0.42,2.3-1.04,4.6-1.88,6.89
					c-0.84,2.51-1.46,5.22-2.51,7.52c-2.93,5.64-5.64,11.28-9.61,16.51c-2.72,3.76-5.64,7.73-8.57,11.49
					c-1.25,1.67-2.51,3.13-3.76,4.6c1.04,1.04,18.6,9.4,19.85,9.61c0.21-0.42,0.42-0.63,0.63-1.04c0.84-2.51,1.88-5.01,2.72-7.52
					c2.51-6.27,4.81-12.74,6.69-19.22c0.84-3.13,1.67-6.27,2.3-9.4c0.84-6.27,1.67-12.54,1.46-19.01
					C564.84,303.85,562.54,294.86,557.53,286.72L557.53,286.72z M439.67,257.05L439.67,257.05v7.31c0,0-0.63,6.27-0.84,9.19
					c0,4.39-0.21,8.57-0.42,12.74c0,3.13,0,6.27-0.21,9.4c0,2.51,0,4.81-0.21,7.1l-3.34,19.22l-17.97-65.39l-2.51-8.98l-10.66-38.44
					l2.09-0.63l34.06-9.19v4.18c-0.42,0.63-0.42,1.46-0.42,2.09c0,0.63,0,1.88,0,1.88l0,0c0,0-0.21,19.85-0.21,29.67
					c0,3.55,0,7.31,0,11.07L439.67,257.05z M439.67,184.34L439.67,184.34L404.98,195l-4.81,1.46l-8.78-31.76l20.69,0.42h28h8.78
					h14.21c0,0,26.96,0.63,29.46,0.63c2.3,0,4.18,0.63,4.18,0.63l-2.51,1.04l-19.64,6.06l-26.12,8.15L439.67,184.34z M376.14,164.08
					L376.14,164.08l10.66,34.47l0.63,1.67l-29.05,8.98l-1.88,0.63l0.42-18.59v-27.58v-9.82v-13.37c0,0,0.63-27.16,0.63-29.46
					c0-2.3,0.63-4.18,0.63-4.18l1.04,2.3l6.06,19.85l7.94,25.91L376.14,164.08z M345.64,247.23L345.64,247.23h-6.48
					c0,0-6.27-0.21-9.19-0.21c-4.39,0-8.57-0.21-12.75-0.42c-3.34,0-6.48,0-9.61-0.21c-2.3,0-4.6-0.21-6.9-0.21l-19.22-3.34
					l65.41-17.97l9.19-2.51l34.9-9.61l10.03,32.59l0.84,1.88h-1.88c-0.63,0.21-1.46,0.21-2.09,0.21c-0.84,0-2.09,0-2.09,0l0,0
					c0,0-19.64-0.21-29.46-0.21c-3.55,0-7.1,0-10.66,0H345.64z"/>
			</defs>
			<use xlink:href="#SVGID_1_"  style="overflow:visible;fill:#FFFFFF;"/>
			<clipPath id="SVGID_2_">
				<use xlink:href="#SVGID_1_"  style="overflow:visible;"/>
			</clipPath>
			<rect x="207.93" y="36.21" class="st1" width="22.57" height="359.57"/>
			<rect x="229.87" y="36.21" class="st1" width="1.88" height="359.57"/>
			<rect x="231.12" y="36.21" class="st1" width="1.88" height="359.57"/>
			<rect x="232.38" y="36.21" class="st1" width="2.09" height="359.57"/>
			<rect x="233.84" y="36.21" class="st1" width="1.88" height="359.57"/>
			<rect x="235.09" y="36.21" class="st1" width="1.88" height="359.57"/>
			<rect x="236.35" y="36.21" class="st1" width="1.88" height="359.57"/>
			<rect x="237.6" y="36.21" class="st1" width="2.09" height="359.57"/>
			<rect x="239.06" y="36.21" class="st1" width="1.88" height="359.57"/>
			<rect x="240.32" y="36.21" class="st1" width="1.88" height="359.57"/>
			<rect x="241.57" y="36.21" class="st1" width="2.09" height="359.57"/>
			<rect x="242.83" y="36.21" class="st1" width="2.09" height="359.57"/>
			<rect x="244.29" y="36.21" class="st1" width="1.88" height="359.57"/>
			<rect x="245.54" y="36.21" class="st1" width="1.88" height="359.57"/>
			<rect x="246.8" y="36.21" class="st1" width="2.09" height="359.57"/>
			<rect x="248.26" y="36.21" class="st1" width="1.88" height="359.57"/>
			<rect x="249.51" y="36.21" class="st1" width="1.88" height="359.57"/>
			<rect x="250.77" y="36.21" class="st1" width="2.09" height="359.57"/>
			<rect x="252.02" y="36.21" class="st1" width="2.09" height="359.57"/>
			<rect x="253.48" y="36.21" class="st1" width="1.88" height="359.57"/>
			<rect x="254.74" y="36.21" class="st1" width="1.88" height="359.57"/>
			<rect x="255.99" y="36.21" class="st1" width="2.09" height="359.57"/>
			<rect x="257.45" y="36.21" class="st1" width="1.88" height="359.57"/>
			<rect x="258.71" y="36.21" class="st1" width="1.88" height="359.57"/>
			<rect x="259.96" y="36.21" class="st1" width="2.09" height="359.57"/>
			<rect x="261.22" y="36.21" class="st1" width="2.09" height="359.57"/>
			<rect x="262.68" y="36.21" class="st1" width="1.88" height="359.57"/>
			<rect x="263.93" y="36.21" class="st1" width="1.88" height="359.57"/>
			<rect x="265.19" y="36.21" class="st1" width="2.09" height="359.57"/>
			<rect x="266.44" y="36.21" class="st1" width="2.09" height="359.57"/>
			<rect x="267.9" y="36.21" class="st1" width="1.88" height="359.57"/>
			<rect x="269.16" y="36.21" class="st1" width="1.88" height="359.57"/>
			<rect x="270.41" y="36.21" class="st1" width="2.09" height="359.57"/>
			<rect x="271.87" y="36.21" class="st1" width="1.88" height="359.57"/>
			<rect x="273.13" y="36.21" class="st1" width="1.88" height="359.57"/>
			<rect x="274.38" y="36.21" class="st1" width="2.09" height="359.57"/>
			<rect x="275.63" y="36.21" class="st1" width="2.09" height="359.57"/>
			<rect x="277.1" y="36.21" class="st1" width="1.88" height="359.57"/>
			<rect x="278.35" y="36.21" class="st1" width="1.88" height="359.57"/>
			<rect x="279.6" y="36.21" class="st1" width="2.09" height="359.57"/>
			<rect x="281.07" y="36.21" class="st1" width="1.88" height="359.57"/>
			<rect x="282.32" y="36.21" class="st1" width="1.88" height="359.57"/>
			<rect x="283.57" y="36.21" class="st1" width="2.09" height="359.57"/>
			<rect x="284.83" y="36.21" class="st1" width="2.09" height="359.57"/>
			<rect x="286.29" y="36.21" class="st1" width="1.88" height="359.57"/>
			<rect x="287.54" y="36.21" class="st1" width="1.88" height="359.57"/>
			<rect x="288.8" y="36.21" class="st1" width="2.09" height="359.57"/>
			<rect x="290.05" y="36.21" class="st1" width="2.09" height="359.57"/>
			<rect x="291.51" y="36.21" class="st1" width="1.88" height="359.57"/>
			<rect x="292.77" y="36.21" class="st1" width="1.88" height="359.57"/>
			<rect x="294.02" y="36.21" class="st1" width="2.09" height="359.57"/>
			<rect x="295.49" y="36.21" class="st1" width="1.88" height="359.57"/>
			<rect x="296.74" y="36.21" class="st1" width="1.88" height="359.57"/>
			<rect x="297.99" y="36.21" class="st1" width="2.09" height="359.57"/>
			<rect x="299.25" y="36.21" class="st1" width="2.09" height="359.57"/>
			<rect x="300.71" y="36.21" class="st1" width="1.88" height="359.57"/>
			<rect x="301.96" y="36.21" class="st1" width="1.88" height="359.57"/>
			<rect x="303.22" y="36.21" class="st1" width="2.09" height="359.57"/>
			<rect x="304.68" y="36.21" class="st1" width="1.88" height="359.57"/>
			<rect x="305.93" y="36.21" class="st1" width="1.88" height="359.57"/>
			<rect x="307.19" y="36.21" class="st1" width="2.09" height="359.57"/>
			<rect x="308.44" y="36.21" class="st1" width="2.09" height="359.57"/>
			<rect x="309.9" y="36.21" class="st1" width="1.88" height="359.57"/>
			<rect x="311.16" y="36.21" class="st1" width="1.88" height="359.57"/>
			<rect x="312.41" y="36.21" class="st1" width="2.09" height="359.57"/>
			<rect x="313.87" y="36.21" class="st1" width="1.88" height="359.57"/>
			<rect x="315.13" y="36.21" class="st1" width="1.88" height="359.57"/>
			<rect x="316.38" y="36.21" class="st1" width="1.88" height="359.57"/>
			<rect x="317.64" y="36.21" class="st1" width="2.09" height="359.57"/>
			<rect x="319.1" y="36.21" class="st1" width="1.88" height="359.57"/>
			<rect x="320.35" y="36.21" class="st1" width="1.88" height="359.57"/>
			<rect x="321.61" y="36.21" class="st1" width="2.09" height="359.57"/>
			<rect x="322.86" y="36.21" class="st1" width="2.09" height="359.57"/>
			<rect x="324.32" y="36.21" class="st1" width="1.88" height="359.57"/>
			<rect x="325.58" y="36.21" class="st1" width="1.88" height="359.57"/>
			<rect x="326.83" y="36.21" class="st1" width="2.09" height="359.57"/>
			<rect x="328.29" y="36.21" class="st1" width="1.88" height="359.57"/>
			<rect x="329.55" y="36.21" class="st1" width="1.88" height="359.57"/>
			<rect x="330.8" y="36.21" class="st1" width="2.09" height="359.57"/>
			<rect x="332.05" y="36.21" class="st1" width="2.09" height="359.57"/>
			<rect x="333.52" y="36.21" class="st1" width="1.88" height="359.57"/>
			<rect x="334.77" y="36.21" class="st1" width="1.88" height="359.57"/>
			<rect x="336.02" y="36.21" class="st1" width="2.09" height="359.57"/>
			<rect x="337.49" y="36.21" class="st1" width="1.88" height="359.57"/>
			<rect x="338.74" y="36.21" class="st1" width="1.88" height="359.57"/>
			<rect x="339.99" y="36.21" class="st1" width="1.88" height="359.57"/>
			<rect x="341.25" y="36.21" class="st1" width="2.09" height="359.57"/>
			<rect x="342.71" y="36.21" class="st1" width="1.88" height="359.57"/>
			<rect x="343.96" y="36.21" class="st1" width="1.88" height="359.57"/>
			<rect x="345.22" y="36.21" class="st1" width="2.09" height="359.57"/>
			<rect x="346.47" y="36.21" class="st1" width="2.09" height="359.57"/>
			<rect x="347.93" y="36.21" class="st1" width="1.88" height="359.57"/>
			<rect x="349.19" y="36.21" class="st1" width="1.88" height="359.57"/>
			<rect x="350.44" y="36.21" class="st1" width="2.09" height="359.57"/>
			<rect x="351.91" y="36.21" class="st1" width="1.88" height="359.57"/>
			<rect x="353.16" y="36.21" class="st1" width="1.88" height="359.57"/>
			<rect x="354.41" y="36.21" class="st1" width="2.09" height="359.57"/>
			<rect x="355.67" y="36.21" class="st1" width="2.09" height="359.57"/>
			<rect x="357.13" y="36.21" class="st1" width="1.88" height="359.57"/>
			<rect x="358.38" y="36.21" class="st1" width="1.88" height="359.57"/>
			<rect x="359.64" y="36.21" class="st1" width="2.09" height="359.57"/>
			<rect x="361.1" y="36.21" class="st1" width="1.88" height="359.57"/>
			<rect x="362.35" y="36.21" class="st1" width="1.88" height="359.57"/>
			<rect x="363.61" y="36.21" class="st1" width="2.09" height="359.57"/>
			<rect x="364.86" y="36.21" class="st1" width="2.09" height="359.57"/>
			<rect x="366.32" y="36.21" class="st1" width="1.88" height="359.57"/>
			<rect x="367.58" y="36.21" class="st1" width="1.88" height="359.57"/>
			<rect x="368.83" y="36.21" class="st1" width="2.09" height="359.57"/>
			<rect x="370.09" y="36.21" class="st1" width="2.09" height="359.57"/>
			<rect x="371.55" y="36.21" class="st1" width="1.88" height="359.57"/>
			<rect x="372.8" y="36.21" class="st1" width="1.88" height="359.57"/>
			<rect x="374.06" y="36.21" class="st1" width="2.09" height="359.57"/>
			<rect x="375.52" y="36.21" class="st1" width="1.88" height="359.57"/>
			<rect x="376.77" y="36.21" class="st1" width="1.88" height="359.57"/>
			<rect x="378.03" y="36.21" class="st1" width="2.09" height="359.57"/>
			<rect x="379.28" y="36.21" class="st1" width="2.09" height="359.57"/>
			<rect x="380.74" y="36.21" class="st1" width="1.88" height="359.57"/>
			<rect x="382" y="36.21" class="st1" width="1.88" height="359.57"/>
			<rect x="383.25" y="36.21" class="st1" width="2.09" height="359.57"/>
			<rect x="384.71" y="36.21" class="st1" width="1.88" height="359.57"/>
			<rect x="385.97" y="36.21" class="st1" width="1.88" height="359.57"/>
			<rect x="387.22" y="36.21" class="st1" width="2.09" height="359.57"/>
			<rect x="388.47" y="36.21" class="st1" width="2.09" height="359.57"/>
			<rect x="389.94" y="36.21" class="st1" width="1.88" height="359.57"/>
			<rect x="391.19" y="36.21" class="st1" width="1.88" height="359.57"/>
			<rect x="392.44" y="36.21" class="st1" width="2.09" height="359.57"/>
			<rect x="393.7" y="36.21" class="st1" width="2.09" height="359.57"/>
			<rect x="395.16" y="36.21" class="st1" width="1.88" height="359.57"/>
			<rect x="396.41" y="36.21" class="st1" width="1.88" height="359.57"/>
			<rect x="397.67" y="36.21" class="st1" width="2.09" height="359.57"/>
			<rect x="399.13" y="36.21" class="st1" width="1.88" height="359.57"/>
			<rect x="400.38" y="36.21" class="st1" width="1.88" height="359.57"/>
			<rect x="401.64" y="36.21" class="st1" width="2.09" height="359.57"/>
			<rect x="402.89" y="36.21" class="st1" width="2.09" height="359.57"/>
			<rect x="404.36" y="36.21" class="st1" width="1.88" height="359.57"/>
			<rect x="405.61" y="36.21" class="st1" width="1.88" height="359.57"/>
			<rect x="406.86" y="36.21" class="st1" width="2.09" height="359.57"/>
			<rect x="408.33" y="36.21" class="st1" width="1.88" height="359.57"/>
			<rect x="409.58" y="36.21" class="st1" width="1.88" height="359.57"/>
			<rect x="410.83" y="36.21" class="st1" width="2.09" height="359.57"/>
			<rect x="412.09" y="36.21" class="st1" width="2.09" height="359.57"/>
			<rect x="413.55" y="36.21" class="st1" width="1.88" height="359.57"/>
			<rect x="414.8" y="36.21" class="st1" width="1.88" height="359.57"/>
			<rect x="416.06" y="36.21" class="st1" width="2.09" height="359.57"/>
			<rect x="417.52" y="36.21" class="st1" width="1.88" height="359.57"/>
			<rect x="418.77" y="36.21" class="st1" width="1.88" height="359.57"/>
			<rect x="420.03" y="36.21" class="st1" width="1.88" height="359.57"/>
			<rect x="421.28" y="36.21" class="st1" width="2.09" height="359.57"/>
			<rect x="422.74" y="36.21" class="st1" width="1.88" height="359.57"/>
			<rect x="424" y="36.21" class="st1" width="1.88" height="359.57"/>
			<rect x="425.25" y="36.21" class="st1" width="2.09" height="359.57"/>
			<rect x="426.51" y="36.21" class="st1" width="2.09" height="359.57"/>
			<rect x="427.97" y="36.21" class="st1" width="1.88" height="359.57"/>
			<rect x="429.22" y="36.21" class="st1" width="1.88" height="359.57"/>
			<rect x="430.48" y="36.21" class="st1" width="2.09" height="359.57"/>
			<rect x="431.94" y="36.21" class="st1" width="1.88" height="359.57"/>
			<rect x="433.19" y="36.21" class="st1" width="1.88" height="359.57"/>
			<rect x="434.45" y="36.21" class="st1" width="2.09" height="359.57"/>
			<rect x="435.7" y="36.21" class="st1" width="2.09" height="359.57"/>
			<rect x="437.16" y="36.21" class="st1" width="1.88" height="359.57"/>
			<rect x="438.42" y="36.21" class="st1" width="1.88" height="359.57"/>
			<rect x="439.67" y="36.21" class="st1" width="2.09" height="359.57"/>
			<rect x="441.13" y="36.21" class="st1" width="1.88" height="359.57"/>
			<rect x="442.39" y="36.21" class="st1" width="1.88" height="359.57"/>
			<rect x="443.64" y="36.21" class="st1" width="1.88" height="359.57"/>
			<rect x="444.89" y="36.21" class="st1" width="2.09" height="359.57"/>
			<rect x="446.36" y="36.21" class="st1" width="1.88" height="359.57"/>
			<rect x="447.61" y="36.21" class="st1" width="1.88" height="359.57"/>
			<rect x="448.86" y="36.21" class="st1" width="2.09" height="359.57"/>
			<rect x="450.12" y="36.21" class="st1" width="2.09" height="359.57"/>
			<rect x="451.58" y="36.21" class="st1" width="1.88" height="359.57"/>
			<rect x="452.83" y="36.21" class="st1" width="1.88" height="359.57"/>
			<rect x="454.09" y="36.21" class="st1" width="2.09" height="359.57"/>
			<rect x="455.55" y="36.21" class="st1" width="1.88" height="359.57"/>
			<rect x="456.8" y="36.21" class="st1" width="1.88" height="359.57"/>
			<rect x="458.06" y="36.21" class="st1" width="2.09" height="359.57"/>
			<rect x="459.31" y="36.21" class="st1" width="2.09" height="359.57"/>
			<rect x="460.78" y="36.21" class="st1" width="1.88" height="359.57"/>
			<rect x="462.03" y="36.21" class="st1" width="1.88" height="359.57"/>
			<rect x="463.28" y="36.21" class="st1" width="2.09" height="359.57"/>
			<rect x="464.75" y="36.21" class="st1" width="1.88" height="359.57"/>
			<rect x="466" y="36.21" class="st1" width="1.88" height="359.57"/>
			<rect x="467.25" y="36.21" class="st1" width="2.09" height="359.57"/>
			<rect x="468.51" y="36.21" class="st1" width="2.09" height="359.57"/>
			<rect x="469.97" y="36.21" class="st1" width="1.88" height="359.57"/>
			<rect x="471.22" y="36.21" class="st1" width="1.88" height="359.57"/>
			<rect x="472.48" y="36.21" class="st1" width="2.09" height="359.57"/>
			<rect x="473.73" y="36.21" class="st1" width="2.09" height="359.57"/>
			<rect x="475.19" y="36.21" class="st1" width="1.88" height="359.57"/>
			<rect x="476.45" y="36.21" class="st1" width="1.88" height="359.57"/>
			<rect x="477.7" y="36.21" class="st1" width="2.09" height="359.57"/>
			<rect x="479.16" y="36.21" class="st1" width="1.88" height="359.57"/>
			<rect x="480.42" y="36.21" class="st1" width="1.88" height="359.57"/>
			<rect x="481.67" y="36.21" class="st1" width="2.09" height="359.57"/>
			<rect x="482.93" y="36.21" class="st1" width="2.09" height="359.57"/>
			<rect x="484.39" y="36.21" class="st1" width="1.88" height="359.57"/>
			<rect x="485.64" y="36.21" class="st1" width="1.88" height="359.57"/>
			<rect x="486.9" y="36.21" class="st1" width="2.09" height="359.57"/>
			<rect x="488.36" y="36.21" class="st1" width="1.88" height="359.57"/>
			<rect x="489.61" y="36.21" class="st1" width="1.88" height="359.57"/>
			<rect x="490.87" y="36.21" class="st1" width="2.09" height="359.57"/>
			<rect x="492.12" y="36.21" class="st1" width="2.09" height="359.57"/>
			<rect x="493.58" y="36.21" class="st1" width="1.88" height="359.57"/>
			<rect x="494.84" y="36.21" class="st1" width="1.88" height="359.57"/>
			<rect x="496.09" y="36.21" class="st1" width="2.09" height="359.57"/>
			<rect x="497.55" y="36.21" class="st1" width="1.88" height="359.57"/>
			<rect x="498.81" y="36.21" class="st1" width="1.88" height="359.57"/>
			<rect x="500.06" y="36.21" class="st1" width="1.88" height="359.57"/>
			<rect x="501.31" y="36.21" class="st1" width="2.09" height="359.57"/>
			<rect x="502.78" y="36.21" class="st1" width="1.88" height="359.57"/>
			<rect x="504.03" y="36.21" class="st1" width="1.88" height="359.57"/>
			<rect x="505.28" y="36.21" class="st1" width="2.09" height="359.57"/>
			<rect x="506.54" y="36.21" class="st1" width="2.09" height="359.57"/>
			<rect x="508" y="36.21" class="st1" width="1.88" height="359.57"/>
			<rect x="509.25" y="36.21" class="st1" width="1.88" height="359.57"/>
			<rect x="510.51" y="36.21" class="st1" width="2.09" height="359.57"/>
			<rect x="511.97" y="36.21" class="st1" width="1.88" height="359.57"/>
			<rect x="513.23" y="36.21" class="st1" width="1.88" height="359.57"/>
			<rect x="514.48" y="36.21" class="st1" width="2.09" height="359.57"/>
			<rect x="515.73" y="36.21" class="st1" width="2.09" height="359.57"/>
			<rect x="517.2" y="36.21" class="st1" width="1.88" height="359.57"/>
			<rect x="518.45" y="36.21" class="st1" width="1.88" height="359.57"/>
			<rect x="519.7" y="36.21" class="st1" width="2.09" height="359.57"/>
			<rect x="521.17" y="36.21" class="st1" width="1.88" height="359.57"/>
			<rect x="522.42" y="36.21" class="st1" width="1.88" height="359.57"/>
			<rect x="523.67" y="36.21" class="st1" width="1.88" height="359.57"/>
			<rect x="524.93" y="36.21" class="st1" width="2.09" height="359.57"/>
			<rect x="526.39" y="36.21" class="st1" width="1.88" height="359.57"/>
			<rect x="527.64" y="36.21" class="st1" width="1.88" height="359.57"/>
			<rect x="528.9" y="36.21" class="st1" width="2.09" height="359.57"/>
			<rect x="530.15" y="36.21" class="st1" width="2.09" height="359.57"/>
			<rect x="531.61" y="36.21" class="st1" width="1.88" height="359.57"/>
			<rect x="532.87" y="36.21" class="st1" width="1.88" height="359.57"/>
			<rect x="534.12" y="36.21" class="st1" width="2.09" height="359.57"/>
			<rect x="535.58" y="36.21" class="st1" width="1.88" height="359.57"/>
			<rect x="536.84" y="36.21" class="st1" width="1.88" height="359.57"/>
			<rect x="538.09" y="36.21" class="st1" width="2.09" height="359.57"/>
			<rect x="539.35" y="36.21" class="st1" width="2.09" height="359.57"/>
			<rect x="540.81" y="36.21" class="st1" width="1.88" height="359.57"/>
			<rect x="542.06" y="36.21" class="st1" width="1.88" height="359.57"/>
			<rect x="543.32" y="36.21" class="st1" width="2.09" height="359.57"/>
			<rect x="544.78" y="36.21" class="st1" width="1.88" height="359.57"/>
			<rect x="546.03" y="36.21" class="st1" width="1.88" height="359.57"/>
			<rect x="547.29" y="36.21" class="st1" width="2.09" height="359.57"/>
			<rect x="548.54" y="36.21" class="st1" width="2.09" height="359.57"/>
			<rect x="550" y="36.21" class="st1" width="1.88" height="359.57"/>
			<rect x="551.26" y="36.21" class="st1" width="1.88" height="359.57"/>
			<rect x="552.51" y="36.21" class="st1" width="2.09" height="359.57"/>
			<rect x="553.76" y="36.21" class="st1" width="2.09" height="359.57"/>
			<rect x="555.23" y="36.21" class="st1" width="1.88" height="359.57"/>
			<rect x="556.48" y="36.21" class="st1" width="1.88" height="359.57"/>
			<rect x="557.73" y="36.21" class="st1" width="2.09" height="359.57"/>
			<rect x="559.2" y="36.21" class="st1" width="1.88" height="359.57"/>
			<rect x="560.45" y="36.21" class="st1" width="1.88" height="359.57"/>
			<rect x="561.7" y="36.21" class="st1" width="2.09" height="359.57"/>
			<rect x="562.96" y="36.21" class="st1" width="4.6" height="359.57"/>
		</g>
	</g>
	<g>
		<defs>
			<path id="SVGID_3_" d="M524.85,425.82c0.56-0.19,1.13-0.38,1.69-0.38c6.59,0.75,61.92,0.75,66.81-0.38
				c-0.94,1.69-1.13,2.63-1.69,2.82c-1.32,0.56-2.63,0.94-3.95,1.13c-7.15,1.32-11.1,6.02-12.42,12.61
				c-1.13,6.77-2.45,13.55-2.07,20.51c0.19,8.47-0.19,16.94-0.19,25.4c0,8.66-0.56,17.5,0.38,26.16c1.13,11.1,0.19,22.2,0.75,33.31
				c0.19,5.65,0.56,11.29,0.56,16.94c0.19,2.82-0.38,5.65-0.38,8.47c0,3.39,0,6.77,0.38,10.16c0.38,2.45,1.32,4.7,1.88,6.96
				c1.69,0.75,3.2,1.69,4.71,2.07c1.32,0.38,2.82,0.56,4.14,0.38c3.2-0.19,6.4-0.75,9.6-0.94c5.83-0.38,9.41-3.39,10.92-8.84
				c0.94-3.01,1.51-6.21,1.69-9.41c0.19-5.08,0-10.16,0-15.24c0-9.41,0-19.01,0-28.41c0-3.39,0-6.59,0-9.79
				c0-9.97-0.19-19.76-0.19-29.73c0.19-16.18-0.38-32.37,0.38-48.55c0-1.88-0.19-3.58,0-5.46c0-3.01,0.19-6.02,0.38-9.41
				c1.51-0.19,2.63-0.38,3.76-0.38c13.74,0.19,27.48,0.19,41.22,0.56c5.65,0,11.29,0.19,16.94,0.94c3.76,0.38,7.34,1.88,11.1,2.82
				c12.05,3.2,20.51,10.73,26.91,21.08c3.76,6.21,5.27,12.98,5.46,20.13c0,8.66-1.69,16.94-6.02,24.46
				c-6.21,9.97-14.87,16.75-26.35,19.95c-8.47,2.45-17.13,2.07-25.97,2.45c-2.45,0-5.27,0-7.72,0c-3.39,0.38-5.27,2.07-5.83,5.27
				c-0.19,0.94-0.19,2.07-0.19,3.01c-0.19,9.97-0.19,19.76-0.19,29.73c0,2.07,0.19,3.95,0.38,6.02c0.19,1.32,0.56,2.82,0.19,4.14
				c-1.13,4.7-0.19,9.41,0.19,13.93c0.56,5.65,4.89,9.97,10.54,10.91c2.26,0.38,4.52,0.19,6.59,0.38c0.56,0.19,0.94,0.75,1.51,0.94
				c-0.56,0.56-0.94,1.32-1.51,1.69c-0.94,0.19-2.07,0.19-3.01,0.19c-19.95,0-40.09,0.56-60.04-0.38c-1.51,0-2.82-0.38-4.33-0.19
				c-9.79,1.32-19.76,0.56-29.74,0.56c-2.82,0-5.65,0-8.47,0s-4.71-1.13-6.4-3.76c-4.89-8.47-9.79-16.94-14.3-25.78
				c-3.2-6.4-6.59-12.61-9.97-18.82c-2.26-4.33-4.33-8.66-6.59-12.8c-5.83-11.1-11.67-22.2-17.5-33.31
				c-4.14-7.9-8.28-15.62-12.42-23.52c-4.14-7.34-8.28-14.87-12.23-22.2c-1.88-3.2-3.39-6.4-5.08-9.79
				c-0.75-1.69-1.69-3.01-3.95-3.95c-0.19,1.13-0.56,2.07-0.56,3.01c0,17.31,0,34.81,0,52.12c0,15.43-0.19,30.86-0.38,46.1
				c0,9.41,0.19,18.63,0.19,28.04c0,4.14,1.51,7.9,2.63,11.86c0.19,0.56,0.75,1.32,1.32,1.88c3.76,3.39,7.53,6.77,12.99,6.96
				c1.69,0,3.39,0.56,5.08,0.75c0.38,1.51-0.38,2.07-1.13,2.07c-4.71,0.19-9.41,0.56-13.93,0.56c-16.37-0.19-32.75-0.38-49.12-0.38
				c-3.39,0-6.59,0.38-9.79,0.56c-0.19,0-0.38,0.19-0.56,0.19c-6.78,0-13.74-0.19-20.51-0.19c-1.13,0-2.07-0.38-3.01-0.38
				c-11.1,0.19-22.21,0.38-33.31,0.19c-4.14,0-8.09-0.75-12.05-1.32c-0.19,0-0.38-0.38-0.94-0.94c3.39-0.75,6.78-1.51,9.98-2.45
				c5.08-1.32,7.72-5.65,6.21-10.54c-1.13-3.76-2.63-7.34-3.95-10.91c-3.2-9.03-6.59-18.25-9.79-27.29
				c-2.26-5.83-4.71-11.67-6.78-17.5c-2.63-6.96-5.27-14.11-7.9-21.08c-3.01-7.9-6.21-15.62-9.41-23.52
				c-0.19-0.56-0.56-1.13-0.94-1.51c-0.56-0.75-2.26-0.56-2.63,0.38c-3.95,11.1-8.85,21.64-12.99,32.55
				c-3.58,9.6-7.53,19.19-11.1,28.79c-3.01,8.84-6.96,17.31-9.98,25.97c-0.94,3.01-2.07,6.21-2.26,9.41
				c-0.75,7.53,2.07,13.17,10.73,15.05c1.88,0.38,3.95,0.38,6.02,0.56c0.94,0.19,1.88,0.38,2.26,2.07
				c-0.94,0.19-1.69,0.56-2.63,0.56c-16,0-32,0.56-47.99-0.56c-8.47-0.56-16.94-0.38-25.41-0.56c-0.94-0.19-2.07-0.19-3.01-0.19
				c-4.33,0.56-6.59-1.32-8.47-5.08c-5.27-10.73-11.1-21.08-16.75-31.61c-2.63-4.89-5.27-9.97-7.9-14.87
				c-6.78-12.8-13.55-25.4-20.14-38.01c-5.83-10.73-11.48-21.45-17.13-31.99c-5.27-9.97-10.73-19.95-16-29.92
				c-0.75-1.13-1.32-1.88-3.39-1.69c-0.19,0.75-0.56,1.69-0.56,2.45c-0.19,15.99-0.19,31.99-0.19,47.98c0,14.87,0,29.54,0,44.41
				c0,9.22,0.19,18.63,0.38,27.85c0,2.07-0.19,3.95-0.19,6.02c0,5.46,1.51,10.35,4.71,14.68c0.94,1.32,2.07,2.45,3.76,2.82
				c3.01,0.75,5.83,1.51,8.85,2.45c1.32,0.19,2.63,0.56,4.89,1.13c-1.51,0.94-2.07,1.32-2.63,1.51s-1.32,0.38-1.88,0.38
				c-13.55-0.56-26.91,1.32-40.46-0.19c-6.59-0.75-13.36-0.38-20.14-0.56c-1.32,0-2.82,0.56-3.95-1.32
				c2.82-0.75,5.46-1.32,8.09-2.07c3.58-1.13,6.4-3.2,8.28-6.59c2.45-4.33,4.14-8.66,3.95-13.74c-0.38-7.15-0.38-14.11-0.38-21.26
				c0-3.39,0.19-6.77,0.19-10.35c-0.19-29.36-0.56-58.52-0.56-87.88c0-5.46-1.88-9.79-4.89-14.11c-2.63-3.76-6.02-6.96-10.54-8.47
				c-2.07-0.56-3.76-1.32-5.65-2.07c0-1.69,0.56-2.63,2.07-2.45c5.46,0.38,10.92,0.94,16.37,1.13c5.83,0.38,11.67,0.38,17.5,0.56
				c4.89,0,9.79,0,14.68,0c2.45,4.14,5.08,8.09,7.34,12.23c4.52,8.84,9.41,17.69,14.3,26.53c5.46,10.16,10.54,20.51,16,30.67
				c6.4,12.23,12.99,24.46,19.57,36.88c3.76,6.77,7.34,13.93,11.29,20.7c2.07,3.58,4.14,7.34,5.65,11.29
				c0.56,1.69,0.56,1.51,3.39,3.01c1.51-1.13,1.69-2.63,1.69-4.33c-1.51-28.6-0.19-57.02-0.94-85.62c0-6.02,0-12.04,0-18.25
				c0-0.38,0-0.75,0-1.13c-0.56-4.52-0.75-9.22-1.51-13.74c-0.94-7.15-5.46-12.04-12.61-13.93c-1.51-0.38-3.01-0.75-4.52-1.13
				c-0.56-0.19-1.13-0.75-1.51-1.13c0.19-1.51,1.51-1.13,2.26-1.13c20.51,0,40.84,0.38,61.36,0.56c0.75,0,1.51,0.19,2.26,0.19
				c0.75,1.51,0,2.07-0.94,2.45c-1.32,0.56-2.82,0.75-4.14,0.94c-6.59,1.32-10.35,5.65-11.29,11.86
				c-0.94,8.28-2.45,16.37-2.07,24.84c0.56,14.11,0.19,28.23,0.38,42.34c0,2.82,0.38,5.65,0.75,8.47c0,1.13,0.19,2.45,0.19,3.58
				c0,19.19,0.19,38.39,0.19,57.58c0,1.13,0.19,2.07,0,3.2c-0.38,4.33,1.88,7.34,4.89,9.97c1.69,1.32,4.33,2.26,6.59,2.26
				c6.4-0.19,11.86-3.01,15.43-8.28c3.2-4.7,6.21-9.41,7.9-15.05c0-0.19,0-0.38,0.19-0.56c2.82-6.59,5.83-13.17,8.66-19.76
				c2.45-6.02,4.52-12.04,6.96-18.06c1.69-4.14,3.58-8.09,5.27-12.23c0.38-0.94,0.75-1.88,1.13-2.82
				c5.08-14.87,11.48-29.36,17.13-44.03c5.27-13.36,11.1-26.34,16.37-39.71c0.56-1.32,1.51-2.26,2.63-3.76
				c2.07,1.51,3.01,3.76,3.58,6.02c0.94,3.95,2.63,7.53,4.71,11.1c1.13,2.07,1.69,4.52,2.63,6.77c4.89,12.04,9.22,24.46,14.68,36.32
				c3.01,7.15,5.65,14.3,8.28,21.45c3.76,9.41,7.53,18.82,11.1,28.23c1.51,3.58,2.63,7.15,4.14,10.73
				c2.45,5.83,4.89,11.48,7.53,17.12c2.26,5.08,4.71,10.16,7.15,15.24c1.69,3.58,3.2,6.96,6.4,9.41c3.95,3.01,7.9,4.7,12.99,3.39
				c1.69-0.38,3.58-0.75,5.27-0.94c9.22-0.94,15.06-7.9,15.81-16.37c0.19-4.14,0-8.47,0-12.8c0.19-12.04,0.19-24.27,0.19-36.32
				c0-12.42,0.19-24.65,0.19-37.07c0-8.28-0.19-16.56-0.38-24.84c0-5.27-0.19-10.54-0.19-15.81c0-1.88-0.38-3.58-1.32-5.08
				c-1.13-1.51-1.88-3.2-2.82-4.7c-2.82-4.52-6.78-7.9-12.05-9.6c-1.69-0.56-3.39-1.13-4.89-1.51c-0.19-1.69,0.19-2.63,1.32-2.63
				c6.4,0,45.55,3.58,49.88,1.88c3.76,4.14,5.27,8.84,7.72,12.98c1.51,2.45,3.01,4.89,4.33,7.34c2.26,4.14,4.71,8.47,6.96,12.8
				c6.96,14.49,14.87,28.6,22.77,42.72c4.71,8.28,8.85,17.12,13.36,25.59c3.95,7.53,7.9,15.05,12.42,22.2
				c2.45,4.33,4.33,9.03,6.59,13.55c0.38,0.56,0.75,1.32,1.32,1.88c0.38,0.38,1.13,0.38,1.69,0.38c0.38-0.19,0.94-0.75,1.13-1.32
				c0.19-0.38,0.19-1.13,0.19-1.69c-0.94-11.1-0.38-22.2-0.19-33.31c0.19-9.22-0.19-18.63-0.38-27.85c0-15.24,0-30.3,0-45.54
				c0-3.01-0.19-6.02-0.38-9.03c-0.75-10.73-6.78-17.12-17.32-18.44c-0.75-0.19-1.51-0.19-2.26-0.38
				C524.85,426.38,524.85,426.2,524.85,425.82L524.85,425.82z M641.73,472.3L641.73,472.3L641.73,472.3c0,3.95,0,7.72,0,11.48
				c0,4.14,0,8.09-0.19,12.23c0,2.82-0.19,5.65-0.19,8.47c0.19,4.14,2.07,6.4,6.21,6.59c5.65,0.19,10.73-1.51,15.62-3.95
				c5.27-2.82,8.28-7.53,10.73-12.8c3.39-7.34,2.82-15.24,3.76-22.96c0.19-2.45-0.75-4.89-0.94-7.34
				c-0.38-3.95-1.51-7.72-2.82-11.67c-2.45-8.28-8.28-13.17-15.81-16.18c-3.76-1.32-7.9-1.32-12.05-1.32
				c-2.45-0.19-3.95,1.69-4.14,4.14c-0.19,2.07-0.19,4.14-0.19,6.02C641.73,454.23,641.73,463.27,641.73,472.3L641.73,472.3z"/>
		</defs>
		<use xlink:href="#SVGID_3_"  style="overflow:visible;fill:#FFFFFF;"/>
		<clipPath id="SVGID_4_">
			<use xlink:href="#SVGID_3_"  style="overflow:visible;"/>
		</clipPath>
		<rect x="81.81" y="418.1" class="st2" width="1.32" height="177.07"/>
		<rect x="81.81" y="418.1" class="st2" width="3.76" height="177.07"/>
		<rect x="84.26" y="418.1" class="st2" width="3.76" height="177.07"/>
		<rect x="86.7" y="418.1" class="st2" width="3.76" height="177.07"/>
		<rect x="89.15" y="418.1" class="st2" width="3.76" height="177.07"/>
		<rect x="91.79" y="418.1" class="st2" width="3.58" height="177.07"/>
		<rect x="94.23" y="418.1" class="st2" width="3.58" height="177.07"/>
		<rect x="96.68" y="418.1" class="st2" width="3.58" height="177.07"/>
		<rect x="99.13" y="418.1" class="st2" width="3.76" height="177.07"/>
		<rect x="101.57" y="418.1" class="st2" width="3.76" height="177.07"/>
		<rect x="104.02" y="418.1" class="st2" width="3.76" height="177.07"/>
		<rect x="106.47" y="418.1" class="st2" width="3.76" height="177.07"/>
		<rect x="108.91" y="418.1" class="st2" width="3.76" height="177.07"/>
		<rect x="111.36" y="418.1" class="st2" width="3.76" height="177.07"/>
		<rect x="113.99" y="418.1" class="st2" width="3.58" height="177.07"/>
		<rect x="116.44" y="418.1" class="st2" width="3.58" height="177.07"/>
		<rect x="118.89" y="418.1" class="st2" width="3.58" height="177.07"/>
		<rect x="121.33" y="418.1" class="st2" width="3.76" height="177.07"/>
		<rect x="123.78" y="418.1" class="st2" width="3.76" height="177.07"/>
		<rect x="126.23" y="418.1" class="st2" width="3.76" height="177.07"/>
		<rect x="128.67" y="418.1" class="st2" width="3.76" height="177.07"/>
		<rect x="131.12" y="418.1" class="st2" width="3.76" height="177.07"/>
		<rect x="133.57" y="418.1" class="st2" width="3.76" height="177.07"/>
		<rect x="136.2" y="418.1" class="st2" width="3.58" height="177.07"/>
		<rect x="138.65" y="418.1" class="st2" width="3.58" height="177.07"/>
		<rect x="141.1" y="418.1" class="st2" width="3.58" height="177.07"/>
		<rect x="143.54" y="418.1" class="st2" width="3.76" height="177.07"/>
		<rect x="145.99" y="418.1" class="st2" width="3.76" height="177.07"/>
		<rect x="148.44" y="418.1" class="st2" width="3.76" height="177.07"/>
		<rect x="150.88" y="418.1" class="st2" width="3.76" height="177.07"/>
		<rect x="153.33" y="418.1" class="st2" width="3.76" height="177.07"/>
		<rect x="155.78" y="418.1" class="st2" width="3.76" height="177.07"/>
		<rect x="158.41" y="418.1" class="st2" width="3.58" height="177.07"/>
		<rect x="160.86" y="418.1" class="st2" width="3.58" height="177.07"/>
		<rect x="163.3" y="418.1" class="st2" width="3.58" height="177.07"/>
		<rect x="165.75" y="418.1" class="st2" width="3.76" height="177.07"/>
		<rect x="168.2" y="418.1" class="st2" width="3.76" height="177.07"/>
		<rect x="170.64" y="418.1" class="st2" width="3.76" height="177.07"/>
		<rect x="173.09" y="418.1" class="st2" width="3.76" height="177.07"/>
		<rect x="175.54" y="418.1" class="st2" width="3.76" height="177.07"/>
		<rect x="177.98" y="418.1" class="st2" width="3.76" height="177.07"/>
		<rect x="180.62" y="418.1" class="st2" width="3.58" height="177.07"/>
		<rect x="183.07" y="418.1" class="st2" width="3.58" height="177.07"/>
		<rect x="185.51" y="418.1" class="st2" width="3.58" height="177.07"/>
		<rect x="187.96" y="418.1" class="st2" width="3.76" height="177.07"/>
		<rect x="190.41" y="418.1" class="st2" width="3.76" height="177.07"/>
		<rect x="192.85" y="418.1" class="st2" width="3.76" height="177.07"/>
		<rect x="195.3" y="418.1" class="st2" width="3.76" height="177.07"/>
		<rect x="197.75" y="418.1" class="st2" width="3.76" height="177.07"/>
		<rect x="200.19" y="418.1" class="st2" width="3.76" height="177.07"/>
		<rect x="202.83" y="418.1" class="st2" width="3.58" height="177.07"/>
		<rect x="205.27" y="418.1" class="st2" width="3.58" height="177.07"/>
		<rect x="207.72" y="418.1" class="st2" width="3.58" height="177.07"/>
		<rect x="210.17" y="418.1" class="st2" width="3.76" height="177.07"/>
		<rect x="212.61" y="418.1" class="st2" width="3.76" height="177.07"/>
		<rect x="215.06" y="418.1" class="st2" width="3.76" height="177.07"/>
		<rect x="217.51" y="418.1" class="st2" width="3.76" height="177.07"/>
		<rect x="219.95" y="418.1" class="st2" width="3.76" height="177.07"/>
		<rect x="222.4" y="418.1" class="st2" width="3.76" height="177.07"/>
		<rect x="225.04" y="418.1" class="st2" width="3.58" height="177.07"/>
		<rect x="227.48" y="418.1" class="st2" width="3.58" height="177.07"/>
		<rect x="229.93" y="418.1" class="st2" width="3.58" height="177.07"/>
		<rect x="232.38" y="418.1" class="st2" width="3.76" height="177.07"/>
		<rect x="234.82" y="418.1" class="st2" width="3.76" height="177.07"/>
		<rect x="237.27" y="418.1" class="st2" width="3.76" height="177.07"/>
		<rect x="239.72" y="418.1" class="st2" width="3.76" height="177.07"/>
		<rect x="242.16" y="418.1" class="st2" width="3.76" height="177.07"/>
		<rect x="244.61" y="418.1" class="st2" width="3.76" height="177.07"/>
		<rect x="247.24" y="418.1" class="st2" width="3.58" height="177.07"/>
		<rect x="249.69" y="418.1" class="st2" width="3.58" height="177.07"/>
		<rect x="252.14" y="418.1" class="st2" width="3.58" height="177.07"/>
		<rect x="254.58" y="418.1" class="st2" width="3.76" height="177.07"/>
		<rect x="257.03" y="418.1" class="st2" width="3.76" height="177.07"/>
		<rect x="259.48" y="418.1" class="st2" width="3.76" height="177.07"/>
		<rect x="261.93" y="418.1" class="st2" width="3.76" height="177.07"/>
		<rect x="264.37" y="418.1" class="st2" width="3.76" height="177.07"/>
		<rect x="266.82" y="418.1" class="st2" width="3.76" height="177.07"/>
		<rect x="269.45" y="418.1" class="st2" width="3.58" height="177.07"/>
		<rect x="271.9" y="418.1" class="st2" width="3.58" height="177.07"/>
		<rect x="274.35" y="418.1" class="st2" width="3.58" height="177.07"/>
		<rect x="276.79" y="418.1" class="st2" width="3.76" height="177.07"/>
		<rect x="279.24" y="418.1" class="st2" width="3.76" height="177.07"/>
		<rect x="281.69" y="418.1" class="st2" width="3.76" height="177.07"/>
		<rect x="284.13" y="418.1" class="st2" width="3.76" height="177.07"/>
		<rect x="286.58" y="418.1" class="st2" width="3.76" height="177.07"/>
		<rect x="289.03" y="418.1" class="st2" width="3.76" height="177.07"/>
		<rect x="291.66" y="418.1" class="st2" width="3.58" height="177.07"/>
		<rect x="294.11" y="418.1" class="st2" width="3.58" height="177.07"/>
		<rect x="296.56" y="418.1" class="st2" width="3.58" height="177.07"/>
		<rect x="299" y="418.1" class="st2" width="3.76" height="177.07"/>
		<rect x="301.45" y="418.1" class="st2" width="3.76" height="177.07"/>
		<rect x="303.9" y="418.1" class="st2" width="3.76" height="177.07"/>
		<rect x="306.34" y="418.1" class="st2" width="3.76" height="177.07"/>
		<rect x="308.79" y="418.1" class="st2" width="3.76" height="177.07"/>
		<rect x="311.24" y="418.1" class="st2" width="3.76" height="177.07"/>
		<rect x="313.87" y="418.1" class="st2" width="3.58" height="177.07"/>
		<rect x="316.32" y="418.1" class="st2" width="3.58" height="177.07"/>
		<rect x="318.76" y="418.1" class="st2" width="3.58" height="177.07"/>
		<rect x="321.21" y="418.1" class="st2" width="3.76" height="177.07"/>
		<rect x="323.66" y="418.1" class="st2" width="3.76" height="177.07"/>
		<rect x="326.1" y="418.1" class="st2" width="3.76" height="177.07"/>
		<rect x="328.55" y="418.1" class="st2" width="3.76" height="177.07"/>
		<rect x="331" y="418.1" class="st2" width="3.76" height="177.07"/>
		<rect x="333.44" y="418.1" class="st2" width="3.76" height="177.07"/>
		<rect x="336.08" y="418.1" class="st2" width="3.58" height="177.07"/>
		<rect x="338.53" y="418.1" class="st2" width="3.58" height="177.07"/>
		<rect x="340.97" y="418.1" class="st2" width="3.58" height="177.07"/>
		<rect x="343.42" y="418.1" class="st2" width="3.76" height="177.07"/>
		<rect x="345.87" y="418.1" class="st2" width="3.76" height="177.07"/>
		<rect x="348.31" y="418.1" class="st2" width="3.76" height="177.07"/>
		<rect x="350.76" y="418.1" class="st2" width="3.76" height="177.07"/>
		<rect x="353.21" y="418.1" class="st2" width="3.76" height="177.07"/>
		<rect x="355.65" y="418.1" class="st2" width="3.76" height="177.07"/>
		<rect x="358.29" y="418.1" class="st2" width="3.58" height="177.07"/>
		<rect x="360.73" y="418.1" class="st2" width="3.58" height="177.07"/>
		<rect x="363.18" y="418.1" class="st2" width="3.58" height="177.07"/>
		<rect x="365.63" y="418.1" class="st2" width="3.76" height="177.07"/>
		<rect x="368.07" y="418.1" class="st2" width="3.76" height="177.07"/>
		<rect x="370.52" y="418.1" class="st2" width="3.76" height="177.07"/>
		<rect x="372.97" y="418.1" class="st2" width="3.76" height="177.07"/>
		<rect x="375.41" y="418.1" class="st2" width="3.76" height="177.07"/>
		<rect x="377.86" y="418.1" class="st2" width="3.76" height="177.07"/>
		<rect x="380.5" y="418.1" class="st2" width="3.58" height="177.07"/>
		<rect x="382.94" y="418.1" class="st2" width="3.58" height="177.07"/>
		<rect x="385.39" y="418.1" class="st2" width="3.58" height="177.07"/>
		<rect x="387.84" y="418.1" class="st2" width="3.76" height="177.07"/>
		<rect x="390.28" y="418.1" class="st2" width="3.76" height="177.07"/>
		<rect x="392.73" y="418.1" class="st2" width="3.76" height="177.07"/>
		<rect x="395.18" y="418.1" class="st2" width="3.76" height="177.07"/>
		<rect x="397.62" y="418.1" class="st2" width="3.76" height="177.07"/>
		<rect x="400.07" y="418.1" class="st2" width="3.76" height="177.07"/>
		<rect x="402.7" y="418.1" class="st2" width="3.58" height="177.07"/>
		<rect x="405.15" y="418.1" class="st2" width="3.58" height="177.07"/>
		<rect x="407.6" y="418.1" class="st2" width="3.58" height="177.07"/>
		<rect x="410.04" y="418.1" class="st2" width="3.76" height="177.07"/>
		<rect x="412.49" y="418.1" class="st2" width="3.76" height="177.07"/>
		<rect x="414.94" y="418.1" class="st2" width="3.76" height="177.07"/>
		<rect x="417.38" y="418.1" class="st2" width="3.76" height="177.07"/>
		<rect x="419.83" y="418.1" class="st2" width="3.76" height="177.07"/>
		<rect x="422.28" y="418.1" class="st2" width="3.76" height="177.07"/>
		<rect x="424.91" y="418.1" class="st2" width="3.58" height="177.07"/>
		<rect x="427.36" y="418.1" class="st2" width="3.58" height="177.07"/>
		<rect x="429.81" y="418.1" class="st2" width="3.58" height="177.07"/>
		<rect x="432.25" y="418.1" class="st2" width="3.76" height="177.07"/>
		<rect x="434.7" y="418.1" class="st2" width="3.76" height="177.07"/>
		<rect x="437.15" y="418.1" class="st2" width="3.76" height="177.07"/>
		<rect x="439.59" y="418.1" class="st2" width="3.76" height="177.07"/>
		<rect x="442.04" y="418.1" class="st2" width="3.76" height="177.07"/>
		<rect x="444.49" y="418.1" class="st2" width="3.76" height="177.07"/>
		<rect x="447.12" y="418.1" class="st2" width="3.58" height="177.07"/>
		<rect x="449.57" y="418.1" class="st2" width="3.58" height="177.07"/>
		<rect x="452.01" y="418.1" class="st2" width="3.58" height="177.07"/>
		<rect x="454.46" y="418.1" class="st2" width="3.76" height="177.07"/>
		<rect x="456.91" y="418.1" class="st2" width="3.76" height="177.07"/>
		<rect x="459.35" y="418.1" class="st2" width="3.76" height="177.07"/>
		<rect x="461.8" y="418.1" class="st2" width="3.76" height="177.07"/>
		<rect x="464.25" y="418.1" class="st2" width="3.76" height="177.07"/>
		<rect x="466.69" y="418.1" class="st2" width="3.76" height="177.07"/>
		<rect x="469.33" y="418.1" class="st2" width="3.58" height="177.07"/>
		<rect x="471.78" y="418.1" class="st2" width="3.58" height="177.07"/>
		<rect x="474.22" y="418.1" class="st2" width="3.58" height="177.07"/>
		<rect x="476.67" y="418.1" class="st2" width="3.76" height="177.07"/>
		<rect x="479.12" y="418.1" class="st2" width="3.76" height="177.07"/>
		<rect x="481.56" y="418.1" class="st2" width="3.76" height="177.07"/>
		<rect x="484.01" y="418.1" class="st2" width="3.76" height="177.07"/>
		<rect x="486.46" y="418.1" class="st2" width="3.76" height="177.07"/>
		<rect x="488.9" y="418.1" class="st2" width="3.76" height="177.07"/>
		<rect x="491.54" y="418.1" class="st2" width="3.58" height="177.07"/>
		<rect x="493.98" y="418.1" class="st2" width="3.58" height="177.07"/>
		<rect x="496.43" y="418.1" class="st2" width="3.58" height="177.07"/>
		<rect x="498.88" y="418.1" class="st2" width="3.76" height="177.07"/>
		<rect x="501.33" y="418.1" class="st2" width="3.76" height="177.07"/>
		<rect x="503.77" y="418.1" class="st2" width="3.76" height="177.07"/>
		<rect x="506.22" y="418.1" class="st2" width="3.76" height="177.07"/>
		<rect x="508.67" y="418.1" class="st2" width="3.76" height="177.07"/>
		<rect x="511.11" y="418.1" class="st2" width="3.76" height="177.07"/>
		<rect x="513.75" y="418.1" class="st2" width="3.58" height="177.07"/>
		<rect x="516.19" y="418.1" class="st2" width="3.58" height="177.07"/>
		<rect x="518.64" y="418.1" class="st2" width="3.58" height="177.07"/>
		<rect x="521.09" y="418.1" class="st2" width="3.76" height="177.07"/>
		<rect x="523.53" y="418.1" class="st2" width="3.76" height="177.07"/>
		<rect x="525.98" y="418.1" class="st2" width="3.76" height="177.07"/>
		<rect x="528.43" y="418.1" class="st2" width="3.76" height="177.07"/>
		<rect x="530.87" y="418.1" class="st2" width="3.76" height="177.07"/>
		<rect x="533.32" y="418.1" class="st2" width="3.76" height="177.07"/>
		<rect x="535.96" y="418.1" class="st2" width="3.58" height="177.07"/>
		<rect x="538.4" y="418.1" class="st2" width="3.58" height="177.07"/>
		<rect x="540.85" y="418.1" class="st2" width="3.58" height="177.07"/>
		<rect x="543.3" y="418.1" class="st2" width="3.76" height="177.07"/>
		<rect x="545.74" y="418.1" class="st2" width="3.76" height="177.07"/>
		<rect x="548.19" y="418.1" class="st2" width="3.76" height="177.07"/>
		<rect x="550.64" y="418.1" class="st2" width="3.76" height="177.07"/>
		<rect x="553.08" y="418.1" class="st2" width="3.76" height="177.07"/>
		<rect x="555.53" y="418.1" class="st2" width="3.76" height="177.07"/>
		<rect x="558.16" y="418.1" class="st2" width="3.58" height="177.07"/>
		<rect x="560.61" y="418.1" class="st2" width="3.58" height="177.07"/>
		<rect x="563.06" y="418.1" class="st2" width="3.58" height="177.07"/>
		<rect x="565.5" y="418.1" class="st2" width="3.76" height="177.07"/>
		<rect x="567.95" y="418.1" class="st2" width="3.76" height="177.07"/>
		<rect x="570.4" y="418.1" class="st2" width="3.76" height="177.07"/>
		<rect x="572.84" y="418.1" class="st2" width="3.76" height="177.07"/>
		<rect x="575.29" y="418.1" class="st2" width="3.76" height="177.07"/>
		<rect x="577.74" y="418.1" class="st2" width="3.76" height="177.07"/>
		<rect x="580.37" y="418.1" class="st2" width="3.58" height="177.07"/>
		<rect x="582.82" y="418.1" class="st2" width="3.58" height="177.07"/>
		<rect x="585.27" y="418.1" class="st2" width="3.58" height="177.07"/>
		<rect x="587.71" y="418.1" class="st2" width="3.76" height="177.07"/>
		<rect x="590.16" y="418.1" class="st2" width="3.76" height="177.07"/>
		<rect x="592.61" y="418.1" class="st2" width="3.76" height="177.07"/>
		<rect x="595.05" y="418.1" class="st2" width="3.76" height="177.07"/>
		<rect x="597.5" y="418.1" class="st2" width="3.76" height="177.07"/>
		<rect x="599.95" y="418.1" class="st2" width="3.76" height="177.07"/>
		<rect x="602.58" y="418.1" class="st2" width="3.58" height="177.07"/>
		<rect x="605.03" y="418.1" class="st2" width="3.58" height="177.07"/>
		<rect x="607.47" y="418.1" class="st2" width="3.58" height="177.07"/>
		<rect x="609.92" y="418.1" class="st2" width="3.76" height="177.07"/>
		<rect x="612.37" y="418.1" class="st2" width="3.76" height="177.07"/>
		<rect x="614.81" y="418.1" class="st2" width="3.76" height="177.07"/>
		<rect x="617.26" y="418.1" class="st2" width="3.76" height="177.07"/>
		<rect x="619.71" y="418.1" class="st2" width="3.76" height="177.07"/>
		<rect x="622.15" y="418.1" class="st2" width="3.76" height="177.07"/>
		<rect x="624.79" y="418.1" class="st2" width="3.58" height="177.07"/>
		<rect x="627.24" y="418.1" class="st2" width="3.58" height="177.07"/>
		<rect x="629.68" y="418.1" class="st2" width="3.58" height="177.07"/>
		<rect x="632.13" y="418.1" class="st2" width="3.76" height="177.07"/>
		<rect x="634.58" y="418.1" class="st2" width="3.76" height="177.07"/>
		<rect x="637.02" y="418.1" class="st2" width="3.76" height="177.07"/>
		<rect x="639.47" y="418.1" class="st2" width="3.76" height="177.07"/>
		<rect x="641.92" y="418.1" class="st2" width="3.76" height="177.07"/>
		<rect x="644.36" y="418.1" class="st2" width="3.76" height="177.07"/>
		<rect x="647" y="418.1" class="st2" width="3.58" height="177.07"/>
		<rect x="649.44" y="418.1" class="st2" width="3.58" height="177.07"/>
		<rect x="651.89" y="418.1" class="st2" width="3.58" height="177.07"/>
		<rect x="654.34" y="418.1" class="st2" width="3.76" height="177.07"/>
		<rect x="656.78" y="418.1" class="st2" width="3.76" height="177.07"/>
		<rect x="659.23" y="418.1" class="st2" width="3.76" height="177.07"/>
		<rect x="661.68" y="418.1" class="st2" width="3.76" height="177.07"/>
		<rect x="664.12" y="418.1" class="st2" width="3.76" height="177.07"/>
		<rect x="666.57" y="418.1" class="st2" width="3.76" height="177.07"/>
		<rect x="669.21" y="418.1" class="st2" width="3.58" height="177.07"/>
		<rect x="671.65" y="418.1" class="st2" width="3.58" height="177.07"/>
		<rect x="674.1" y="418.1" class="st2" width="3.58" height="177.07"/>
		<rect x="676.55" y="418.1" class="st2" width="3.76" height="177.07"/>
		<rect x="678.99" y="418.1" class="st2" width="3.76" height="177.07"/>
		<rect x="681.44" y="418.1" class="st2" width="3.76" height="177.07"/>
		<rect x="683.89" y="418.1" class="st2" width="3.76" height="177.07"/>
		<rect x="686.33" y="418.1" class="st2" width="3.76" height="177.07"/>
		<rect x="688.78" y="418.1" class="st2" width="3.76" height="177.07"/>
		<rect x="691.41" y="418.1" class="st2" width="3.58" height="177.07"/>
		<rect x="693.86" y="418.1" class="st2" width="3.58" height="177.07"/>
		<rect x="696.31" y="418.1" class="st2" width="3.58" height="177.07"/>
		<rect x="698.75" y="418.1" class="st2" width="3.76" height="177.07"/>
		<rect x="701.2" y="418.1" class="st2" width="3.76" height="177.07"/>
		<rect x="703.65" y="418.1" class="st2" width="3.76" height="177.07"/>
		<rect x="706.09" y="418.1" class="st2" width="3.76" height="177.07"/>
		<rect x="708.54" y="418.1" class="st2" width="5.08" height="177.07"/>
	</g>
	<text transform="matrix(1 0 0 1 702.7656 433.7025)" class="st3 st4 st5"></text>
</g>
</svg>
