<svg id="Layer_1" data-name="Layer 1" xmlns="http://www.w3.org/2000/svg" viewBox="0 0 1400 400"><defs><style>.cls-1{fill:#fff;}</style></defs><rect width="1400" height="400"/><path class="cls-1" d="M560,180.81h-.14l-7.9,4.27-1.19-4.69,9.93-5.31h5.24v45.44H560Z"/><path class="cls-1" d="M601.52,220.52V208.14H580.41v-4l20.27-29h6.64v28.24h6.36v4.82h-6.36v12.38Zm0-17.2V188.15q0-3.56.21-7.13h-.21c-1.4,2.66-2.52,4.62-3.78,6.71l-11.11,15.45v.14Z"/><path class="cls-1" d="M648.56,197.31c0,15.45-5.73,24-15.8,24-8.88,0-14.89-8.32-15-23.35,0-15.24,6.57-23.63,15.8-23.63C643.11,174.31,648.56,182.84,648.56,197.31Zm-24.68.7c0,11.81,3.64,18.52,9.23,18.52,6.29,0,9.3-7.34,9.3-18.94,0-11.18-2.87-18.52-9.23-18.52C627.8,179.07,623.88,185.64,623.88,198Z"/><path class="cls-1" d="M684.42,197.31c0,15.45-5.74,24-15.8,24-8.88,0-14.89-8.32-15-23.35,0-15.24,6.57-23.63,15.8-23.63C679,174.31,684.42,182.84,684.42,197.31Zm-24.68.7c0,11.81,3.64,18.52,9.23,18.52,6.29,0,9.29-7.34,9.29-18.94,0-11.18-2.86-18.52-9.22-18.52C663.65,179.07,659.74,185.64,659.74,198Z"/><path class="cls-1" d="M709.72,186.68l4.82,7.27c1.26,1.89,2.31,3.64,3.42,5.53h.21c1.12-2,2.24-3.78,3.36-5.6l4.75-7.2h6.64L721.39,203l11.88,17.48h-7l-5-7.62c-1.33-2-2.45-3.85-3.63-5.87h-.14c-1.12,2.09-2.31,3.84-3.57,5.87l-4.89,7.62h-6.78l12-17.27-11.46-16.57Z"/><path class="cls-1" d="M771.09,220.52V208.14H750v-4l20.27-29h6.64v28.24h6.36v4.82h-6.36v12.38Zm0-17.2V188.15q0-3.56.21-7.13h-.21c-1.4,2.66-2.52,4.62-3.78,6.71L756.2,203.18v.14Z"/><path class="cls-1" d="M818.13,197.31c0,15.45-5.73,24-15.8,24-8.88,0-14.89-8.32-15-23.35,0-15.24,6.57-23.63,15.8-23.63C812.68,174.31,818.13,182.84,818.13,197.31Zm-24.68.7c0,11.81,3.64,18.52,9.23,18.52,6.29,0,9.3-7.34,9.3-18.94,0-11.18-2.87-18.52-9.23-18.52C797.37,179.07,793.45,185.64,793.45,198Z"/><path class="cls-1" d="M854,197.31c0,15.45-5.74,24-15.8,24-8.88,0-14.89-8.32-15-23.35,0-15.24,6.57-23.63,15.8-23.63C848.53,174.31,854,182.84,854,197.31Zm-24.68.7c0,11.81,3.64,18.52,9.23,18.52,6.29,0,9.29-7.34,9.29-18.94,0-11.18-2.86-18.52-9.22-18.52C833.22,179.07,829.31,185.64,829.31,198Z"/></svg>