<svg id="Layer_1" data-name="Layer 1" xmlns="http://www.w3.org/2000/svg" viewBox="0 0 1400 400"><defs><style>.cls-1{fill:#fff;}</style></defs><rect width="1400" height="400"/><path class="cls-1" d="M369.38,220.52,357.43,173.4h6.43l5.59,23.84c1.4,5.87,2.66,11.74,3.5,16.29h.14c.77-4.69,2.23-10.28,3.84-16.36l6.29-23.77h6.36l5.74,23.91c1.32,5.59,2.58,11.18,3.28,16.15h.14c1-5.18,2.31-10.42,3.78-16.29l6.22-23.77H415l-13.35,47.12h-6.36L389.31,196a141.32,141.32,0,0,1-3.08-15.38h-.14A146.56,146.56,0,0,1,382.45,196l-6.71,24.54Z"/><path class="cls-1" d="M421.74,204.72c.14,8.32,5.45,11.74,11.6,11.74a22.22,22.22,0,0,0,9.37-1.75l1.05,4.41a27.19,27.19,0,0,1-11.26,2.17c-10.41,0-16.63-6.92-16.63-17.13s6-18.24,15.86-18.24c11,0,14,9.71,14,15.93a23.23,23.23,0,0,1-.21,2.87Zm18-4.4c.07-3.92-1.61-10-8.53-10-6.22,0-8.94,5.73-9.43,10Z"/><path class="cls-1" d="M453.33,170.89h6.08v21.25h.14c2.17-3.78,6.08-6.22,11.54-6.22,8.38,0,14.33,7,14.26,17.26,0,12.09-7.62,18.11-15.17,18.11-4.9,0-8.81-1.89-11.33-6.37h-.21l-.28,5.6h-5.31c.14-2.31.28-5.73.28-8.74ZM459.41,207a11.53,11.53,0,0,0,.28,2.23,9.49,9.49,0,0,0,9.23,7.2c6.43,0,10.27-5.24,10.27-13,0-6.78-3.49-12.58-10.06-12.58a9.81,9.81,0,0,0-9.37,7.55,12.14,12.14,0,0,0-.35,2.51Z"/><path class="cls-1" d="M492.26,214.23a16.24,16.24,0,0,0,8.11,2.44c4.48,0,6.57-2.23,6.57-5s-1.74-4.54-6.29-6.22c-6.08-2.17-8.94-5.52-8.94-9.58,0-5.45,4.4-9.92,11.67-9.92A16.9,16.9,0,0,1,511.7,188l-1.54,4.48a13.18,13.18,0,0,0-6.92-2c-3.64,0-5.66,2.1-5.66,4.61,0,2.8,2,4.06,6.43,5.73,5.87,2.24,8.88,5.18,8.88,10.21,0,5.94-4.62,10.21-12.66,10.21a19.23,19.23,0,0,1-9.5-2.38Z"/><path class="cls-1" d="M527.63,177.18a3.81,3.81,0,0,1-7.62,0,3.75,3.75,0,0,1,3.85-3.85A3.65,3.65,0,0,1,527.63,177.18Zm-6.85,43.34V186.68h6.15v33.84Z"/><path class="cls-1" d="M544.55,178.58v8.1h8.81v4.69h-8.81v18.24c0,4.2,1.19,6.57,4.61,6.57a11.5,11.5,0,0,0,3.57-.42l.28,4.62a14.85,14.85,0,0,1-5.46.91,8.57,8.57,0,0,1-6.64-2.66c-1.74-1.82-2.37-4.82-2.37-8.81V191.37h-5.25v-4.69h5.25v-6.22Z"/><path class="cls-1" d="M563.28,204.72c.14,8.32,5.45,11.74,11.6,11.74a22.22,22.22,0,0,0,9.37-1.75l1,4.41a27.13,27.13,0,0,1-11.25,2.17c-10.42,0-16.64-6.92-16.64-17.13s6-18.24,15.87-18.24c11,0,14,9.71,14,15.93a23.23,23.23,0,0,1-.21,2.87Zm18-4.4c.06-3.92-1.61-10-8.53-10-6.22,0-8.95,5.73-9.44,10Z"/><path class="cls-1" d="M616,173.4v27.89c0,10.56,4.69,15,11,15,7,0,11.46-4.61,11.46-15V173.4h6.15v27.47c0,14.47-7.62,20.42-17.82,20.42-9.65,0-16.92-5.53-16.92-20.14V173.4Z"/><path class="cls-1" d="M654.92,195.84c0-3.49-.07-6.36-.28-9.16h5.45l.35,5.6h.14a12.43,12.43,0,0,1,11.18-6.36c4.69,0,12,2.79,12,14.4v20.2h-6.15V201c0-5.45-2-10-7.82-10a8.73,8.73,0,0,0-8.25,6.29,8.86,8.86,0,0,0-.42,2.87v20.34h-6.15Z"/><path class="cls-1" d="M722.93,170.89v40.89c0,3,.07,6.43.28,8.74h-5.52l-.28-5.88h-.14a12.53,12.53,0,0,1-11.54,6.65c-8.18,0-14.47-6.92-14.47-17.2-.07-11.25,6.92-18.17,15.17-18.17,5.17,0,8.67,2.44,10.21,5.17h.14v-20.2Zm-6.15,29.57a10.87,10.87,0,0,0-.28-2.59,9,9,0,0,0-8.88-7.13c-6.36,0-10.14,5.59-10.14,13.07,0,6.85,3.36,12.51,10,12.51a9.25,9.25,0,0,0,9-7.34,10.62,10.62,0,0,0,.28-2.65Z"/><path class="cls-1" d="M736.56,204.72c.14,8.32,5.45,11.74,11.6,11.74a22.26,22.26,0,0,0,9.37-1.75l1.05,4.41a27.19,27.19,0,0,1-11.26,2.17c-10.41,0-16.63-6.92-16.63-17.13s6-18.24,15.86-18.24c11.05,0,14,9.71,14,15.93a23.23,23.23,0,0,1-.21,2.87Zm18-4.4c.07-3.92-1.61-10-8.53-10-6.22,0-8.94,5.73-9.43,10Z"/><path class="cls-1" d="M768.15,197.24c0-4-.07-7.41-.28-10.56h5.38l.21,6.65h.28c1.54-4.55,5.25-7.41,9.37-7.41a6.66,6.66,0,0,1,1.75.21v5.8a9.25,9.25,0,0,0-2.1-.21c-4.33,0-7.41,3.28-8.25,7.9a17.21,17.21,0,0,0-.28,2.86v18h-6.08Z"/><path class="cls-1" d="M806,174a58.78,58.78,0,0,1,11.11-1c6.08,0,10,1,12.93,3.43A9.87,9.87,0,0,1,834,184.8c0,4.54-3,8.53-8,10.34v.14c4.47,1.12,9.71,4.83,9.71,11.82a12.66,12.66,0,0,1-4,9.43c-3.29,3-8.6,4.41-16.29,4.41a70.84,70.84,0,0,1-9.43-.56Zm6.08,19.3h5.52c6.43,0,10.2-3.36,10.2-7.9,0-5.53-4.19-7.69-10.34-7.69a26,26,0,0,0-5.38.42Zm0,22.57a32.4,32.4,0,0,0,5.1.28c6.29,0,12.09-2.3,12.09-9.15,0-6.44-5.52-9.09-12.16-9.09h-5Z"/><path class="cls-1" d="M872,211.29c0,3.5.07,6.57.28,9.23h-5.45L866.5,215h-.14a12.73,12.73,0,0,1-11.19,6.3c-5.31,0-11.67-2.94-11.67-14.82V186.68h6.15v18.74c0,6.43,2,10.76,7.55,10.76a8.88,8.88,0,0,0,8.11-5.59,9,9,0,0,0,.56-3.14V186.68H872Z"/><path class="cls-1" d="M889.08,177.18a3.81,3.81,0,0,1-7.62,0,3.75,3.75,0,0,1,3.84-3.85A3.66,3.66,0,0,1,889.08,177.18Zm-6.86,43.34V186.68h6.16v33.84Z"/><path class="cls-1" d="M898.58,170.89h6.15v49.63h-6.15Z"/><path class="cls-1" d="M944.29,170.89v40.89c0,3,.07,6.43.28,8.74h-5.52l-.28-5.88h-.14c-1.88,3.78-6,6.65-11.53,6.65-8.18,0-14.47-6.92-14.47-17.2-.07-11.25,6.92-18.17,15.17-18.17,5.17,0,8.67,2.44,10.2,5.17h.14v-20.2Zm-6.15,29.57a10.87,10.87,0,0,0-.28-2.59,9,9,0,0,0-8.87-7.13c-6.36,0-10.14,5.59-10.14,13.07,0,6.85,3.36,12.51,10,12.51a9.23,9.23,0,0,0,9-7.34,10.62,10.62,0,0,0,.28-2.65Z"/><path class="cls-1" d="M961.35,177.18a3.81,3.81,0,0,1-7.62,0,3.75,3.75,0,0,1,3.85-3.85A3.65,3.65,0,0,1,961.35,177.18Zm-6.85,43.34V186.68h6.15v33.84Z"/><path class="cls-1" d="M970.85,195.84c0-3.49-.06-6.36-.27-9.16H976l.35,5.6h.14a12.42,12.42,0,0,1,11.18-6.36c4.68,0,11.95,2.79,11.95,14.4v20.2H993.5V201c0-5.45-2-10-7.83-10a8.72,8.72,0,0,0-8.24,6.29,8.86,8.86,0,0,0-.42,2.87v20.34h-6.16Z"/><path class="cls-1" d="M1038.52,215.62c0,7.76-1.54,12.52-4.83,15.45-3.28,3.08-8,4.06-12.3,4.06-4,0-8.53-1-11.25-2.8l1.54-4.68a19.13,19.13,0,0,0,9.92,2.65c6.29,0,10.91-3.28,10.91-11.81v-3.78h-.14c-1.89,3.15-5.53,5.67-10.77,5.67-8.39,0-14.4-7.13-14.4-16.5,0-11.46,7.48-18,15.24-18,5.87,0,9.09,3.07,10.56,5.87h.13l.29-5.11h5.38c-.14,2.45-.28,5.18-.28,9.3ZM1032.44,200a8.77,8.77,0,0,0-.35-2.8,8.86,8.86,0,0,0-8.6-6.5c-5.87,0-10.07,5-10.07,12.79,0,6.64,3.36,12.16,10,12.16a9,9,0,0,0,8.53-6.29,10.65,10.65,0,0,0,.49-3.28Z"/></svg>